<?xml version="1.0" encoding="utf-8"?>
<!-- Generator: Adobe Illustrator 21.0.0, SVG Export Plug-In . SVG Version: 6.00 Build 0)  -->
<svg version="1.1" id="Layer_1" xmlns="http://www.w3.org/2000/svg" xmlns:xlink="http://www.w3.org/1999/xlink" x="0px" y="0px"
	 viewBox="0 0 21.3 22.4" style="enable-background:new 0 0 21.3 22.4;" xml:space="preserve">
<style type="text/css">
	.st0{fill-rule:evenodd;clip-rule:evenodd;fill:#FFFFFF;stroke:#383336;stroke-width:5.670000e-03;stroke-miterlimit:2.6131;}
	.st1{fill-rule:evenodd;clip-rule:evenodd;fill:#F58733;stroke:#000000;stroke-width:5.670000e-03;stroke-miterlimit:2.6131;}
	.st2{fill-rule:evenodd;clip-rule:evenodd;fill:#383336;stroke:#000000;stroke-width:5.670000e-03;stroke-miterlimit:2.6131;}
	.st3{fill-rule:evenodd;clip-rule:evenodd;fill:#FFFFFF;stroke:#000000;stroke-width:5.670000e-03;stroke-miterlimit:2.6131;}
</style>
<path class="st0" d="M4,17.3c-0.2-0.3,0.4-0.6,0.5-0.4l1.3,2.7c-0.1,0.2-0.3,0.2-0.5,0.2L4,17.3L4,17.3z M5.4,17.2l1.7,3.2
	c-0.3,0.2-0.7,0.1-1.1-0.1c0.2-0.1,0.3-0.3,0.3-0.5l-1.2-2.6L5.4,17.2L5.4,17.2z M17.5,17.3c0.2-0.3-0.4-0.7-0.5-0.4l-1.3,2.7
	c0.1,0.2,0.3,0.2,0.5,0.2L17.5,17.3L17.5,17.3z M16,17.2l-1.7,3.2c0.4,0.2,0.7,0.1,1.1-0.1c-0.2-0.1-0.3-0.3-0.3-0.5l1.2-2.6
	L16,17.2L16,17.2z M13.1,15.8c0.1-0.3,0.2-0.5,0.5-0.7c0.2,0,0.4-0.2,0.5-0.5c0.1-0.2,0.3-0.1,0.5-0.4c0.3-0.3,0.4-0.5,0.6-0.8
	c0.1-0.1,0.1-0.2,0.2-0.3c0.5-0.5,0.3-0.6,0.6-1c0.1-0.2,0.3-0.8,0.3-1c0-0.2,0-0.3,0-0.4c0-0.2,0-0.4,0.1-0.7c0-0.1,0.1-0.1,0-0.3
	c-0.1-0.4,0.1-0.9-0.1-1.3c-0.1-0.1-0.1-0.3-0.2-0.4c-0.1-0.5-0.2-0.6-0.5-1c-0.1-0.2-0.3-0.3-0.3-0.5c-0.1-0.2-0.2-0.2-0.3-0.3
	c-0.2-0.1-0.4-0.4-0.6-0.6c-0.2-0.2-0.3-0.3-0.4-0.5c-0.1-0.1-0.1-0.2-0.2-0.3c-0.1-0.1-0.2-0.1-0.3-0.2c-0.2-0.2-0.4-0.2-0.6-0.5
	c-0.1-0.1,0-0.2,0-0.3c-0.1-0.1-0.2-0.2-0.2-0.3c0.2-0.1,0.4-0.1,0.6-0.1c0.2-0.1-0.1-0.2,0.3-0.2c0.3,0,1,0.3,1.1,0.5
	c0.3,0.1,0.6,0.2,0.6,0.5c0.2,0,1,0.8,1,1c0.3,0.1,0.4,0.3,0.5,0.6c0.3,0.1,0.8,0.9,0.8,1.2c0.1,0.1,0.2,0.3,0.3,0.4
	c0.1,0.2,0,0.3,0.1,0.5c0.1,0.4,0.2,1,0.1,1.3c0.2,0.3,0.1,0.9,0.1,1.3c0,0.3-0.1,0.6-0.2,0.8c0.1,0.3,0,0.5-0.2,0.8
	c0,0.4-0.5,1.3-0.8,1.6c0,0.3-0.2,0.5-0.4,0.7c-0.1,0.3-0.9,1.1-1.3,1.3c-0.1,0.2-0.2,0.3-0.4,0.4C14.2,16.1,13.6,15.9,13.1,15.8
	L13.1,15.8z M9.4,13.3c-0.6-0.3-1-0.8-1.4-1.4c-0.4-0.7-0.6-1.4-0.6-2.2c0-0.6,0.2-1.3,0.5-1.8c0.3-0.5,0.7-1.1,1.2-1.4c0,0,0,0,0,0
	c0.1,0,0.1,0,0.2,0c0.1,0.1,0,0.1,0,0.2c0,0,0,0,0,0C9,7.1,8.8,7.6,8.7,8C8.5,8.4,8.4,8.9,8.4,9.3c0,1.3,0.5,2.3,1.5,3.1l0-5.6
	l0.1,0l0.7-0.4l0.8,0.4l-0.2,5.6c1-0.8,1.5-1.8,1.5-3.1c0-0.4-0.1-0.9-0.2-1.3c-0.2-0.4-0.4-0.9-0.7-1.2c0,0,0,0,0,0
	c0-0.1-0.1-0.1,0-0.2c0.1-0.1,0.1-0.1,0.2,0c0,0,0,0,0,0c0.5,0.3,0.9,0.8,1.2,1.4c0.3,0.6,0.5,1.2,0.5,1.8c0,0.8-0.2,1.5-0.7,2.2
	c-0.4,0.6-0.8,1-1.4,1.3c0.4,0.1,0.9,0.2,1.4,0.1c0.1,0,0.2,0,0.2,0.1c0,0.1,0,0.1,0,0.1c0,0,0,0,0,0c0,0,0,0,0,0c0,0,0,0,0,0
	c-0.3,0.1-0.7,0.2-1.1,0.2c-0.2,0-0.4,0-0.6,0c-0.1,0-0.2,0-0.3,0l-0.5,0.6L10,13.9c-0.3,0-0.6,0-0.8,0c-0.4,0-0.8-0.1-1.1-0.2
	c0,0,0,0,0,0c0,0,0,0,0,0c0,0,0,0,0,0c0,0-0.1-0.1-0.1-0.1c0-0.1,0.1-0.1,0.2-0.1C8.6,13.5,9,13.4,9.4,13.3L9.4,13.3z M7.7,13.3
	c-0.7-0.3-1.2-0.8-1.6-1.4c-0.3-0.6-0.5-1.2-0.5-1.9c0-0.8,0.3-1.6,0.9-2.2c0.5-0.6,1.2-1.1,2-1.2c0.1,0,0.2,0,0.2,0.1
	c0,0.1,0,0.1-0.1,0.2c0,0,0,0,0,0c0,0,0,0,0,0c-0.5,0.3-1,0.8-1.3,1.3c-0.4,0.6-0.6,1.3-0.6,2.1v0c0,0.5,0.1,1,0.3,1.5
	c0.2,0.5,0.5,1,0.9,1.3c0,0,0,0,0,0C8,13.1,8,13.2,8,13.3C7.9,13.3,7.8,13.3,7.7,13.3C7.8,13.3,7.7,13.3,7.7,13.3L7.7,13.3z M10.5,6
	c-0.1,0.1-0.3,0.2-0.5,0.2c-0.5,0-0.8-0.2-0.8-0.7c0-0.1,0-0.2,0.1-0.3c0,0,0,0,0,0c0,0,0,0,0,0c0,0,0.1-0.1,0.1,0
	c0.1,0,0.1,0.1,0.1,0.1c0,0,0,0,0,0c0,0.1,0,0.2,0.1,0.2c0,0.1,0.2,0.1,0.3,0.1c0.2,0,0.3-0.1,0.4-0.3c0-0.1,0-0.2,0.1-0.2
	c0.1,0,0.1,0.1,0.2,0.2c0,0.2,0.2,0.3,0.4,0.3c0.3,0,0.4-0.2,0.4-0.4c0-0.1,0-0.1,0.1-0.1c0.1,0,0.1,0.1,0.2,0.1c0,0.1,0,0.2,0,0.3
	v0v0c0,0.5-0.3,0.7-0.8,0.7C10.8,6.2,10.7,6.1,10.5,6L10.5,6z M13.3,13.3C13.3,13.3,13.3,13.3,13.3,13.3c-0.1,0-0.2,0-0.2,0
	c-0.1-0.1,0-0.1,0-0.2c0,0,0,0,0,0c0.4-0.4,0.7-0.8,0.9-1.3c0.2-0.5,0.3-1,0.3-1.5v0c0-0.7-0.2-1.4-0.6-2.1c-0.3-0.5-0.8-1-1.3-1.3
	c0,0,0,0,0,0c0,0,0,0,0,0c-0.1,0-0.1-0.1-0.1-0.2c0-0.1,0.2-0.1,0.2-0.1c0.8,0.2,1.5,0.6,2,1.2c0.5,0.6,0.8,1.4,0.9,2.2
	c0,0.7-0.2,1.3-0.5,1.9C14.5,12.5,14,13,13.3,13.3L13.3,13.3z M8.2,3.6c-0.5,0-0.9,0.2-1.1,0.5C7,4,7,3.8,6.9,3.7c0-0.1,0-0.1-0.1,0
	C6.7,3.9,6.4,4.1,6.2,4.3C6,4.5,5.8,4.6,5.7,4.7c0,0-0.1,0.1-0.1,0.1c0,0,0,0,0,0L5.2,5c0,0.1-0.1,0.2-0.1,0.3
	C5,5.5,4.9,5.6,4.8,5.7C4.6,5.9,4.4,6.2,4.3,6.4c0,0,0,0.1,0,0.1L4.1,6.8l0,0C4,7.2,3.7,7.6,3.6,8.1C3.5,8.3,3.5,8.4,3.5,8.6L3.3,9
	l0,0c0.1,0.3,0.1,0.6,0,0.9c0,0.3,0,0.5,0,0.7c0,0.1,0,0.2,0,0.2l-0.1,0.5c0.1,0.1,0.3,0.3,0.4,0.5c0.1,0.2,0.1,0.5,0.2,0.8
	c0,0.1,0.1,0.2,0.1,0.4c0,0,0,0.1,0.1,0.1l0,0.4l0.2,0.1c0.3,0.1,0.4,0.2,0.5,0.5c0.1,0.2,0.2,0.4,0.4,0.6c0.1,0.1,0.2,0.2,0.3,0.2
	l0,0.2l0.4,0.2c0.2,0.1,0.3,0.2,0.4,0.3c0.2,0.2,0.3,0.4,0.5,0.5c0.1,0,0,0,0.1,0.1c0.5-0.2,1-0.4,1.4-0.5l0,0l0,0
	c0-0.1,0-0.1,0-0.2c0-0.3-0.1-0.5-0.4-0.6c-0.2-0.1-0.4-0.2-0.6-0.4l-0.3-0.6l0,0L6.5,14c0,0,0,0,0,0c-0.1-0.1-0.2-0.2-0.3-0.3
	c-0.2-0.2-0.4-0.3-0.4-0.6c0-0.1,0-0.2,0-0.3c0-0.1,0-0.1,0-0.1l-0.3-0.2c0-0.2-0.1-0.4-0.2-0.6c-0.1-0.2-0.2-0.4-0.2-0.6
	c0-0.1,0-0.2,0.1-0.3c0,0,0-0.1,0-0.1L5,10.6C5,10.4,5,10.2,5,10c0-0.2-0.1-0.3,0-0.5c0-0.1,0.1-0.2,0.2-0.4c0,0,0-0.1,0-0.1
	L5.1,8.8c0.1-0.1,0.2-0.3,0.2-0.4c0-0.2,0-0.4,0.1-0.5c0.1-0.3,0.3-0.4,0.4-0.5l0,0V7C6,6.9,6.1,6.8,6.2,6.7
	c0.1-0.2,0.2-0.4,0.3-0.5L6.8,6l0-0.3c0.3-0.1,0.5-0.3,0.6-0.5C7.6,5.1,7.6,5,7.7,4.9C7.8,4.8,8,4.7,8.1,4.7c0.1-0.1,0.1-0.1,0-0.1
	c-0.1,0-0.2,0-0.3-0.1C8,4.3,8.2,4,8.2,3.6L8.2,3.6z M6.2,17.6l1.2,2.4c0.3-0.1,0.3-0.2,0.6-0.3c1.8-0.7,3.6-0.8,5.3-0.1
	c0.3,0.1,0.4,0.2,0.7,0.3l1.1-2.2c-0.3-0.2-0.3-0.2-0.5-0.3c-0.8-0.4-1.7-0.7-2.6-0.9c-1-0.2-2-0.2-3,0c-0.8,0.2-1.6,0.4-2.4,0.7
	C6.5,17.4,6.5,17.4,6.2,17.6L6.2,17.6z M6,17.5c0.3-0.1,0.4-0.2,0.6-0.3c2.9-1.3,5.6-1.2,8.1,0.1c0.3,0.2,0.3,0.2,0.6,0.4l-1.3,2.4
	c-0.4-0.2-0.5-0.3-0.8-0.4C11.7,19,9.9,19,8.1,19.8c-0.3,0.1-0.4,0.2-0.7,0.3L6,17.5L6,17.5z M15.2,16.7L15.2,16.7L15.2,16.7
	c0.3-0.1,0.6-0.4,0.7-0.5c1.8-1.5,2.9-3.7,2.9-6c0-4.3-3.7-7.9-8.2-7.9s-8.2,3.5-8.2,7.9c0,2.4,1.2,4.7,3.1,6.2
	c0.2,0.1,0.3,0.2,0.5,0.3c1.6-0.6,3-1,4.7-1C12.3,15.7,13.6,16.1,15.2,16.7L15.2,16.7z M13.1,20.3c-0.7-0.3-1.6-0.5-2.4-0.5h0h0
	c-0.7,0-1.7,0.1-2.4,0.5c0,0,0,0,0,0.1C8,20.8,7.5,21.1,7,21.1c-0.6,0.1-1.2-0.1-1.6-0.4c-0.2-0.2-0.3-0.3-0.5-0.6l-1.5-2.6
	c-0.1-0.2-0.1-0.4-0.1-0.6c0.1-0.2,0.2-0.4,0.5-0.5l0,0l-0.2-0.2l-0.2-0.2l-0.2-0.2l-0.2-0.2l-0.2-0.2L2.8,15l-0.2-0.2l-0.1-0.2
	l-0.1-0.2l-0.1-0.3l-0.1-0.3L2,13.6l-0.1-0.3L1.8,13l-0.1-0.3l-0.1-0.3l-0.1-0.3l-0.1-0.3l-0.1-0.3l0-0.3l0-0.3l0-0.3l0-0.3l0-0.3
	l0-0.5l0-0.5l0.1-0.4l0.1-0.4L1.6,8l0.1-0.4l0.1-0.4L2,6.8l0.2-0.4L2.4,6l0.2-0.4l0.2-0.4l0.3-0.3l0.3-0.3l0.3-0.3l0,0
	c1.7-1.7,3.8-2.7,6.2-2.9c2.4-0.2,4.7,0.6,6.6,2l0,0l0.3,0.3l0.3,0.3l0.3,0.3l0.3,0.3l0.3,0.3l0.3,0.3l0.2,0.4L18.8,6L19,6.4
	l0.2,0.4l0.2,0.4l0.1,0.4L19.7,8l0.1,0.4l0.1,0.4l0.1,0.4l0,0.5l0,0.5l0,0.3l0,0.3l0,0.3l0,0.3l0,0.3l-0.1,0.3l-0.1,0.3l-0.1,0.3
	l-0.1,0.3L19.5,13l-0.1,0.3l-0.1,0.3l-0.1,0.3L19.1,14l-0.1,0.2l-0.1,0.2l-0.1,0.2L18.5,15l-0.2,0.2l0,0c-0.2,0.3-0.4,0.5-0.6,0.8
	c-0.1,0.1-0.2,0.2-0.3,0.3c0.1,0,0.1,0,0.2,0.1c0.3,0.2,0.5,0.4,0.4,0.8c0,0.1,0,0.2-0.1,0.3l-1.5,2.7c-0.1,0.3-0.3,0.4-0.5,0.6
	c-0.5,0.3-1,0.5-1.6,0.4C14,21,13.4,20.8,13.1,20.3C13.2,20.3,13.1,20.3,13.1,20.3L13.1,20.3z"/>
<path class="st1" d="M13.1,20.3c-0.7-0.3-1.6-0.5-2.4-0.5h0h0c-0.7,0-1.7,0.1-2.4,0.5c0,0,0,0,0,0.1C8,20.8,7.5,21.1,7,21.1
	c-0.6,0.1-1.2-0.1-1.6-0.4c-0.2-0.2-0.3-0.3-0.5-0.6l-1.5-2.6c-0.1-0.2-0.1-0.4-0.1-0.6c0.1-0.2,0.2-0.4,0.5-0.5l0,0l-0.2-0.2
	l-0.2-0.2l-0.2-0.2l-0.2-0.2l-0.2-0.2L2.8,15l-0.2-0.2l-0.1-0.2l-0.1-0.2l-0.1-0.3l-0.1-0.3L2,13.6l-0.1-0.3L1.8,13l-0.1-0.3
	l-0.1-0.3l-0.1-0.3l-0.1-0.3l-0.1-0.3l0-0.3l0-0.3l0-0.3l0-0.3l0-0.3l0-0.5l0-0.5l0.1-0.4l0.1-0.4L1.6,8l0.1-0.4l0.1-0.4L2,6.8
	l0.2-0.4L2.4,6l0.2-0.4l0.2-0.4l0.3-0.3l0.3-0.3l0.3-0.3l0,0c1.7-1.7,3.8-2.7,6.2-2.9c2.4-0.2,4.7,0.6,6.6,2l0,0l0.3,0.3l0.3,0.3
	l0.3,0.3l0.3,0.3l0.3,0.3l0.3,0.3l0.2,0.4L18.8,6L19,6.4l0.2,0.4l0.2,0.4l0.1,0.4L19.7,8l0.1,0.4l0.1,0.4l0.1,0.4l0,0.5l0,0.5l0,0.3
	l0,0.3l0,0.3l0,0.3l0,0.3l-0.1,0.3l-0.1,0.3l-0.1,0.3l-0.1,0.3L19.5,13l-0.1,0.3l-0.1,0.3l-0.1,0.3L19.1,14l-0.1,0.2l-0.1,0.2
	l-0.1,0.2L18.5,15l-0.2,0.2l0,0c-0.2,0.3-0.4,0.5-0.6,0.8c-0.1,0.1-0.2,0.2-0.3,0.3c0.1,0,0.1,0,0.2,0.1c0.3,0.2,0.5,0.4,0.4,0.8
	c0,0.1,0,0.2-0.1,0.3l-1.5,2.7c-0.1,0.3-0.3,0.4-0.5,0.6c-0.5,0.3-1,0.5-1.6,0.4C14,21,13.4,20.8,13.1,20.3
	C13.2,20.3,13.1,20.3,13.1,20.3L13.1,20.3z M4.4,16.5l-0.2-0.2L4,16.2L3.8,16l-0.2-0.2l-0.2-0.2l-0.2-0.2l-0.2-0.2L3,14.9l-0.1-0.2
	l-0.1-0.2l-0.1-0.2l-0.1-0.2l-0.1-0.2l-0.1-0.2l-0.1-0.3L2,12.9L2,12.7l-0.1-0.3l-0.1-0.3l-0.1-0.3l0-0.3l0-0.3l0-0.3l0-0.3l0-0.3
	l0-0.3l0-0.4l0-0.4l0.1-0.4l0.1-0.4l0.1-0.4L2,7.7l0.1-0.4l0.2-0.4l0.2-0.4l0.2-0.4l0.2-0.4l0.2-0.4l0.3-0.3l0.3-0.3L4,4.4
	C7.4,1,12.5,0.7,16.4,3.6l0.3,0.3L17,4.1l0.3,0.3l0.3,0.3l0.3,0.3l0.3,0.3l0.2,0.4l0.2,0.4l0.2,0.4l0.2,0.4l0.2,0.4l0.1,0.4l0.1,0.4
	l0.1,0.4l0.1,0.4l0.1,0.4l0,0.4l0,0.4l0,0.3l0,0.3l0,0.3l0,0.3l0,0.3l0,0.3l-0.1,0.3l-0.1,0.3l-0.1,0.3l-0.1,0.3l-0.1,0.3L19,13.4
	l-0.1,0.2l-0.1,0.2l-0.1,0.2l-0.1,0.2l-0.1,0.2l-0.1,0.2l-0.2,0.2c-0.4,0.5-0.8,1.1-1.2,1.5c0,0,0,0.1,0,0c0.5-0.3,1.1,0.3,0.9,0.7
	L16.3,20c-0.1,0.2-0.2,0.3-0.4,0.5c-0.9,0.6-2.2,0.4-2.5-0.4c-0.7-0.4-1.8-0.6-2.6-0.6l0,0c-0.8,0-1.9,0.2-2.6,0.6
	c-0.4,0.8-1.7,1-2.6,0.4c-0.2-0.1-0.3-0.3-0.4-0.5l-1.5-2.6C3.4,16.9,4,16.5,4.4,16.5L4.4,16.5z"/>
<path class="st2" d="M15.6,17.2l0.5-0.4l0,0l0,0l0,0l0,0l0,0l0,0l0,0l0,0l0,0l0,0l0,0l0,0l0,0l0,0l0,0l0,0l0,0l0,0l0,0l0,0l0,0l0,0
	l0,0l0,0l0,0l0,0l0,0l0,0l0,0l0,0l0,0l0,0l0.2-0.2l0.2-0.2l0.2-0.2l0.2-0.2l0.2-0.2l0.2-0.2l0.1-0.2l0.1-0.2l0.1-0.2l0.1-0.2
	l0.1-0.2l0.1-0.2l0.1-0.2l0.1-0.2l0.1-0.2l0.1-0.2l0.1-0.3l0.1-0.3l0.1-0.3l0-0.3l0-0.3l0-0.3l0-0.3l0-0.3l0-0.3l0-0.4l0-0.4L19.3,9
	l-0.1-0.4l-0.1-0.4L19,7.8l-0.1-0.4L18.7,7l-0.2-0.4l-0.2-0.4l-0.2-0.4l-0.2-0.3l-0.2-0.3l-0.3-0.3l-0.3-0.3l-0.3-0.3L16.5,4
	l-0.3-0.3l-0.3-0.3l-0.3-0.2l-0.4-0.2l-0.4-0.2l-0.4-0.2L14,2.5l-0.4-0.2l-0.4-0.1l-0.4-0.1L12.4,2L12,1.9l-0.4-0.1l-0.4,0l-0.4,0
	l-0.4,0l-0.4,0L9.3,1.9L8.9,2L8.4,2.1L8,2.2L7.6,2.3L7.2,2.5L6.8,2.7L6.5,2.9L6.1,3.1L5.7,3.3L5.4,3.5L5.1,3.8L4.7,4L4.4,4.3
	L4.1,4.6L3.9,4.9L3.6,5.2L3.4,5.6L3.1,5.9L2.9,6.2L2.7,6.6L2.5,7L2.4,7.4L2.2,7.8L2.1,8.2L2,8.6L2,9L1.9,9.4l0,0.4l0,0.4l0,0.3
	l0,0.3l0,0.3l0,0.3l0,0.3l0,0.3l0.1,0.3l0.1,0.3l0.1,0.3l0.1,0.3l0.1,0.2l0.1,0.2l0.1,0.2l0.1,0.2l0.1,0.2l0.1,0.2l0.1,0.2l0.1,0.2
	L3.4,15l0.2,0.2c0.6,0.8,1.4,1.5,2.2,2L6,17.1c-2.4-1.5-3.9-4.1-3.9-6.9c0-4.5,3.8-8.2,8.5-8.2c4.7,0,8.5,3.7,8.5,8.2
	c0,2.7-1.5,5.4-3.8,6.8c0.1,0,0.1,0.1,0.2,0.1C15.5,17.2,15.6,17.2,15.6,17.2L15.6,17.2z M15.2,16.7L15.2,16.7L15.2,16.7
	c0.3-0.1,0.6-0.4,0.8-0.5c1.8-1.5,2.9-3.7,2.9-6c0-4.3-3.7-7.9-8.2-7.9s-8.2,3.5-8.2,7.9c0,2.4,1.2,4.7,3.1,6.2
	c0.2,0.1,0.3,0.2,0.5,0.3c1.6-0.6,3-1,4.7-1C12.5,15.7,13.6,16.1,15.2,16.7L15.2,16.7z M15.1,16.9c-1.6-0.7-2.6-1-4.3-1
	c-1.7,0-3.1,0.4-4.7,1l-0.1,0c-0.2-0.1-0.4-0.2-0.5-0.3c-2-1.5-3.2-3.8-3.2-6.3c0-1.6,0.5-3.1,1.3-4.3c1.6-2.3,4.2-3.6,7-3.6
	c2.8,0,5.4,1.3,7,3.6c0.9,1.3,1.3,2.8,1.3,4.3c0,2.4-1.1,4.6-3,6.1c-0.2,0.1-0.5,0.4-0.6,0.5c0,0,0,0,0,0l0,0L15.1,16.9L15.1,16.9
	L15.1,16.9z"/>
<path class="st2" d="M6.3,17.6l1.1,2.2c0.2-0.1,0.3-0.1,0.5-0.2c1.8-0.7,3.6-0.8,5.4-0.1c0.3,0.1,0.3,0.1,0.6,0.3l1.1-2
	c-0.3-0.2-0.2-0.2-0.5-0.3c-0.8-0.4-1.6-0.7-2.5-0.8c-1-0.2-2-0.1-3,0c-0.8,0.2-1.6,0.4-2.4,0.7C6.6,17.5,6.5,17.5,6.3,17.6
	L6.3,17.6z"/>
<path class="st3" d="M8.3,19C8.3,19,8.3,19,8.3,19c0,0.1,0,0.1,0,0.1c0,0.1-0.1,0.1-0.1,0.1c0,0,0,0,0,0c0,0,0,0-0.1,0
	c-0.1,0-0.1,0-0.1-0.1c0,0,0,0,0-0.1c0,0,0,0,0-0.1c0,0,0-0.1,0-0.1c0,0,0,0,0,0c0,0,0,0,0,0c0,0,0,0,0,0C8.3,18.9,8.3,18.9,8.3,19
	C8.3,19,8.3,19,8.3,19L8.3,19z M8.4,18.7C8.4,18.7,8.4,18.7,8.4,18.7c0,0.1,0,0.1,0,0.1c0,0.1-0.1,0.1-0.1,0.1c0,0,0,0,0,0
	c0,0,0,0-0.1,0c-0.1,0-0.1,0-0.1-0.1c0,0,0,0,0-0.1c0,0,0,0,0-0.1c0,0,0-0.1,0-0.1c0,0,0,0,0,0c0,0,0,0,0,0c0,0,0,0,0,0
	C8.4,18.6,8.4,18.6,8.4,18.7C8.4,18.6,8.4,18.6,8.4,18.7L8.4,18.7z M8.1,18.7C8.1,18.7,8.1,18.7,8.1,18.7c0,0.1,0,0.1,0,0.1
	c0,0.1-0.1,0.1-0.1,0.1c0,0,0,0,0,0c0,0,0,0-0.1,0c-0.1,0-0.1,0-0.1-0.1c0,0,0,0,0-0.1c0,0,0,0,0-0.1c0,0,0-0.1,0-0.1c0,0,0,0,0,0
	c0,0,0,0,0,0c0,0,0,0,0,0C8.1,18.6,8.1,18.6,8.1,18.7C8.1,18.7,8.1,18.7,8.1,18.7L8.1,18.7z M8.7,18.3c-0.1,0-0.2,0-0.3,0
	s-0.2,0-0.2,0c0,0-0.1,0-0.1,0c0,0-0.1,0-0.1,0c0,0,0,0-0.1,0.1c0,0,0,0.1-0.1,0.1c0,0.1-0.1,0.1-0.2,0.1c0,0-0.1,0-0.1,0
	c0,0-0.1,0-0.1,0c0,0-0.1,0-0.1,0c0,0,0,0-0.1,0.1c0,0,0,0,0,0c0,0,0,0,0,0c0,0,0,0,0-0.1c0,0,0,0,0-0.1c0-0.1,0.1-0.1,0.1-0.2
	c0,0,0.1-0.1,0.1-0.1c0,0,0.1,0,0.1,0c0,0,0.1,0,0.1,0c0,0,0.1,0,0.1,0c0,0,0.1,0,0.1,0c0,0,0,0,0.1-0.1C8,18,8.1,18,8.1,18
	c0,0,0,0,0.1,0c0.1,0,0.1,0,0.2,0c0.1,0,0.1,0,0.2,0c0.1,0,0.1,0,0.2,0l0,0l0,0h0l0,0l0.1,0c0.3,0,0.5-0.1,0.8-0.2
	c0.2-0.1,0.3-0.1,0.5-0.2c0.2-0.1,0.3-0.2,0.5-0.3c0.1,0,0.1-0.1,0.3-0.2c0.1-0.1,0.2-0.2,0.3-0.2c0.1,0,0.1-0.1,0.2-0.1
	c0,0,0,0,0,0c0,0,0,0,0,0c0,0,0,0-0.1,0.1c0,0,0,0,0,0.1c0,0,0,0-0.1,0c0,0-0.1,0.1-0.2,0.1c0,0-0.1,0.1-0.2,0.2
	c-0.1,0.1-0.2,0.1-0.2,0.2c-0.1,0.1-0.3,0.2-0.4,0.3c-0.1,0.1-0.2,0.1-0.2,0.1c-0.1,0.1-0.3,0.1-0.4,0.2C9.2,18.2,9,18.2,8.7,18.3
	L8.7,18.3L8.7,18.3z M13.6,18.6c0,0,0-0.1,0.1-0.2c0.1-0.1,0.1-0.2,0.2-0.3c0,0,0,0,0.1-0.1c0-0.1,0.1-0.1,0.1-0.1c0,0,0,0,0,0
	c0,0,0,0,0,0l0,0.1l-0.2,0.3c0,0.1-0.1,0.1-0.1,0.1c0,0,0,0.1,0,0.1l0,0c0,0.1,0,0.1,0,0.2c0,0,0,0,0.1,0c0,0,0.1,0,0.1-0.1
	c0,0,0,0,0,0c0,0,0,0,0,0c0,0,0,0,0,0c0,0,0,0,0,0c0,0,0,0,0,0c-0.1,0.1-0.1,0.2-0.2,0.2c-0.1,0-0.1,0.1-0.1,0
	c-0.1,0-0.1-0.1-0.1-0.1C13.6,18.8,13.6,18.7,13.6,18.6L13.6,18.6z M13.7,19.1C13.7,19.1,13.7,19.1,13.7,19.1c0,0.1-0.1,0.1-0.1,0.1
	c0,0,0,0-0.1,0c0,0,0,0,0,0c0,0,0,0,0,0c0,0,0,0,0-0.1c0,0,0,0,0,0s0,0,0,0c0,0,0,0,0,0c0,0,0.1-0.1,0.1-0.1c0,0,0.1,0,0.1-0.1
	c0,0,0,0,0,0c0,0,0,0,0,0c0,0,0,0,0,0C13.7,19,13.7,19,13.7,19.1C13.7,19.1,13.7,19.1,13.7,19.1L13.7,19.1z M12.3,17.7L12.3,17.7
	c-0.1,0-0.1,0-0.1,0c0,0,0,0,0,0c-0.1,0-0.1,0-0.2,0c0,0,0,0,0,0l0,0l0.1,0l0-0.1c0,0,0,0,0.1-0.1c0,0,0.1,0,0.1,0c0,0,0,0,0.1,0
	c0,0,0.1,0,0,0.1c0,0,0,0,0,0c0,0,0,0,0,0c0,0,0,0,0,0c0,0,0,0-0.1,0c0,0,0,0,0,0c0,0,0,0,0,0C12.2,17.6,12.2,17.7,12.3,17.7
	C12.3,17.7,12.3,17.7,12.3,17.7C12.3,17.7,12.3,17.7,12.3,17.7C12.3,17.7,12.3,17.7,12.3,17.7L12.3,17.7z M13.5,17.4
	C13.5,17.4,13.5,17.4,13.5,17.4c0,0.1-0.1,0.1-0.1,0.1c0,0,0,0-0.1,0c0,0,0,0,0,0c0,0,0,0,0,0c0,0,0,0,0-0.1c0,0,0,0,0,0s0,0,0,0
	c0,0,0,0,0,0c0,0,0.1-0.1,0.1-0.1c0,0,0.1,0,0.1-0.1c0,0,0,0,0,0c0,0,0,0,0,0c0,0,0,0,0,0C13.5,17.3,13.5,17.3,13.5,17.4
	C13.5,17.3,13.5,17.3,13.5,17.4L13.5,17.4z M13.2,18.3C13.2,18.3,13.2,18.3,13.2,18.3L13.2,18.3L13.2,18.3c0,0.1,0,0.2,0,0.2
	c0,0,0,0,0.1,0c0,0,0.1,0,0.1-0.1c0,0,0,0,0,0c0,0,0,0,0,0c0,0,0,0,0,0c0,0,0,0,0,0c0,0,0,0,0,0c-0.1,0.1-0.1,0.2-0.2,0.2
	s-0.1,0.1-0.1,0c-0.1,0-0.1-0.1-0.1-0.1c0-0.1,0-0.1,0-0.2c0,0,0,0,0,0c0-0.1,0-0.1,0.1-0.1C13.1,18.2,13.1,18.2,13.2,18.3l-0.1-0.1
	c0,0-0.1,0-0.3,0.1c-0.1,0-0.1,0.1-0.2,0.1c-0.1,0-0.2,0-0.4,0c-0.1,0-0.2,0-0.4,0c-0.2,0-0.4-0.1-0.6-0.1c0,0-0.1,0-0.1,0
	c-0.1,0-0.1,0-0.2-0.1c-0.1,0-0.1-0.1-0.1-0.1c0,0,0-0.1,0-0.1l0.1-0.1c0,0,0-0.1,0.1-0.1c0,0,0,0,0,0c0,0,0,0,0,0.1
	c0,0,0,0.1,0,0.1c0,0,0.1,0.1,0.2,0.1s0.2,0.1,0.3,0.1c0.2,0.1,0.4,0.1,0.6,0.1c0.2,0,0.4,0,0.6,0c0.1,0,0.2,0,0.3-0.1
	c0,0,0.1,0,0.1,0c0,0,0.1,0,0.1-0.1l0.1-0.1c0,0,0,0,0.1-0.1c0,0,0.1-0.1,0.1-0.1c0,0,0,0,0,0c0,0,0,0,0,0c0,0,0,0.1,0,0.1l-0.2,0.2
	c0,0.1-0.1,0.1-0.1,0.2S13.2,18.2,13.2,18.3L13.2,18.3z M13.7,17.6c0,0,0.1,0,0.2,0c0.1,0,0.2,0,0.3,0c0.1,0,0.1,0,0.2,0
	c0,0,0.1,0,0.2,0c0.1,0,0.2,0,0.2,0c0,0,0,0,0,0c0,0,0,0-0.1,0c0,0-0.1,0-0.1,0c0,0-0.1,0-0.1,0c0,0-0.1,0-0.1,0c0,0-0.1,0-0.1,0
	c0,0-0.1,0-0.2,0c-0.1,0-0.1,0-0.1,0C13.9,17.6,13.8,17.6,13.7,17.6L13.7,17.6C13.6,17.6,13.6,17.6,13.7,17.6c-0.1,0-0.1,0-0.1,0
	C13.6,17.6,13.6,17.6,13.7,17.6C13.6,17.6,13.7,17.6,13.7,17.6L13.7,17.6z"/>
<path class="st2" d="M11,12.8c1.2-0.9,1.8-2,1.8-3.4c0-0.4-0.1-0.9-0.3-1.4c-0.2-0.5-0.4-0.9-0.7-1.3c0,0,0,0,0,0
	C12.3,7,12.7,7.5,13,8c0.3,0.6,0.5,1.2,0.5,1.7c0,0.8-0.2,1.5-0.6,2.1c-0.4,0.6-1,1.1-1.6,1.5c0.5,0.2,1.1,0.3,1.7,0.2c0,0,0,0,0,0
	c-0.3,0.1-0.6,0.2-1.1,0.2c-0.4,0-0.7,0-0.9-0.1c-0.1,0.2-0.3,0.4-0.4,0.5c0,0,0,0,0,0l-0.4-0.5c-0.2,0-0.5,0.1-0.9,0.1
	c-0.4,0-0.7-0.1-1.1-0.2c0,0-0.1,0,0,0c0.6,0,1.2-0.1,1.7-0.2c-0.7-0.3-1.2-0.8-1.6-1.5c-0.4-0.7-0.6-1.4-0.6-2.1
	c0-0.5,0.2-1.1,0.5-1.8c0.3-0.6,0.7-1,1.2-1.3c0.1,0,0.1,0,0,0C8.9,7.1,8.7,7.5,8.5,7.9c-0.2,0.5-0.3,1-0.3,1.4
	c0,1.4,0.6,2.5,1.8,3.4L10,7c0.2-0.1,0.4-0.2,0.6-0.3c0,0,0,0,0,0L11.2,7L11,12.8L11,12.8z M7.8,13.2c-0.7-0.3-1.2-0.8-1.5-1.4
	c-0.4-0.6-0.5-1.2-0.5-1.8c0-0.8,0.3-1.5,0.8-2.1c0.5-0.6,1.2-1,1.9-1.2c0.1,0,0.1,0,0,0C8,7,7.6,7.5,7.2,8.1
	c-0.4,0.6-0.6,1.4-0.6,2.1c0,0.5,0.1,1,0.3,1.5C7.1,12.3,7.4,12.7,7.8,13.2C7.9,13.2,7.9,13.2,7.8,13.2L7.8,13.2z M11.7,5.2
	c0,0.1,0,0.1,0,0.3c0,0.4-0.2,0.6-0.6,0.6c-0.2,0-0.4-0.1-0.5-0.3C10.4,6,10.2,6,10,6C9.6,6,9.4,5.9,9.4,5.5c0-0.1,0-0.2,0.1-0.3
	c0-0.1,0-0.1,0,0c0,0.1,0,0.2,0.1,0.3C9.6,5.6,9.8,5.7,10,5.7c0.3,0,0.5-0.1,0.5-0.4c0-0.1,0-0.1,0,0c0,0.2,0.2,0.4,0.5,0.4
	C11.4,5.7,11.6,5.5,11.7,5.2C11.6,5.1,11.6,5.1,11.7,5.2L11.7,5.2z M13.2,13.2c0.7-0.3,1.2-0.8,1.5-1.4c0.3-0.6,0.5-1.2,0.5-1.8
	c0-0.8-0.3-1.5-0.8-2.1c-0.5-0.6-1.2-1-1.9-1.2c-0.1,0-0.1,0,0,0C13,7,13.5,7.5,13.9,8.1c0.4,0.6,0.6,1.4,0.6,2.1
	c0,0.5-0.1,1-0.3,1.5C14,12.3,13.7,12.7,13.2,13.2C13.2,13.2,13.2,13.2,13.2,13.2L13.2,13.2z"/>
<path class="st2" d="M5.3,5.2c0.1,0.2,0.1,0.3,0.2,0.5c-0.3,0.1-1,0.5-0.9,1.5c0,0.1,0,0.1-0.1,0C4.4,7,4.4,6.8,4.5,6.5
	c0.1-0.2,0.2-0.5,0.4-0.6C5,5.7,5.1,5.6,5.2,5.5C5.3,5.4,5.3,5.3,5.3,5.2L5.3,5.2z"/>
<path class="st2" d="M6.6,6C6.4,6,6.2,6,6,6C5.8,6.7,5.4,7.2,4.9,7.4c-0.1,0-0.1,0.1,0,0.1c0.4-0.1,0.7-0.3,1-0.7
	c0.1-0.2,0.2-0.4,0.3-0.5C6.4,6.1,6.5,6,6.6,6L6.6,6z"/>
<path class="st2" d="M5.9,5.7C5.2,5.9,4.7,6.3,4.7,7.3c0,0,0.1,0,0.1,0C5,6.8,5.2,6.4,5.5,6.1C5.6,6,5.6,6,5.6,6
	c0,0.1-0.1,0.2-0.2,0.2C5.2,6.5,5,6.9,4.9,7.2c0,0,0,0.1,0,0.1C5.5,7,5.9,6.4,5.9,5.7L5.9,5.7z"/>
<path class="st2" d="M4.2,7c0.1,0.1,0.1,0.3,0.2,0.4C3.7,8.1,3.8,8.8,4,9.3c0,0.1,0,0.1-0.1,0C3.4,8.8,3.8,7.9,4.2,7L4.2,7z"/>
<path class="st2" d="M5,7.6c0.2,0,0.4-0.1,0.6-0.1C5.3,7.6,5.2,8,5.2,8.5C5.1,8.8,4.9,9.1,4.4,9.4C4.3,9.4,4.3,9.3,4.4,9.3
	C4.9,8.9,5,8.3,5,7.6L5,7.6z"/>
<path class="st2" d="M4.8,7.3C3.8,8,3.9,8.7,4,9.3c0,0,0,0,0.1-0.1c0.1-0.5,0.1-1,0.4-1.4c0.1-0.1,0.1-0.1,0.1,0
	C4.3,8.3,4.2,8.8,4.2,9.2c0,0,0.1,0.1,0.1,0.1C4.7,8.9,5,8.5,4.8,7.3L4.8,7.3z"/>
<path class="st2" d="M3.5,9.2c0.1,0.1,0.3,0.3,0.4,0.4c-0.2,0.6-0.3,1.2,0.2,2c0,0.1,0,0.1,0,0.1c-0.5-0.4-0.6-0.9-0.5-1.5
	C3.5,9.8,3.5,9.5,3.5,9.2L3.5,9.2z"/>
<path class="st2" d="M5,9.2C4.8,9.3,4.6,9.4,4.4,9.5c0.3,0.5,0.4,1.2,0.1,1.9c-0.1,0.1,0,0.1,0.1,0c0.3-0.3,0.4-0.8,0.3-1.6
	c0-0.1,0-0.3,0-0.4C4.9,9.4,4.9,9.3,5,9.2L5,9.2z"/>
<path class="st2" d="M4.1,9.2C3.8,9.9,3.7,10.7,4,11.4c0.1,0.1,0.1,0,0.1,0C4,10.9,4,10.4,4.1,10c0-0.1,0.1-0.1,0.1,0
	c-0.1,0.4,0,0.9,0.1,1.3c0.1,0,0.1,0.1,0.2,0.1C4.8,10.5,4.6,9.8,4.1,9.2L4.1,9.2z"/>
<path class="st2" d="M5,11.2c-0.1,0.1-0.3,0.3-0.4,0.4c0.5,0.4,0.6,1,0.6,1.7c0,0.1,0.1,0.2,0.1,0c0.1-0.4,0.1-0.8-0.1-1.3
	C5.1,11.9,5,11.8,5,11.6C5,11.4,5,11.3,5,11.2L5,11.2z"/>
<path class="st2" d="M3.5,11.5c0.2,0.1,0.4,0.1,0.5,0.2c-0.1,0.8,0.1,1.4,0.7,1.8c0.1,0.1,0.1,0.1,0,0.1c-0.5-0.1-0.8-0.4-0.9-1
	c0-0.2-0.1-0.4-0.1-0.6C3.7,11.8,3.6,11.7,3.5,11.5L3.5,11.5z"/>
<path class="st2" d="M4.2,11.4c0.6,0.4,0.9,1,0.9,2c-0.1,0-0.1,0-0.2,0c-0.3-0.4-0.5-0.9-0.5-1.4c0-0.1-0.1-0.1-0.1,0
	c0.1,0.5,0.2,1,0.6,1.5c0,0,0,0.1,0,0.1C4.3,13.1,4,12.4,4.2,11.4L4.2,11.4z"/>
<path class="st2" d="M5.7,13c-0.1,0.2-0.2,0.3-0.3,0.6c0.4,0.3,0.8,0.6,1,1.4c0,0.1,0.1,0.2,0.1,0c0-0.5-0.2-0.9-0.5-1.2
	C5.7,13.4,5.6,13.2,5.7,13L5.7,13z"/>
<path class="st2" d="M4.3,13.7c0.2,0,0.4,0,0.6,0.1c0.1,0.6,0.4,1.1,1.3,1.4c0.1,0,0.1,0.1,0,0.1c-0.6,0-1-0.3-1.2-0.8
	c-0.1-0.1-0.1-0.3-0.2-0.4C4.6,13.9,4.5,13.8,4.3,13.7L4.3,13.7z M6.8,14.5c-0.1,0.2-0.1,0.3-0.1,0.6c0.7,0.2,1,0.5,1.2,0.9
	c0.1,0,0.1,0,0.2,0c0-0.3-0.2-0.6-0.6-0.8c-0.1-0.1-0.3-0.1-0.4-0.2C6.9,14.7,6.9,14.6,6.8,14.5L6.8,14.5z M5.8,15.4
	c0.2,0,0.4,0,0.6,0c0.3,0.4,0.5,0.6,0.8,0.8c-0.1,0-0.3,0.1-0.4,0.1c-0.1-0.1-0.3-0.3-0.4-0.4C6.2,15.7,6,15.5,5.8,15.4L5.8,15.4z
	 M6.3,15C7,15.1,7.5,15.4,7.8,16c-0.1,0-0.1,0-0.2,0.1c-0.3-0.2-0.5-0.4-0.7-0.6c0,0-0.1,0-0.1,0.1c0.2,0.2,0.5,0.4,0.7,0.6
	c-0.1,0-0.2,0.1-0.3,0.1C6.7,15.9,6.5,15.5,6.3,15L6.3,15z"/>
<path class="st2" d="M5,13.4c0.6,0.2,1.1,0.7,1.4,1.5c0,0-0.1,0-0.1,0c-0.3-0.3-0.6-0.6-0.9-1c-0.1-0.1-0.2-0.1-0.1,0
	c0.3,0.4,0.6,0.7,0.9,1c0,0,0,0.1,0,0.1C5.4,14.8,5,14.2,5,13.4L5,13.4z"/>
<path class="st2" d="M8,3.8C7.6,3.8,7.4,4,7.1,4.3c0.1,0,0.2,0,0.2,0C7.5,4.2,7.6,4.1,7.7,4c0.1-0.1,0.1,0,0,0.1
	C7.7,4.2,7.5,4.3,7.4,4.4c0,0.1,0,0.1,0,0.2C7.8,4.4,8,4.2,8,3.8L8,3.8z"/>
<path class="st2" d="M6.9,3.9c0,0.2,0.1,0.3,0.1,0.5C6.5,4.6,6,4.6,5.7,5.7C5.6,5.5,5.6,5.3,5.7,5c0-0.1,0.1-0.2,0.2-0.3
	C6,4.6,6.1,4.5,6.3,4.4c0.2-0.1,0.3-0.2,0.4-0.3C6.8,4.1,6.8,4,6.9,3.9L6.9,3.9z"/>
<path class="st2" d="M7.8,4.7c-0.2,0-0.4,0-0.5,0C7.1,5.4,6.6,5.7,6,5.9c0.4,0,0.9-0.1,1.3-0.6C7.5,5.1,7.6,4.9,7.8,4.7L7.8,4.7z"/>
<path class="st2" d="M7.3,4.4C6.2,4.6,6,5.1,5.7,5.6c0.1,0,0.1,0,0.2,0C6.2,5.3,6.5,5,6.8,4.7C6.9,4.6,7,4.6,6.9,4.8
	C6.6,5.1,6.3,5.3,6,5.6c0,0.1,0,0.1,0,0.2C7.2,5.4,7.1,4.8,7.3,4.4L7.3,4.4z"/>
<path class="st2" d="M13.5,3.6c0.2,0,0.4,0.2,0.6,0.5c0,0,0,0,0,0c0,0-0.1-0.1-0.2-0.2c-0.1-0.1-0.1-0.1-0.1,0
	C13.9,4.1,14,4.2,14,4.2c-0.1,0-0.1,0-0.2,0C13.6,4.1,13.5,3.9,13.5,3.6L13.5,3.6z"/>
<path class="st2" d="M12.9,3.9c0.4-0.1,0.6,0.1,0.8,0.3c0,0,0,0,0,0c-0.1,0-0.2-0.1-0.3-0.1c0,0-0.1,0,0,0c0.1,0.1,0.3,0.2,0.3,0.2
	c-0.1,0-0.3,0-0.4,0C13.1,4.2,13,4,12.9,3.9L12.9,3.9z"/>
<path class="st2" d="M14.1,3.8c-0.1,0.3,0,0.5,0.3,0.7c0-0.1-0.1-0.2-0.1-0.3c0-0.1,0-0.1,0.1,0c0,0.1,0.1,0.2,0.1,0.3
	c0,0,0.1,0,0.1,0.1C14.6,4.2,14.5,3.9,14.1,3.8L14.1,3.8z"/>
<path class="st2" d="M14.8,16.2c0.1-0.1,0.1-0.2,0.2-0.3c-0.2-0.1-0.4,0-0.6,0.1c0.1,0,0.1,0.1,0.2,0.1c0.1,0,0.1,0,0,0
	C14.6,16.2,14.7,16.2,14.8,16.2L14.8,16.2z M13.7,15.2c-0.2,0.2-0.3,0.4-0.4,0.5c0.1,0,0.1,0,0.2,0l0-0.1c0-0.1,0.1-0.1,0.1,0l0,0.1
	c0,0,0.1,0,0.1,0c0,0,0.1-0.1,0.1-0.1C13.7,15.6,13.7,15.4,13.7,15.2L13.7,15.2z M14.3,16c0.1-0.1,0.2-0.3,0.2-0.5
	c-0.3,0-0.6,0.1-0.7,0.3c0.1,0,0.2,0,0.3,0.1l0,0c0-0.1,0.1,0,0.1,0l0,0C14.1,16,14.2,16,14.3,16L14.3,16z"/>
<path class="st2" d="M14.2,14.8c-0.2,0.2-0.3,0.5-0.3,0.8c0.1,0,0.1-0.1,0.2-0.1c0-0.1,0-0.2,0.1-0.4c0,0,0.1-0.1,0,0
	c0,0.1,0,0.2,0,0.3c0,0,0.1,0,0.1,0C14.3,15.2,14.3,14.9,14.2,14.8L14.2,14.8z"/>
<path class="st2" d="M14.8,14.3c-0.3,0.3-0.4,0.6-0.4,0.9c0.1-0.1,0.1-0.1,0.2-0.2c0-0.1,0.1-0.2,0.1-0.4c0-0.1,0.1-0.1,0.1,0
	c0,0.1,0,0.2-0.1,0.3c0.1,0,0.1-0.1,0.2-0.1C14.9,14.6,14.9,14.4,14.8,14.3L14.8,14.3z"/>
<path class="st2" d="M15.2,14.8c-0.5,0.1-0.7,0.3-0.8,0.6c0,0,0.1,0,0.1,0c0.1-0.1,0.2-0.2,0.3-0.2c0.1,0,0.1,0,0,0.1
	c-0.1,0.1-0.2,0.2-0.3,0.2c0,0.1,0,0.1,0,0.2C15,15.5,15.2,15.2,15.2,14.8L15.2,14.8z"/>
<path class="st2" d="M14.5,15.7c0,0.1-0.1,0.1-0.1,0.2c0.2-0.1,0.4-0.2,0.6-0.3c0.1-0.1,0.1,0,0,0c-0.1,0.1-0.2,0.1-0.3,0.2
	c0.3,0,0.6-0.1,0.8-0.5C15.2,15.2,14.9,15.6,14.5,15.7L14.5,15.7z"/>
<path class="st2" d="M16.2,14.7c-0.1,0-0.2-0.1-0.5,0.1c-0.1,0.1-0.2,0.1-0.4,0.2c0,0-0.1,0.1-0.1,0.1c0.1,0,0.2-0.1,0.4-0.1
	c0.1-0.1,0.1,0,0,0c-0.1,0.1-0.3,0.2-0.4,0.2C15.7,15.3,16,15.1,16.2,14.7L16.2,14.7z"/>
<path class="st2" d="M15.9,14.2c-0.4,0-0.7,0.3-0.8,0.6c0.1,0,0.1,0,0.2,0c0.1-0.1,0.2-0.2,0.3-0.3c0,0,0.1,0,0,0
	c-0.1,0.1-0.2,0.2-0.3,0.3c0,0.1,0,0.1,0,0.2C15.6,14.9,15.8,14.7,15.9,14.2L15.9,14.2z"/>
<path class="st2" d="M15.5,14.2c0-0.2-0.1-0.4-0.2-0.5c-0.2,0.3-0.3,0.6-0.3,1c0.1-0.1,0.1-0.2,0.2-0.3c0-0.1,0-0.2,0.1-0.3
	c0-0.1,0.1-0.1,0.1,0c0,0.1,0,0.2,0,0.2C15.4,14.3,15.4,14.2,15.5,14.2L15.5,14.2z"/>
<path class="st2" d="M15.9,13.6c0-0.2-0.1-0.4-0.2-0.5c-0.2,0.3-0.2,0.7-0.1,1c0.1-0.1,0.1-0.3,0.1-0.6c0-0.2,0.1-0.2,0.1,0
	c0,0.1,0,0.1,0,0.2C15.9,13.7,15.9,13.6,15.9,13.6L15.9,13.6z"/>
<path class="st2" d="M15.9,14.3c0.4-0.2,0.5-0.5,0.4-0.9c-0.3,0.1-0.6,0.3-0.7,0.7c0,0,0.1,0,0.1,0c0.1-0.1,0.1-0.2,0.2-0.3
	c0.1-0.1,0.2-0.1,0.1,0C16,14,16,14,15.9,14.1C15.9,14.2,15.9,14.3,15.9,14.3L15.9,14.3z"/>
<path class="st2" d="M15.9,14.7c0.4,0,0.7-0.1,0.8-0.6c-0.1,0-0.3,0-0.5,0.2c-0.1,0.1-0.2,0.1-0.3,0.2
	C15.9,14.5,15.9,14.5,15.9,14.7c0.1-0.1,0.2-0.2,0.3-0.3c0.1-0.1,0.1,0,0,0C16.1,14.5,16,14.6,15.9,14.7L15.9,14.7z"/>
<path class="st2" d="M16.4,14c0.2-0.1,0.5,0,0.7-0.7c-0.3,0-0.4,0.1-0.6,0.3c0,0.1,0,0.2,0,0.2c0.1-0.1,0.2-0.1,0.2-0.2
	c0.1-0.1,0.1,0,0,0C16.6,13.8,16.5,13.9,16.4,14L16.4,14z"/>
<path class="st2" d="M16.2,13c0.2-0.2,0.1-0.4-0.2-0.6c-0.3,0.6-0.1,0.9,0,1.1c0.1-0.2,0.1-0.4,0-0.6c0-0.1,0-0.1,0.1,0
	C16.2,12.9,16.2,12.9,16.2,13L16.2,13z"/>
<path class="st2" d="M16.5,13.5c0.3-0.2,0.5-0.5,0.3-0.9c-0.3,0.2-0.5,0.4-0.5,0.8c0,0,0.1,0,0.1,0c0.1-0.1,0.1-0.2,0.2-0.3
	c0-0.1,0.1-0.1,0,0c0,0.1-0.1,0.2-0.1,0.3C16.4,13.4,16.5,13.5,16.5,13.5L16.5,13.5z"/>
<path class="st2" d="M16.9,13.3c0.3-0.1,0.5-0.2,0.6-0.7c-0.2,0-0.4,0-0.5,0.2c0,0.1,0,0.2,0,0.3c0-0.1,0.1-0.1,0.1-0.2
	c0.1-0.1,0.1,0,0,0C17,13.1,16.9,13.2,16.9,13.3L16.9,13.3z"/>
<path class="st2" d="M16.7,12c-0.1-0.1-0.2-0.2-0.3-0.3c-0.2,0.5,0,0.8,0.2,1c0-0.2,0-0.3-0.1-0.5c0-0.1,0-0.1,0,0
	c0,0.1,0.1,0.1,0.1,0.2C16.6,12.2,16.6,12.1,16.7,12L16.7,12z"/>
<path class="st2" d="M16.9,12.7c0.3-0.2,0.3-0.6,0.1-0.9c-0.4,0.2-0.4,0.5-0.4,0.8c0.1,0,0.1-0.1,0.2-0.1c0-0.1,0.1-0.2,0.1-0.3
	c0-0.1,0.1-0.1,0.1,0c0,0.1-0.1,0.2-0.1,0.3C16.8,12.6,16.8,12.7,16.9,12.7L16.9,12.7z"/>
<path class="st2" d="M17.1,12.6c0.3-0.1,0.6-0.3,0.6-0.7c-0.2,0-0.3,0.1-0.4,0.2c0,0.1,0,0.2,0,0.3c0.1,0,0.1-0.1,0.2-0.2
	c0.1-0.1,0.1-0.1,0,0C17.3,12.3,17.2,12.5,17.1,12.6L17.1,12.6z"/>
<path class="st2" d="M16.8,11.5c0,0,0-0.1,0.1-0.2c-0.1-0.2-0.2-0.2-0.3-0.3c-0.1,0.6,0.1,0.7,0.3,0.9c0,0,0-0.1,0-0.1
	c0-0.1,0-0.2-0.2-0.3C16.5,11.4,16.6,11.3,16.8,11.5C16.7,11.4,16.7,11.5,16.8,11.5L16.8,11.5z"/>
<path class="st2" d="M17.1,11.9c0.2-0.2,0.3-0.5,0.1-0.9c-0.2,0.2-0.4,0.4-0.3,0.8c0,0,0.1,0,0.1-0.1c0.1-0.1,0.1-0.2,0.1-0.3
	c0-0.1,0.1-0.1,0.1,0c0,0.1,0,0.2-0.1,0.3C17.1,11.8,17.1,11.8,17.1,11.9L17.1,11.9z"/>
<path class="st2" d="M17.3,11.9c0.2-0.1,0.5-0.1,0.5-0.7c-0.2,0-0.3,0.1-0.4,0.2c0,0.1,0,0.2,0,0.3c0.1,0,0.1-0.1,0.2-0.2
	c0.1-0.1,0.1,0,0,0.1C17.4,11.7,17.4,11.8,17.3,11.9L17.3,11.9z"/>
<polygon class="st2" points="16.9,10.6 16.6,10.3 16.6,10.9 16.8,11.2 17,11.1 16.7,10.7 16.8,10.6 16.9,10.8 16.9,10.6 "/>
<path class="st2" d="M17.3,11c0.2-0.3,0.1-0.6-0.1-0.9C17,10.4,16.9,10.7,17,11c0,0,0.1-0.1,0.1-0.1c0-0.1,0-0.2,0-0.3
	c0-0.1,0.1-0.1,0.1,0c0,0.1,0,0.2,0,0.3C17.3,10.9,17.3,11,17.3,11L17.3,11z"/>
<path class="st2" d="M17.4,11.3c0.3-0.2,0.7-0.3,0.5-0.9c-0.3,0.1-0.4,0.4-0.6,0.7c0,0,0,0,0,0.1c0.1-0.1,0.2-0.2,0.3-0.3
	c0.1-0.1,0.1,0,0,0C17.5,11.1,17.5,11.2,17.4,11.3L17.4,11.3z"/>
<path class="st2" d="M17.5,10.7c0.3-0.2,0.5-0.5,0.4-1c-0.2,0.1-0.4,0.3-0.5,0.6c0,0,0,0,0.1,0.1c0.1-0.1,0.1-0.2,0.2-0.3
	c0.1-0.2,0.1-0.1,0,0c-0.1,0.1-0.1,0.2-0.2,0.3C17.5,10.5,17.5,10.6,17.5,10.7L17.5,10.7z"/>
<path class="st2" d="M17.5,9.9c0.2-0.2,0.4-0.5,0.2-0.9c-0.2,0.1-0.3,0.3-0.4,0.5c0,0.1,0.1,0.1,0.1,0.2c0-0.1,0.1-0.1,0.1-0.2
	c0.1-0.2,0.1-0.2,0,0C17.6,9.6,17.5,9.7,17.5,9.9L17.5,9.9z"/>
<path class="st2" d="M17.4,10.2c0.1-0.2,0.2-0.5-0.1-0.8c-0.3,0.3-0.2,0.5-0.1,0.8c0,0,0.1,0,0.1,0c0-0.1,0-0.2,0-0.3
	c0-0.1,0-0.2,0.1,0C17.3,9.9,17.3,10,17.4,10.2C17.3,10.1,17.3,10.1,17.4,10.2L17.4,10.2z"/>
<path class="st2" d="M17.1,10.3c-0.1-0.4-0.2-0.6-0.5-0.7c0,0.4,0.1,0.7,0.4,0.9c0,0,0,0,0.1,0c0-0.1-0.1-0.2-0.1-0.3
	c-0.1-0.1,0-0.2,0,0C16.9,10.2,17,10.2,17.1,10.3C17,10.3,17.1,10.3,17.1,10.3L17.1,10.3z"/>
<path class="st2" d="M17.1,9.5c-0.1-0.3-0.3-0.6-0.6-0.6c0,0.5,0.3,0.6,0.5,0.7c0-0.1-0.1-0.2-0.2-0.3c-0.1-0.1-0.1-0.2,0,0
	C16.9,9.4,17,9.5,17.1,9.5L17.1,9.5z"/>
<path class="st2" d="M17.3,9.4c0.1-0.4,0-0.6-0.2-0.8c-0.1,0.2-0.2,0.4,0,0.8c0,0,0.1-0.1,0.1-0.1c0-0.1,0-0.2-0.1-0.3
	c0-0.2,0-0.2,0,0C17.2,9.1,17.2,9.2,17.3,9.4C17.3,9.3,17.3,9.3,17.3,9.4L17.3,9.4z"/>
<path class="st2" d="M17.5,9.1c0.2-0.2,0.4-0.4,0.2-0.9c-0.3,0.3-0.4,0.5-0.2,0.7c0,0,0-0.1,0.1-0.1c0.1-0.2,0.1-0.1,0,0
	C17.5,8.9,17.5,9,17.5,9.1L17.5,9.1z"/>
<path class="st2" d="M17,8.7c-0.2-0.3-0.5-0.4-0.8-0.4c0.1,0.3,0.2,0.6,0.6,0.7c0,0,0-0.1,0-0.1c-0.1-0.1-0.2-0.1-0.3-0.2
	c-0.1-0.1-0.1-0.2,0-0.1c0.1,0.1,0.2,0.1,0.2,0.2C17,8.8,17,8.7,17,8.7L17,8.7z"/>
<path class="st2" d="M17.2,8.6c0.1-0.3,0.1-0.5-0.3-0.7c-0.2,0.3-0.1,0.6,0.1,0.7C17.1,8.6,17.1,8.6,17.2,8.6
	c-0.1-0.1-0.1-0.2-0.1-0.2c0-0.1,0-0.2,0,0C17.1,8.4,17.2,8.5,17.2,8.6L17.2,8.6z"/>
<path class="st2" d="M17.6,8.1c0.1-0.3,0-0.5-0.1-0.6c-0.3,0.3-0.3,0.5-0.1,0.8c0-0.1,0-0.2,0-0.3c0-0.1,0.1-0.1,0.1,0
	c0,0.1-0.1,0.3-0.1,0.6c0.1-0.1,0.1-0.2,0.2-0.3C17.5,8.3,17.6,8.2,17.6,8.1L17.6,8.1z"/>
<path class="st2" d="M16.8,8c-0.2-0.1-0.5-0.2-0.7-0.2c0.1,0.4,0.3,0.5,0.7,0.5c0,0,0-0.1,0-0.1c-0.1,0-0.2-0.1-0.3-0.1
	c-0.1,0-0.1-0.1,0-0.1c0.1,0,0.1,0.1,0.2,0.1C16.8,8.1,16.8,8,16.8,8L16.8,8z"/>
<path class="st2" d="M16.9,7.8c0-0.3,0-0.5-0.3-0.6c-0.1,0.4,0,0.5,0.2,0.6C16.9,7.9,16.9,7.9,16.9,7.8c-0.1-0.1-0.1-0.1-0.2-0.2
	c-0.1-0.1,0-0.2,0,0C16.9,7.7,16.9,7.8,16.9,7.8L16.9,7.8z"/>
<path class="st2" d="M17.1,7.9c0.2-0.3,0.3-0.6,0-1C17,7,16.9,7.1,16.9,7.4C17,7.5,17.1,7.6,17,7.8c0-0.1,0-0.2,0.1-0.3
	c0-0.1,0.1-0.2,0.1,0C17.1,7.7,17.1,7.8,17.1,7.9L17.1,7.9z"/>
<path class="st2" d="M15.8,7.2c0.2,0,0.3-0.1,0.7,0.1c0,0.1,0,0.1,0,0.2c-0.1,0-0.2-0.1-0.3-0.1c-0.1-0.1-0.2,0,0,0.1
	c0.1,0.1,0.2,0.1,0.3,0.2C16.3,7.7,16.1,7.6,15.8,7.2L15.8,7.2z"/>
<path class="st2" d="M16.7,7.2c-0.1-0.2-0.1-0.5-0.4-0.5c-0.1,0.4,0.1,0.5,0.2,0.6c0-0.2,0-0.2-0.1-0.3c0-0.1,0-0.1,0,0
	C16.5,7,16.6,7.1,16.7,7.2C16.7,7.2,16.7,7.2,16.7,7.2L16.7,7.2z"/>
<path class="st2" d="M16.9,7.1c0.2-0.3,0.2-0.6-0.2-0.9c-0.3,0.4,0,0.6,0.1,1c0,0,0,0,0,0c0-0.2,0-0.3,0-0.5c0-0.1,0,0,0.1,0
	C16.8,6.9,16.8,7,16.9,7.1L16.9,7.1z"/>
<path class="st2" d="M16.2,7.1c-0.2,0-0.4,0.1-0.8-0.4c0.2-0.1,0.5-0.1,0.7,0.1C16.2,6.9,16.2,6.9,16.2,7.1
	c-0.1-0.2-0.3-0.2-0.4-0.3c-0.1-0.1-0.2,0,0,0.1C16,6.9,16.1,7,16.2,7.1L16.2,7.1z"/>
<path class="st2" d="M16.3,6.6c-0.1-0.2-0.2-0.5-0.5-0.5c0,0.3,0.1,0.6,0.3,0.6c0,0,0-0.1,0-0.1c0-0.1-0.1-0.1-0.1-0.2
	c-0.1-0.1-0.1-0.1,0,0C16.2,6.5,16.2,6.6,16.3,6.6L16.3,6.6z"/>
<path class="st2" d="M16.2,5.7c-0.1,0.3-0.1,0.5,0.2,0.8c0,0,0-0.5,0.1-0.2c0,0.2,0.1,0.3,0.1,0.5C16.6,6.3,16.7,5.9,16.2,5.7
	L16.2,5.7z"/>
<path class="st2" d="M16.1,6.1c0-0.4,0.1-0.8-0.3-1c-0.1,0.3-0.1,0.5,0.1,0.7c0-0.1,0-0.2,0-0.3c0-0.1,0-0.1,0.1,0
	C16,5.7,16,5.9,16.1,6.1L16.1,6.1z"/>
<path class="st2" d="M15.9,6.1c-0.1-0.2,0-0.4-0.5-0.5c0,0.4,0.1,0.5,0.4,0.6c0,0,0-0.1,0-0.1c-0.1-0.1-0.1-0.1-0.2-0.2
	c-0.1-0.1-0.1-0.1,0,0C15.7,5.9,15.8,6,15.9,6.1L15.9,6.1z"/>
<path class="st2" d="M15.8,6.6c-0.3,0-0.6-0.1-0.7-0.4c0.3,0,0.5,0,0.7,0.1c0,0.1,0,0.1,0,0.2c-0.1,0-0.1-0.1-0.2-0.1
	c-0.1,0-0.1,0,0,0C15.6,6.4,15.7,6.5,15.8,6.6L15.8,6.6z"/>
<path class="st2" d="M15.4,6c-0.3,0-0.5,0-0.8-0.4c0.3,0,0.5,0,0.7,0c0.1,0,0.1,0.1,0.2,0.2c-0.1,0-0.2,0-0.3,0c-0.2,0-0.1,0,0,0
	C15.2,5.9,15.3,6,15.4,6L15.4,6z"/>
<path class="st2" d="M15.5,5.5c-0.1-0.3-0.3-0.4-0.6-0.4c0,0.2,0.1,0.5,0.3,0.6c0,0,0-0.1,0-0.1c0-0.1-0.1-0.1-0.2-0.2
	c-0.1-0.1-0.1-0.1,0,0c0.1,0.1,0.1,0.1,0.2,0.2C15.4,5.5,15.4,5.5,15.5,5.5L15.5,5.5z"/>
<path class="st2" d="M15.6,5.4c0.1-0.4,0-0.6-0.3-0.8c-0.1,0.2-0.1,0.4,0.1,0.6C15.4,5.3,15.5,5.4,15.6,5.4
	C15.5,5.5,15.5,5.5,15.6,5.4c-0.1,0-0.1-0.1-0.1-0.3c0-0.1,0-0.1,0,0C15.5,5.2,15.6,5.3,15.6,5.4L15.6,5.4z"/>
<path class="st2" d="M14.9,5.5c-0.3,0.1-0.6,0-0.9-0.3c0.2-0.1,0.4-0.1,0.7,0c0,0,0,0.1,0.1,0.1c-0.1,0-0.2,0-0.2,0
	c-0.1,0-0.1,0,0,0.1C14.8,5.4,14.9,5.5,14.9,5.5L14.9,5.5z"/>
<path class="st2" d="M14.8,5.2c-0.2-0.1-0.4-0.3-0.5-0.6c0.3,0,0.6,0.2,0.7,0.4c0,0-0.1,0-0.1,0c-0.1-0.1-0.2-0.1-0.3-0.2
	c-0.1,0-0.1,0,0,0C14.7,5,14.7,5,14.8,5.2C14.8,5.1,14.8,5.2,14.8,5.2L14.8,5.2z"/>
<path class="st2" d="M14.9,4.8c-0.3-0.2-0.3-0.4-0.2-0.7c0.4,0.2,0.5,0.6,0.5,1c0,0-0.1,0-0.1,0C15,4.9,15,4.7,15,4.5
	c0-0.1-0.1-0.1-0.1,0C14.9,4.6,14.9,4.7,14.9,4.8L14.9,4.8z"/>
<path class="st2" d="M14.2,4.7c-0.3-0.1-0.4-0.2-0.5-0.5c0.3,0,0.5,0,0.7,0.3c-0.1,0-0.1,0-0.1,0c-0.1-0.1-0.1-0.1-0.2-0.1
	c-0.1,0-0.1,0,0,0c0.1,0.1,0.2,0.1,0.2,0.2C14.2,4.6,14.2,4.7,14.2,4.7L14.2,4.7z"/>
<path class="st2" d="M14.4,5.1c-0.2,0.1-0.7,0-0.8-0.3c0.3,0,0.5,0,0.8,0.1c0,0,0,0.1,0,0.1c-0.1,0-0.2,0-0.3-0.1c-0.1,0-0.1,0,0,0
	C14.1,5,14.3,5,14.4,5.1L14.4,5.1z"/>
<path class="st2" d="M13.7,4.7c-0.2,0.1-0.5,0-0.6-0.2c0.5-0.1,0.5,0,0.6,0.1c-0.1,0-0.1,0-0.2,0c-0.1,0-0.1,0,0,0.1
	C13.7,4.6,13.7,4.6,13.7,4.7L13.7,4.7z"/>
<path class="st1" d="M8.6,20.6c-0.4,0.5-1,0.8-1.6,0.9c-0.7,0.1-1.4-0.1-1.9-0.5c-0.3-0.2-0.4-0.4-0.6-0.7l-1.5-2.6
	C2.9,17.4,2.9,17,3,16.7c0.1-0.2,0.1-0.3,0.3-0.4l-0.1-0.1L3,16l-0.2-0.2l-0.2-0.2l-0.2-0.2L2.3,15l-0.1-0.3L2,14.5l-0.1-0.3L1.7,14
	l-0.1-0.3l-0.1-0.3l-0.1-0.3l-0.1-0.3l-0.1-0.3l-0.1-0.3L1.1,12l-0.1-0.3l0-0.3l0-0.3l0-0.3l0-0.3l0-0.3l0-0.5l0-0.5L1,8.8l0.1-0.5
	l0.1-0.5l0.1-0.4L1.5,7l0.2-0.4l0.2-0.4l0.2-0.4l0.2-0.4L2.6,5l0.3-0.4l0.3-0.4L3.5,4l0,0c1.7-1.7,4-2.8,6.4-3
	c2.5-0.2,4.9,0.6,6.9,2.1l0,0l0.4,0.3l0.3,0.3L17.8,4l0.3,0.3l0.3,0.4L18.7,5l0.3,0.4l0.2,0.4l0.2,0.4l0.2,0.4L19.7,7l0.2,0.4
	L20,7.9l0.1,0.5l0.1,0.5l0.1,0.5l0,0.5l0,0.5l0,0.3l0,0.3l0,0.3l0,0.3l0,0.3L20.1,12l-0.1,0.3L20,12.6l-0.1,0.3l-0.1,0.3l-0.1,0.3
	l-0.1,0.3l-0.1,0.3l-0.1,0.3l-0.1,0.3l-0.1,0.3L19,15l-0.2,0.2l-0.2,0.2l0,0c-0.2,0.3-0.4,0.5-0.6,0.8c0,0,0,0,0,0
	c0.3,0.2,0.4,0.6,0.4,0.9c0,0.2-0.1,0.3-0.1,0.5l-1.5,2.7c-0.2,0.3-0.3,0.5-0.6,0.7c-0.5,0.4-1.2,0.5-1.9,0.4
	c-0.6-0.1-1.2-0.4-1.5-0.9c-0.6-0.3-1.4-0.4-2.1-0.4l0,0l0,0C10.1,20.2,9.2,20.3,8.6,20.6L8.6,20.6z M9.2,21.3c-0.5,0.6-1.3,1-2,1.1
	c-0.9,0.1-1.8-0.1-2.6-0.7c-0.4-0.3-0.6-0.6-0.9-1l-1.5-2.6C2,17.6,1.9,17,2.1,16.4c0,0,0,0,0,0L2,16.3L1.8,16l-0.2-0.3l-0.2-0.3
	l-0.2-0.3l-0.2-0.3L1,14.6l-0.1-0.3L0.8,14l-0.1-0.3l-0.1-0.3l-0.1-0.3l-0.1-0.3l-0.1-0.3l-0.1-0.3l-0.1-0.3l-0.1-0.3l0-0.3l0-0.3
	l0-0.3l0-0.3l0-0.5l0-0.5l0.1-0.5l0.1-0.5l0.1-0.5l0.1-0.5l0.2-0.5l0.2-0.5l0.2-0.5l0.2-0.4l0.3-0.4l0.3-0.4l0.3-0.4l0.3-0.4
	l0.3-0.4l0,0c1.9-1.9,4.3-3.1,7-3.3c2.7-0.2,5.4,0.6,7.5,2.3l0,0l0.4,0.3L18.1,3l0.4,0.4l0.3,0.4l0.3,0.4l0.3,0.4l0.3,0.4L20,5.3
	l0.2,0.4l0.2,0.5l0.2,0.5l0.2,0.5l0.1,0.5L21,8.2l0.1,0.5l0.1,0.5l0,0.5l0,0.5l0,0.3l0,0.3l0,0.3l0,0.3l0,0.3l-0.1,0.3L21,12.5
	l-0.1,0.3l-0.1,0.3l-0.1,0.3l-0.1,0.3L20.5,14l-0.1,0.3l-0.1,0.3l-0.1,0.3l-0.2,0.3l-0.2,0.3l-0.2,0.3L19.4,16l0,0
	c-0.1,0.1-0.1,0.2-0.2,0.3c0.1,0.3,0.2,0.6,0.2,0.9c0,0.3-0.1,0.6-0.2,0.9l-1.5,2.7c-0.2,0.4-0.5,0.7-0.9,1
	c-0.7,0.5-1.6,0.7-2.5,0.6c-0.8-0.1-1.5-0.5-2-1.1c-0.5-0.2-1-0.2-1.5-0.2l0,0l0,0C10.3,21.1,9.7,21.2,9.2,21.3L9.2,21.3z"/>
</svg>
