<?xml version="1.0" encoding="utf-8"?>
<!-- Generator: Adobe Illustrator 21.0.0, SVG Export Plug-In . SVG Version: 6.00 Build 0)  -->
<svg version="1.1" id="Layer_1" xmlns="http://www.w3.org/2000/svg" xmlns:xlink="http://www.w3.org/1999/xlink" x="0px" y="0px"
	 viewBox="0 0 630.7 450" style="enable-background:new 0 0 630.7 450;" xml:space="preserve">
<style type="text/css">
	.st0{fill:url(#SVGID_1_);}
	.st1{opacity:0.2;enable-background:new    ;}
	.st2{fill:#565656;}
	.st3{fill:url(#SVGID_2_);}
	.st4{fill:#FCAA37;}
	.st5{clip-path:url(#SVGID_4_);}
	.st6{fill:#8C5E1F;}
	.st7{fill:#FFFFFF;}
	.st8{fill:#333333;}
	.st9{fill:#FAFAFA;}
	.st10{fill:#496AEC;}
	.st11{fill:#415FD4;}
	.st12{fill:#A4B0DE;}
	.st13{fill:#FCFCFC;}
	.st14{opacity:0.3;fill:#415FD4;enable-background:new    ;}
	.st15{fill:#81ABDE;}
	.st16{fill:#353535;}
	.st17{fill:#494949;}
	.st18{fill:#E2E2E2;}
	.st19{fill:#DBDBDB;}
	.st20{fill:#10273B;}
	.st21{opacity:0.5;}
	.st22{fill:#FFD98E;}
	.st23{fill:#FFBB33;}
	.st24{opacity:0.56;}
	.st25{opacity:0.13;enable-background:new    ;}
	.st26{fill:#F2A233;}
	.st27{clip-path:url(#SVGID_6_);}
	.st28{fill:#E68F17;}
	.st29{fill:#FCC881;}
	.st30{clip-path:url(#SVGID_8_);}
	.st31{clip-path:url(#SVGID_10_);}
	.st32{fill:#F2AC4B;}
	.st33{fill:#DB8816;}
	.st34{fill:#F09518;}
	.st35{fill:#EB9217;}
	.st36{clip-path:url(#SVGID_12_);}
	.st37{clip-path:url(#SVGID_14_);}
	.st38{clip-path:url(#SVGID_16_);}
	.st39{clip-path:url(#SVGID_18_);}
	.st40{clip-path:url(#SVGID_20_);}
	.st41{clip-path:url(#SVGID_22_);}
</style>
<title>bg</title>
<linearGradient id="SVGID_1_" gradientUnits="userSpaceOnUse" x1="0" y1="225" x2="630.73" y2="225">
	<stop  offset="0.3341" style="stop-color:#F1C45F"/>
	<stop  offset="0.4166" style="stop-color:#F2B94A"/>
	<stop  offset="0.5316" style="stop-color:#F3AE34"/>
	<stop  offset="0.6573" style="stop-color:#F4A524"/>
	<stop  offset="0.8007" style="stop-color:#F5A11B"/>
	<stop  offset="1" style="stop-color:#F59F18"/>
</linearGradient>
<rect class="st0" width="630.7" height="450"/>
<path class="st1" d="M431.4,343l120.8-60.4c4.7-2.3,4.7-6.1,0-8.5l-69.8-34.9c-4.7-2.3-12.3-2.3-17,0l-120.7,60.4
	c-4.7,2.3-4.7,6.1,0,8.5l69.8,34.9C419.1,345.4,426.7,345.4,431.4,343z"/>
<path class="st2" d="M424.3,339.1L545,278.7c4.7-2.3,6-9.3,1.3-11.7l-71.1-31.7c-4.7-2.3-12.3-2.3-17,0L337,292
	c-4.7,2.3-4.2,9.8,0.5,12.2l69.8,34.9C412,341.5,419.6,341.5,424.3,339.1z"/>
<linearGradient id="SVGID_2_" gradientUnits="userSpaceOnUse" x1="402.3678" y1="236.9089" x2="480.1122" y2="329.5611">
	<stop  offset="0" style="stop-color:#FFFFFF"/>
	<stop  offset="0" style="stop-color:#F8F8F8"/>
	<stop  offset="1" style="stop-color:#000000"/>
</linearGradient>
<path class="st3" d="M424.3,335.1L545,274.8c4.7-2.3,4.7-6.1,0-8.5l-69.8-34.9c-4.7-2.3-12.3-2.3-17,0l-120.7,60.4
	c-4.7,2.3-4.7,6.1,0,8.5l69.8,34.9C412,337.5,419.6,337.5,424.3,335.1z"/>
<path class="st4" d="M410.7,304.6L394,313c-2.4,1-5.1,1-7.4,0l-10.8-5.4c-2-1-2-2.7,0-3.7l16.7-8.3c2.4-1,5.1-1,7.4,0l10.8,5.4
	C412.8,301.9,412.8,303.6,410.7,304.6z"/>
<g>
	<defs>
		<path id="SVGID_3_" d="M410.7,304.6L394,313c-2.4,1-5.1,1-7.4,0l-10.8-5.4c-2-1-2-2.7,0-3.7l16.7-8.3c2.4-1,5.1-1,7.4,0l10.8,5.4
			C412.8,301.9,412.8,303.6,410.7,304.6z"/>
	</defs>
	<clipPath id="SVGID_4_">
		<use xlink:href="#SVGID_3_"  style="overflow:visible;"/>
	</clipPath>
	<g class="st5">
		<polygon class="st6" points="400.3,314.3 399.9,314.4 374.5,301.7 374.9,301.5 		"/>
		<polygon class="st6" points="382,305.3 356.6,318 356.3,317.8 381.6,305.1 		"/>
		<polygon class="st6" points="390.3,309.4 364.9,322.1 364.6,322 390,309.3 		"/>
		<polygon class="st6" points="421.3,285.6 396,298.3 395.6,298.1 421,285.4 		"/>
		<polygon class="st6" points="392.4,299.8 384.9,303.5 384.6,303.3 392.1,299.6 		"/>
		<polygon class="st6" points="401.5,304.3 394,308 393.6,307.9 401.1,304.1 		"/>
		<polygon class="st6" points="429.6,289.8 404.3,302.5 403.9,302.3 429.3,289.6 		"/>
		<polygon class="st6" points="414.3,307.3 413.9,307.4 388.5,294.8 388.9,294.6 		"/>
	</g>
</g>
<path class="st7" d="M415.5,270.1c-0.6,0.6-1.2,1.1-2,1.5c-3,1.4-6.4,1.4-9.4,0c-2.9-1.5-2.9-3.5,0-4.9c0.8-0.4,1.7-0.7,2.6-0.9
	l0.7,0.6c-0.8,0.1-1.6,0.4-2.3,0.8c-2.2,1.1-2.3,2.5,0.2,3.8c2.3,1.2,5,1.2,7.4,0.1c0.6-0.3,1.1-0.7,1.6-1.2L415.5,270.1z"/>
<path class="st7" d="M412.6,267.2c-0.8-0.4-1.5-0.7-2.1-1l1.1-0.5l1.4,0.6h0.1c-0.6-0.6-0.4-1.3,0.4-1.7c0.1-0.1,0.3-0.1,0.4-0.1
	l1.1,0.6c-0.2,0.1-0.3,0.1-0.5,0.2c-0.9,0.4-0.8,1.1-0.1,1.6c0.2,0.1,0.3,0.2,0.5,0.3l3.6,1.8l-1.2,0.6L412.6,267.2z"/>
<path class="st7" d="M419.1,265.4c1.5,0.7,3.2,0.7,4.6,0c0.6-0.2,1.1-0.6,1.5-1.1l1.1,0.3c-0.5,0.6-1.1,1-1.8,1.3
	c-2.1,1-4.6,1-6.7,0c-2-1-2.4-2.4-0.5-3.4c1.9-0.8,4.1-0.8,5.9,0.2c0.2,0.1,0.4,0.2,0.5,0.3L419.1,265.4z M421.9,263.1
	c-1.1-0.6-2.5-0.7-3.7-0.1c-1.2,0.6-0.6,1.5,0.1,1.9L421.9,263.1z"/>
<path class="st7" d="M424.5,256l8.1,4.1c0.6,0.3,1.3,0.6,1.8,0.8l-1.1,0.5l-1.2-0.6l0,0c0.4,0.6,0.1,1.3-1,1.8
	c-2,0.8-4.3,0.7-6.3-0.3c-2.3-1.1-2.2-2.5-0.6-3.3c0.9-0.5,2-0.6,3-0.5l0,0l-4-2L424.5,256z M429.1,259.5c-0.2-0.1-0.4-0.2-0.6-0.2
	c-1-0.3-2.2-0.3-3.2,0.2c-1.3,0.6-0.9,1.6,0.6,2.3c1.4,0.7,3,0.8,4.5,0.3c0.8-0.4,1-1.1,0.3-1.6c-0.1-0.1-0.3-0.2-0.5-0.3
	L429.1,259.5z"/>
<path class="st7" d="M429.1,254.9c0.4,0.2,0.5,0.5,0,0.8c-0.5,0.2-1,0.2-1.5,0c-0.4-0.2-0.4-0.5,0-0.8
	C428.1,254.7,428.7,254.7,429.1,254.9z M436.4,259.9l-6.7-3.4l1.2-0.6l6.7,3.4L436.4,259.9z"/>
<path class="st7" d="M432.5,253.2l1.9,1l1.8-0.9l0.9,0.5l-1.8,0.9l3.6,1.8c0.7,0.4,1.5,0.5,2.2,0.2c0.2-0.1,0.4-0.2,0.6-0.4l1,0.4
	c-0.3,0.3-0.6,0.5-0.9,0.6c-0.6,0.3-1.2,0.4-1.8,0.4c-0.8,0-1.5-0.3-2.2-0.6l-3.7-1.8l-1,0.5l-0.9-0.5l1-0.5l-1.6-0.8L432.5,253.2z"
	/>
<path class="st7" d="M453.5,251.1c-0.6,0.6-1.2,1.1-2,1.5c-3,1.4-6.4,1.4-9.4-0.1c-2.9-1.5-2.9-3.4,0-4.9c0.8-0.4,1.7-0.7,2.6-0.9
	l0.7,0.6c-0.8,0.1-1.6,0.4-2.3,0.8c-2.2,1.1-2.3,2.5,0.2,3.8c2.3,1.2,5,1.2,7.4,0.1c0.6-0.3,1.1-0.7,1.6-1.2L453.5,251.1z"/>
<path class="st7" d="M458.9,248.7l-0.9-0.4l0,0c0.1,0.4-0.1,1-1.1,1.5c-1.3,0.6-2.7,0.6-4,0.1c-1.6-0.8-1.1-2,1.5-3.3l-0.1-0.1
	c-1-0.5-2.1-0.5-3.1,0c-0.5,0.2-1,0.6-1.3,1.1l-1.1-0.3c0.4-0.6,0.9-1.1,1.6-1.4c1.7-0.8,3.7-0.8,5.3,0.1l2.5,1.3
	c0.6,0.3,1.1,0.5,1.7,0.8L458.9,248.7z M455.3,247c-1.4,0.6-2.6,1.5-1.3,2.2c0.7,0.4,1.6,0.4,2.3,0c0.9-0.4,0.9-1,0.5-1.4
	c-0.1-0.1-0.2-0.2-0.3-0.2L455.3,247z"/>
<path class="st7" d="M457.2,244.9c-0.8-0.4-1.5-0.7-2.1-1l1.1-0.5l1.4,0.6h0.1c-0.6-0.6-0.4-1.3,0.4-1.7c0.1-0.1,0.3-0.1,0.4-0.1
	l1.1,0.6c-0.2,0.1-0.3,0.1-0.5,0.2c-0.9,0.4-0.8,1.1-0.1,1.6c0.2,0.1,0.3,0.2,0.5,0.3l3.6,1.8l-1.2,0.6L457.2,244.9z"/>
<path class="st7" d="M462.2,237.1l8.1,4.1c0.6,0.3,1.3,0.6,1.8,0.8l-1.1,0.6l-1.2-0.6l0,0c0.4,0.6,0.1,1.3-1,1.8
	c-2,0.8-4.3,0.7-6.3-0.3c-2.3-1.1-2.2-2.5-0.6-3.3c0.9-0.5,2-0.6,3-0.5l0,0l-4-2L462.2,237.1z M466.8,240.7
	c-0.2-0.1-0.4-0.2-0.6-0.2c-1-0.3-2.2-0.3-3.2,0.2c-1.3,0.6-0.9,1.6,0.6,2.3c1.4,0.7,3,0.8,4.5,0.3c0.8-0.4,1-1.1,0.3-1.6
	c-0.1-0.1-0.3-0.2-0.5-0.3L466.8,240.7z"/>
<path class="st7" d="M424.2,328.6c-0.5,0.5-1.1,1-1.7,1.3c-2.5,1.2-5.5,1.2-8,0c-2.5-1.3-2.5-3,0-4.2c0.7-0.4,1.5-0.6,2.3-0.8
	l0.6,0.5c-0.7,0.1-1.3,0.3-2,0.6c-1.9,0.9-1.9,2.2,0.2,3.2c2,1,4.3,1,6.3,0.1c0.5-0.2,1-0.6,1.4-1L424.2,328.6z"/>
<path class="st7" d="M428.9,326.6l-0.8-0.3l0,0c0.1,0.4-0.1,0.9-0.9,1.3c-1.1,0.5-2.3,0.5-3.4,0c-1.4-0.7-0.9-1.7,1.3-2.8l-0.1-0.1
	c-0.8-0.4-1.8-0.4-2.6,0c-0.5,0.2-0.8,0.6-1.1,1l-0.9-0.2c0.3-0.5,0.8-1,1.4-1.2c1.4-0.7,3.1-0.7,4.5,0.1l2.1,1.1
	c0.5,0.2,1,0.5,1.5,0.6L428.9,326.6z M425.8,325.2c-1.2,0.6-2.3,1.3-1.1,1.9c0.6,0.3,1.4,0.3,2,0c0.8-0.4,0.8-0.9,0.4-1.2
	c-0.1-0.1-0.2-0.1-0.3-0.2L425.8,325.2z"/>
<path class="st7" d="M427.5,323.3c-0.7-0.3-1.3-0.6-1.8-0.9l0.9-0.5l1.2,0.5l0,0c-0.5-0.5-0.4-1.1,0.3-1.4c0.1-0.1,0.2-0.1,0.3-0.1
	l1,0.5c-0.1,0-0.3,0.1-0.4,0.2c-0.7,0.4-0.7,0.9-0.1,1.4c0.1,0.1,0.3,0.2,0.4,0.3l3.1,1.5l-1,0.5L427.5,323.3z"/>
<path class="st7" d="M431.7,316.7l7,3.5c0.5,0.3,1.1,0.5,1.5,0.7l-0.9,0.5l-1-0.5l0,0c0.3,0.5,0.1,1.1-0.8,1.5
	c-1.7,0.7-3.7,0.6-5.4-0.2c-1.9-1-1.9-2.1-0.5-2.8c0.8-0.4,1.7-0.5,2.6-0.4l0,0l-3.4-1.7L431.7,316.7z M435.7,319.7
	c-0.2-0.1-0.3-0.1-0.5-0.2c-0.9-0.3-1.9-0.2-2.7,0.1c-1.1,0.5-0.8,1.3,0.5,2c1.2,0.6,2.6,0.7,3.8,0.2c0.7-0.4,0.9-0.9,0.3-1.4
	c-0.1-0.1-0.3-0.2-0.4-0.3L435.7,319.7z"/>
<path class="st7" d="M437.5,314.3l3.4,1.7l3.9-1.9l-3.4-1.7l1-0.5l8,4l-1,0.5l-3.8-1.9l-3.9,1.9l3.8,1.9l-1,0.5l-8-4L437.5,314.3z"
	/>
<path class="st7" d="M454.5,310.9c2.1,1.1,1.6,2.3,0.2,3c-1.8,0.8-3.9,0.8-5.7-0.1c-1.9-1-1.8-2.2-0.2-3
	C450.5,309.9,452.6,310,454.5,310.9z M449.9,313.2c1.2,0.6,2.7,0.7,4,0.2c1-0.5,0.8-1.3-0.5-2c-1.2-0.6-2.7-0.7-3.9-0.2
	C448.2,311.8,448.9,312.6,449.9,313.2L449.9,313.2z"/>
<path class="st7" d="M450.3,307.5l1-0.5l8.5,4.2l-1,0.5L450.3,307.5z"/>
<path class="st7" d="M458,303.6l7,3.5c0.5,0.3,1.1,0.5,1.5,0.7l-0.9,0.5l-1-0.5l0,0c0.3,0.5,0.1,1.1-0.8,1.5
	c-1.7,0.7-3.7,0.6-5.4-0.2c-1.9-1-1.9-2.1-0.5-2.8c0.8-0.4,1.7-0.5,2.6-0.4l0,0l-3.5-1.7L458,303.6z M462,306.6
	c-0.2-0.1-0.3-0.1-0.5-0.2c-0.9-0.3-1.9-0.2-2.7,0.1c-1.1,0.5-0.8,1.3,0.5,2c1.2,0.6,2.6,0.7,3.8,0.2c0.7-0.4,0.9-0.9,0.3-1.4
	c-0.1-0.1-0.3-0.2-0.4-0.3L462,306.6z"/>
<path class="st7" d="M466.1,305.3c1.3,0.6,2.7,0.6,4,0c0.5-0.2,0.9-0.5,1.3-1l0.9,0.3c-0.4,0.5-1,0.9-1.6,1.1
	c-1.8,0.9-3.9,0.9-5.7,0c-1.7-0.9-2.1-2.1-0.4-2.9c1.6-0.7,3.5-0.6,5.1,0.2c0.2,0.1,0.3,0.2,0.5,0.3L466.1,305.3z M468.4,303.4
	c-1-0.5-2.1-0.6-3.1-0.1c-1.1,0.5-0.5,1.3,0.1,1.6L468.4,303.4z"/>
<path class="st7" d="M470.2,302c-0.7-0.3-1.3-0.6-1.8-0.9l0.9-0.5l1.2,0.5l0,0c-0.5-0.5-0.4-1.1,0.3-1.4c0.1-0.1,0.2-0.1,0.3-0.1
	l1,0.5c-0.1,0-0.3,0.1-0.4,0.2c-0.7,0.4-0.7,0.9-0.1,1.4c0.1,0.1,0.3,0.2,0.4,0.3l3.1,1.5l-1,0.5L470.2,302z"/>
<path class="st8" d="M400.6,315.8L400.6,315.8l-0.6,1l-0.9-0.3l0.8-1.2l0.8-0.4l7.1,3.5l-1,0.5L400.6,315.8z"/>
<path class="st8" d="M410.4,317.1l-0.6-0.3v-0.8c0.1-1.8,0.1-2.7-1-3.2c-0.9-0.5-1.9-0.5-2.8,0c-0.5,0.2-0.9,0.6-1,1.1l-1-0.2
	c0.2-0.6,0.7-1.2,1.4-1.4c1.3-0.7,2.9-0.7,4.3-0.1c1.3,0.7,1.4,1.7,1.3,3.2l0,0.6l0,0l3.3-1.6l0.8,0.4L410.4,317.1z"/>
<path class="st8" d="M415.3,313.6c0.7-0.1,1.4-0.3,2.1-0.6c1.3-0.6,0.9-1.2,0.3-1.5c-1.1-0.4-2.3-0.3-3.3,0.2l-0.5,0.3l-0.7-0.4
	l0.5-0.3c0.7-0.4,1.3-1,0.4-1.4c-0.8-0.3-1.6-0.3-2.4,0.1c-0.4,0.2-0.8,0.6-1,1l-1-0.2c0.3-0.6,0.8-1,1.4-1.2
	c1.2-0.6,2.6-0.7,3.8-0.2c0.7,0.4,0.9,0.9,0.3,1.5l0,0c1.1-0.4,2.4-0.4,3.5,0.1c1.1,0.6,1.2,1.5-0.5,2.4c-0.8,0.4-1.6,0.6-2.4,0.7
	L415.3,313.6z"/>
<path class="st8" d="M425,309.8l-1.9-1l-3.4,1.7l-0.6-0.3l-1.3-3.9l1.1-0.5l4.4,2.2l1-0.5l0.8,0.4l-1,0.5l1.9,1L425,309.8z
	 M422.3,308.5l-2.3-1.2c-0.4-0.2-0.7-0.4-1.1-0.6l0,0c0.2,0.3,0.3,0.6,0.4,0.8l0.6,2.1l0,0L422.3,308.5z"/>
<path class="st8" d="M432.9,299.6l-2.8,1.4l1.5,1c0.2-0.1,0.4-0.2,0.5-0.3c0.6-0.3,1.3-0.5,2-0.6c1-0.2,2,0,2.9,0.4
	c1.4,0.7,1.3,1.8-0.3,2.6c-0.7,0.4-1.5,0.6-2.3,0.7l-0.5-0.5c0.7-0.1,1.4-0.3,2-0.6c0.9-0.5,1.1-1.2,0.2-1.6
	c-1.2-0.5-2.6-0.4-3.7,0.3c-0.3,0.2-0.6,0.3-0.9,0.5l-2.9-1.9l3.5-1.8L432.9,299.6z"/>
<path class="st8" d="M438.4,296.7c-0.2,0.1-0.5,0.2-0.7,0.4c-1.3,0.9-1,1.9,0,2.5l0,0c-0.1-0.4,0.1-0.9,0.9-1.3
	c1.4-0.7,3.1-0.7,4.5,0c1.3,0.6,1.6,1.7,0.1,2.5c-1.8,0.8-3.9,0.7-5.6-0.2c-1.4-0.7-2-1.5-2-2.2c0.1-0.7,0.6-1.4,1.3-1.7
	c0.2-0.1,0.4-0.3,0.7-0.4L438.4,296.7z M442.2,298.9c-1-0.5-2.1-0.5-3.1-0.1c-0.6,0.3-0.8,0.8-0.5,1.1c0.1,0.1,0.2,0.2,0.3,0.3
	c1.1,0.6,2.5,0.7,3.6,0.2C443.3,300,443.2,299.4,442.2,298.9L442.2,298.9z"/>
<path class="st8" d="M444,293.2l0.6,0.3l3.3,4.8l-1,0.5l-3.1-4.7l0,0l-3.6,1.8l-0.8-0.4L444,293.2z"/>
<path class="st8" d="M450.3,295.4c-0.9-0.5-1-1-0.5-1.7l0,0c-0.9,0.2-1.9,0.1-2.8-0.2c-1.1-0.6-0.9-1.4,0.4-2.1
	c1.2-0.6,2.6-0.7,3.9-0.2c0.6,0.3,0.9,0.8,0.5,1.4l0,0c1.1-0.3,2.3-0.2,3.3,0.2c1.2,0.6,1,1.6-0.4,2.3
	C453.3,295.8,451.7,295.9,450.3,295.4z M454.2,293.4c-1-0.4-2.1-0.4-3.2,0c-0.6,0.5-0.5,1,0.1,1.4c0.9,0.4,1.9,0.4,2.8,0
	C454.9,294.3,454.9,293.8,454.2,293.4L454.2,293.4z M447.9,293c0.9,0.3,1.8,0.3,2.7,0c0.4-0.4,0.5-0.9-0.2-1.2
	c-0.8-0.4-1.6-0.4-2.4,0C447.2,292.2,447.3,292.7,447.9,293L447.9,293z"/>
<path class="st8" d="M465,289.2c0.3-0.1,0.5-0.3,0.8-0.4c0.4-0.2,0.7-0.6,0.8-1.1c0.1-0.5-0.2-0.9-0.9-1.4l0,0
	c0.1,0.4-0.2,0.9-1,1.2c-1.4,0.6-3,0.6-4.3,0c-1.3-0.7-1.5-1.8,0-2.5c1.8-0.7,3.7-0.6,5.4,0.3c1.6,0.8,2.1,1.6,2.1,2.3
	c-0.1,0.7-0.6,1.2-1.2,1.5c-0.3,0.2-0.6,0.3-0.9,0.5L465,289.2z M461.3,286.9c0.9,0.4,2,0.5,2.9,0c0.7-0.3,0.9-0.8,0.7-1.1
	c-0.1-0.1-0.2-0.2-0.3-0.2c-1.1-0.7-2.4-0.8-3.6-0.3C460.1,285.8,460.3,286.4,461.3,286.9L461.3,286.9z"/>
<path class="st8" d="M472.1,282.6c2.4,1.2,2.8,2.3,1.2,3.1c-1.4,0.7-3.7,0.5-6.1-0.6s-2.6-2.4-1.1-3.1S469.8,281.5,472.1,282.6z
	 M468.2,284.6c1.9,0.9,3.5,1.2,4.4,0.7s0.4-1.3-1.5-2.2s-3.4-1.2-4.4-0.7C465.9,282.9,466.3,283.7,468.2,284.6L468.2,284.6z"/>
<path class="st8" d="M477.9,279.8c2.4,1.2,2.8,2.3,1.2,3.1c-1.4,0.7-3.7,0.5-6.1-0.6s-2.6-2.4-1.1-3.1S475.6,278.6,477.9,279.8z
	 M474,281.8c1.9,0.9,3.5,1.2,4.4,0.7s0.4-1.3-1.5-2.2s-3.4-1.2-4.4-0.7C471.7,280,472.1,280.8,474,281.8L474,281.8z"/>
<path class="st8" d="M483.6,276.9c2.4,1.2,2.8,2.3,1.2,3.1c-1.4,0.7-3.7,0.5-6.1-0.6s-2.6-2.4-1.1-3.1S481.4,275.8,483.6,276.9z
	 M479.8,278.9c1.9,0.9,3.5,1.2,4.4,0.7s0.4-1.3-1.5-2.2s-3.4-1.2-4.4-0.7C477.4,277.1,477.8,278,479.8,278.9L479.8,278.9z"/>
<path class="st8" d="M496.5,270.4c2.4,1.2,2.8,2.3,1.2,3.1c-1.4,0.7-3.7,0.5-6.1-0.6s-2.6-2.4-1.1-3.1S494.3,269.3,496.5,270.4z
	 M492.7,272.4c1.9,0.9,3.5,1.2,4.4,0.7s0.4-1.3-1.5-2.2s-3.4-1.2-4.4-0.7C490.4,270.7,490.8,271.5,492.7,272.4L492.7,272.4z"/>
<path class="st8" d="M502.3,267.5c2.4,1.2,2.8,2.3,1.2,3.1c-1.4,0.7-3.7,0.5-6.1-0.6s-2.6-2.4-1.1-3.1S500.1,266.4,502.3,267.5z
	 M498.5,269.5c1.9,0.9,3.5,1.2,4.4,0.7s0.4-1.3-1.5-2.2s-3.4-1.2-4.4-0.7C496.1,267.8,496.5,268.6,498.5,269.5L498.5,269.5z"/>
<path class="st8" d="M508.1,264.7c2.4,1.2,2.8,2.3,1.2,3.1c-1.4,0.7-3.7,0.5-6.1-0.6s-2.6-2.4-1.1-3.1S505.8,263.5,508.1,264.7z
	 M504.2,266.7c1.9,0.9,3.5,1.2,4.4,0.7s0.4-1.3-1.5-2.2s-3.4-1.2-4.4-0.7C501.9,264.9,502.3,265.7,504.2,266.7L504.2,266.7z"/>
<path class="st8" d="M513.9,261.8c2.4,1.2,2.8,2.3,1.2,3.1c-1.4,0.7-3.7,0.5-6.1-0.6s-2.6-2.4-1.1-3.1S511.6,260.6,513.9,261.8z
	 M510,263.8c1.9,0.9,3.5,1.2,4.4,0.7s0.3-1.3-1.5-2.2s-3.4-1.2-4.4-0.7C507.7,262,508.1,262.9,510,263.8L510,263.8z"/>
<path class="st7" d="M401,315.8L401,315.8l-0.6,1l-0.9-0.3l0.8-1.2l0.8-0.4l7.1,3.5l-1,0.5L401,315.8z"/>
<path class="st7" d="M410.8,317.1l-0.6-0.3V316c0.1-1.8,0.1-2.7-1-3.2c-0.9-0.5-1.9-0.5-2.8,0c-0.5,0.2-0.9,0.6-1,1.1l-1-0.2
	c0.2-0.6,0.7-1.2,1.4-1.4c1.3-0.7,2.9-0.7,4.3-0.1c1.3,0.7,1.4,1.7,1.3,3.2l-0.1,0.5l0,0l3.3-1.6l0.8,0.4L410.8,317.1z"/>
<path class="st7" d="M415.7,313.5c0.7-0.1,1.4-0.3,2.1-0.6c1.3-0.6,0.9-1.2,0.3-1.5c-1.1-0.4-2.3-0.3-3.3,0.2l-0.5,0.3l-0.7-0.4
	l0.5-0.3c0.7-0.4,1.3-1,0.4-1.4c-0.8-0.3-1.6-0.3-2.4,0.1c-0.4,0.2-0.8,0.6-1,1l-1-0.2c0.3-0.6,0.8-1,1.4-1.2
	c1.2-0.6,2.6-0.7,3.8-0.2c0.7,0.4,0.9,0.9,0.3,1.5l0,0c1.1-0.4,2.4-0.4,3.5,0.1c1.1,0.6,1.2,1.5-0.5,2.4c-0.8,0.4-1.6,0.6-2.4,0.7
	L415.7,313.5z"/>
<path class="st7" d="M425.4,309.8l-1.9-1l-3.4,1.7l-0.6-0.3l-1.3-3.9l1.1-0.5l4.4,2.2l1-0.5l0.8,0.4l-1,0.5l1.9,1L425.4,309.8z
	 M422.7,308.4l-2.4-1.2c-0.4-0.2-0.7-0.4-1.1-0.6l0,0c0.2,0.3,0.3,0.6,0.4,0.8l0.6,2.1l0,0L422.7,308.4z"/>
<path class="st7" d="M433.3,299.5l-2.8,1.4l1.5,1c0.2-0.1,0.4-0.2,0.5-0.3c0.6-0.3,1.3-0.5,2-0.6c1-0.2,2,0,2.9,0.4
	c1.4,0.7,1.3,1.8-0.3,2.6c-0.7,0.4-1.5,0.6-2.3,0.7l-0.5-0.5c0.7-0.1,1.4-0.3,2-0.6c0.9-0.5,1.1-1.2,0.2-1.6
	c-1.2-0.5-2.6-0.4-3.7,0.3c-0.3,0.2-0.6,0.3-0.9,0.5l-3-1.9l3.5-1.8L433.3,299.5z"/>
<path class="st7" d="M438.8,296.6c-0.2,0.1-0.5,0.2-0.7,0.4c-1.3,0.9-1,1.9,0,2.5l0,0c-0.1-0.4,0.1-0.9,0.9-1.3
	c1.4-0.7,3.1-0.7,4.5,0c1.3,0.6,1.6,1.7,0.1,2.5c-1.8,0.8-3.9,0.7-5.6-0.2c-1.4-0.7-2-1.5-2-2.2c0.1-0.7,0.6-1.4,1.3-1.7
	c0.2-0.1,0.4-0.3,0.7-0.4L438.8,296.6z M442.6,298.8c-1-0.5-2.1-0.5-3.1-0.1c-0.6,0.3-0.8,0.8-0.5,1.1c0.1,0.1,0.2,0.2,0.3,0.3
	c1.1,0.6,2.5,0.7,3.6,0.2C443.7,300,443.6,299.4,442.6,298.8L442.6,298.8z"/>
<path class="st7" d="M444.4,293.1l0.6,0.3l3.3,4.8l-1,0.5l-3.1-4.7l0,0l-3.6,1.8l-0.8-0.4L444.4,293.1z"/>
<path class="st7" d="M450.7,295.3c-0.9-0.5-1-1-0.5-1.7l0,0c-0.9,0.2-1.9,0.1-2.8-0.2c-1.1-0.6-0.9-1.4,0.4-2.1
	c1.2-0.6,2.6-0.7,3.9-0.2c0.6,0.3,0.9,0.8,0.5,1.4l0,0c1.1-0.3,2.3-0.2,3.3,0.2c1.2,0.6,1,1.6-0.4,2.3
	C453.7,295.8,452.1,295.9,450.7,295.3z M454.6,293.3c-1-0.4-2.1-0.4-3.2,0c-0.6,0.5-0.5,1,0.1,1.4c0.9,0.4,1.9,0.4,2.8,0
	C455.3,294.3,455.3,293.7,454.6,293.3L454.6,293.3z M448.3,292.9c0.9,0.3,1.8,0.3,2.7,0c0.4-0.4,0.5-0.9-0.2-1.2
	c-0.8-0.4-1.6-0.4-2.4,0C447.6,292.1,447.7,292.6,448.3,292.9L448.3,292.9z"/>
<path class="st7" d="M465.4,289.1c0.3-0.1,0.5-0.3,0.8-0.4c0.4-0.2,0.7-0.6,0.8-1.1c0.1-0.5-0.2-0.9-0.9-1.4l0,0
	c0.1,0.4-0.2,0.9-1,1.2c-1.4,0.6-3,0.6-4.3,0c-1.3-0.7-1.5-1.8,0-2.5c1.8-0.7,3.7-0.6,5.4,0.3c1.6,0.8,2.1,1.6,2.1,2.3
	c-0.1,0.7-0.6,1.3-1.2,1.6c-0.3,0.2-0.6,0.3-0.9,0.5L465.4,289.1z M461.6,286.9c0.9,0.4,2,0.5,2.9,0c0.7-0.3,0.9-0.8,0.7-1.1
	c-0.1-0.1-0.2-0.2-0.3-0.2c-1.1-0.7-2.4-0.8-3.6-0.3C460.5,285.7,460.6,286.4,461.6,286.9L461.6,286.9z"/>
<path class="st7" d="M472.5,282.6c2.4,1.2,2.8,2.3,1.2,3.1c-1.4,0.7-3.7,0.5-6.1-0.6s-2.6-2.4-1.1-3.1S470.2,281.5,472.5,282.6z
	 M468.6,284.6c1.9,0.9,3.5,1.2,4.4,0.7s0.4-1.3-1.5-2.2s-3.4-1.2-4.4-0.7C466.3,282.8,466.7,283.7,468.6,284.6L468.6,284.6z"/>
<path class="st7" d="M478.2,279.7c2.4,1.2,2.8,2.3,1.2,3.1c-1.4,0.7-3.7,0.5-6.1-0.6s-2.6-2.4-1.1-3.1S476,278.6,478.2,279.7z
	 M474.4,281.7c1.9,0.9,3.5,1.2,4.4,0.7s0.4-1.3-1.5-2.2s-3.4-1.2-4.4-0.7C472,280,472.4,280.8,474.4,281.7L474.4,281.7z"/>
<path class="st7" d="M484,276.8c2.4,1.2,2.8,2.3,1.2,3.1c-1.4,0.7-3.7,0.5-6.1-0.6s-2.6-2.4-1.1-3.1S481.7,275.7,484,276.8z
	 M480.1,278.8c1.9,0.9,3.5,1.2,4.4,0.7s0.4-1.3-1.5-2.2s-3.4-1.2-4.4-0.7C477.8,277.1,478.2,277.9,480.1,278.8L480.1,278.8z"/>
<path class="st7" d="M496.9,270.4c2.4,1.2,2.8,2.3,1.2,3.1c-1.4,0.7-3.7,0.5-6.1-0.6s-2.6-2.4-1.1-3.1S494.7,269.2,496.9,270.4z
	 M493.1,272.4c1.9,0.9,3.5,1.2,4.4,0.7s0.4-1.3-1.5-2.2s-3.4-1.2-4.4-0.7C490.7,270.6,491.1,271.4,493.1,272.4L493.1,272.4z"/>
<path class="st7" d="M502.7,267.5c2.4,1.2,2.8,2.3,1.2,3.1c-1.4,0.7-3.7,0.5-6.1-0.6s-2.6-2.4-1.1-3.1S500.4,266.4,502.7,267.5z
	 M498.8,269.5c1.9,0.9,3.5,1.2,4.4,0.7s0.4-1.3-1.5-2.2s-3.4-1.2-4.4-0.7C496.5,267.7,496.9,268.5,498.8,269.5L498.8,269.5z"/>
<path class="st7" d="M508.5,264.6c2.4,1.2,2.8,2.3,1.2,3.1c-1.4,0.7-3.7,0.5-6.1-0.6s-2.6-2.4-1.1-3.1S506.2,263.5,508.5,264.6z
	 M504.6,266.6c1.9,0.9,3.5,1.2,4.4,0.7s0.4-1.3-1.5-2.2s-3.4-1.2-4.4-0.7C502.3,264.8,502.7,265.7,504.6,266.6L504.6,266.6z"/>
<path class="st7" d="M514.2,261.7c2.4,1.2,2.8,2.3,1.2,3.1c-1.4,0.7-3.7,0.5-6.1-0.6s-2.6-2.4-1.1-3.1S512,260.6,514.2,261.7z
	 M510.4,263.7c1.8,0.9,3.5,1.2,4.4,0.7s0.3-1.3-1.5-2.2s-3.4-1.2-4.4-0.7C508,262,508.4,262.8,510.4,263.7L510.4,263.7z"/>
<path class="st7" d="M346.9,295.4c0.6-0.5,1.3-0.9,2-1.2c1-0.5,2.1-0.9,3.3-0.9c0.8-0.1,1.7,0.1,2.4,0.4c0.9,0.5,1.1,1.1,0.5,1.8
	l0,0c1.4-0.4,2.9-0.4,4.3,0.2c0.8,0.4,1.1,0.9,1.1,1.3c-0.1,0.6-0.8,1.3-2.4,2c-0.8,0.4-1.5,0.7-2,0.9L346.9,295.4z M351.9,296.7
	l1.1-0.5c1.3-0.6,1.4-1.4,0.5-1.8c-1.2-0.5-2.5-0.4-3.6,0.3c-0.4,0.2-0.7,0.4-1,0.6L351.9,296.7z M356.4,299
	c0.4-0.1,0.7-0.3,1.1-0.5c1.3-0.6,1.9-1.4,0.6-2.1c-1.4-0.5-2.9-0.4-4.2,0.3l-1,0.5L356.4,299z"/>
<path class="st7" d="M367.3,294.4l-0.9-0.4l0,0c0.1,0.5-0.1,1-1,1.5c-1.3,0.6-2.7,0.6-4,0.1c-1.6-0.8-1.1-2,1.5-3.3l-0.1-0.1
	c-1-0.5-2.1-0.5-3.1,0c-0.5,0.2-1,0.6-1.3,1.1l-1.1-0.3c0.4-0.6,0.9-1.1,1.6-1.4c1.7-0.8,3.7-0.8,5.3,0.1l2.5,1.3
	c0.6,0.3,1.1,0.5,1.7,0.8L367.3,294.4z M363.7,292.8c-1.4,0.6-2.6,1.5-1.3,2.2c0.7,0.4,1.6,0.4,2.3,0c0.9-0.4,0.9-1,0.5-1.4
	c-0.1-0.1-0.2-0.2-0.3-0.2L363.7,292.8z"/>
<path class="st7" d="M365.4,290.5c-0.7-0.4-1.3-0.6-1.9-0.9l1.1-0.5l1.2,0.5l0,0c-0.3-0.5-0.1-1.2,1-1.7c1.7-0.7,3.6-0.6,5.2,0.2
	l4,2l-1.2,0.6l-3.9-1.9c-1.1-0.6-2.4-0.7-3.5-0.2c-0.8,0.4-0.9,1-0.4,1.4c0.1,0.1,0.3,0.2,0.5,0.3l4,2l-1.2,0.6L365.4,290.5z"/>
<path class="st7" d="M375.6,286.7L375.6,286.7c-0.1-0.2-0.1-0.4-0.2-0.7l-0.4-2.1l1.5-0.7l0.2,2.7l6.9,0.5l-1.5,0.7l-5.5-0.5
	l0.1,0.7l2.5,1.3l-1.2,0.6l-9.9-4.9l1.2-0.6L375.6,286.7z"/>
<path class="st9" d="M417.3,296.4c-0.2,0.1-0.5,0.2-0.8,0.2c-0.6,0-1.1-0.3-1.1-0.6c0-1-0.6-1.8-1.5-2.2c-1.3-0.5-2.8-0.8-4.2-0.7
	c-0.6,0-1.1-0.2-1.2-0.5s0.4-0.6,1-0.6c2-0.1,4,0.3,5.9,1c1.3,0.4,2.2,1.6,2.3,3C417.7,296.2,417.5,296.3,417.3,296.4z"/>
<path class="st9" d="M422,296.1c-0.2,0.1-0.5,0.2-0.8,0.2c-0.6,0-1.1-0.3-1.1-0.6c0-1.7-1.1-3.1-2.6-3.7c-2.3-0.9-4.7-1.3-7.1-1.3
	c-0.6,0-1.1-0.2-1.2-0.5s0.4-0.6,1-0.6c0.2,0,5.2-0.1,8.8,1.6c2.2,1.1,3.4,2.6,3.4,4.5C422.3,295.9,422.2,296,422,296.1z"/>
<path class="st9" d="M426.6,295.5c-0.2,0.1-0.5,0.2-0.8,0.2c-0.6,0-1.1-0.3-1.1-0.6c0-2.1-1.2-3.8-3.6-5c-3.9-1.8-9.6-1.7-9.6-1.7
	c-0.6,0-1.1-0.2-1.2-0.5s0.4-0.6,1-0.6c0.3,0,6.7-0.2,11.3,2c2.9,1.4,4.3,3.3,4.3,5.8C427,295.3,426.9,295.4,426.6,295.5z"/>
<polygon class="st10" points="91.1,134.2 185.6,86.9 185.6,54.8 91.1,102.1 "/>
<polygon class="st11" points="178,82.2 178,67.2 95.4,108.6 95.4,123.5 "/>
<path class="st12" d="M175.3,75.8c0,0,61.2,14.9,60.2,131.9L159,248.6l-1.8-1.6C155.7,131.4,97,114.7,97,114.7l-0.1-2.1L175.3,75.8z
	"/>
<path class="st13" d="M174.9,73c0,0,62.4,18.1,62.4,135.1L159,248.6c0-117-62.1-136.1-62.1-136.1L174.9,73z"/>
<polygon class="st14" points="178,74.2 99.8,113.7 99.8,115.8 95.4,117.4 95.4,108.6 178,67.2 "/>
<path class="st15" d="M132.2,128.3l60-30c1.1,1.1,2.3,2.2,3.4,3.5l-60,30C134.4,130.6,133.3,129.4,132.2,128.3z"/>
<path class="st15" d="M201.6,109.3l-60,30c-0.9-1.3-1.9-2.6-2.8-3.8l60-30C199.7,106.7,200.6,108,201.6,109.3z"/>
<path class="st15" d="M206.5,117.3l-60,30c-0.8-1.4-1.6-2.7-2.4-4l60-30C205,114.6,205.8,115.9,206.5,117.3z"/>
<path class="st15" d="M210.7,125.8l-59.9,30c-0.7-1.5-1.3-2.9-2-4.2l60-30C209.4,122.9,210,124.3,210.7,125.8z"/>
<path class="st15" d="M214,134.6l-59.9,30c-0.5-1.5-1.1-3-1.6-4.4l59.9-30C213,131.6,213.5,133,214,134.6z"/>
<polygon class="st15" points="170.1,235.2 228.9,205.8 228.9,199.9 170.1,229.3 "/>
<path class="st1" d="M449.6,284.3l-219,108c-7,3.5-15.3,3.5-22.3,0L93.8,335.8c-4.9-2.4,29.1,11.2,34,8.8l230-115
	c1.9-0.9,4-0.9,5.9,0l85.9,43c3.3,1.7,4.5,5.6,2.9,8.9C451.8,282.7,450.8,283.7,449.6,284.3z"/>
<path class="st16" d="M87.3,332.5c-2.8-1.7-10.4-7.7-4.5-19.1l5.3,4c0.7-0.6,1.5-1,2.3-1.4l209-102.5c7.6-3.8,20.1-3.8,27.7,0
	l103.7,50.8l0.4,0.2l5.8-4.4c5.3,10.1,0,15.9-3.2,18.3c-0.4,0.3-0.7,0.5-1.1,0.8l0,0l-0.3,0.2c-0.4,0.2-0.6,0.3-0.6,0.3L220.5,385.3
	c-7.6,3.8-20.1,3.8-27.7,0L88.3,333.1c0,0-0.3-0.1-0.7-0.4L87.3,332.5z"/>
<path class="st17" d="M88.2,322.4l104.6,52.3c7.6,3.8,20.1,3.8,27.7,0L431.7,269c7.6-3.8,7.6-10,0-13.9l-104.6-52.3
	c-7.6-3.8-20.1-3.8-27.7,0L88.2,308.5C80.5,312.3,80.5,318.5,88.2,322.4z"/>
<path class="st16" d="M404.9,251.9c-1.5,0.8-1.5,2,0,2.7c1.7,0.8,3.7,0.8,5.5,0c1.5-0.8,1.5-2,0-2.7
	C408.6,251.1,406.7,251.1,404.9,251.9z"/>
<path class="st16" d="M412.7,255.8c-1.5,0.8-1.5,2,0,2.7c1.7,0.8,3.7,0.8,5.5,0c1.5-0.8,1.5-2,0-2.7
	C416.4,255,414.4,255,412.7,255.8z"/>
<path class="st16" d="M397.2,248c-1.5,0.8-1.5,2,0,2.7c1.7,0.8,3.7,0.8,5.5,0c1.5-0.8,1.5-2,0-2.7
	C400.9,247.2,398.9,247.2,397.2,248z"/>
<path class="st16" d="M344.4,224.5l32.5,16.2c1.2,0.6,2.5,0.6,3.7,0l2.6-1.3c0.7-0.3,1-1.2,0.6-1.8c-0.1-0.3-0.3-0.5-0.6-0.6
	l-32.9-16.4c-0.9-0.4-2-0.4-2.9,0l-3.1,1.5c-0.7,0.3-1,1.2-0.6,1.8C343.9,224.1,344.1,224.3,344.4,224.5z"/>
<path class="st18" d="M293.3,206L413,265.7c0.9,0.4,1.7,0.8,2.6,1.2L215.2,366c-3.1-2.3-7.3-3.8-10.4-5.4l-18.8-9.4l-23.5-11.7
	l-24.6-12.3l-22-11l-15.8-7.8l-5.8-2.9L293.3,206z"/>
<path class="st19" d="M420.1,274.8l-199.9,100c0.4-0.2-0.9-3.8-1.1-4.1c-0.9-1.9-2.3-3.5-4-4.7l200.4-99.1
	C417,267.4,420.1,269.3,420.1,274.8z"/>
<path class="st20" d="M96.3,330.7c0,0.6-0.5,0.8-1,0.5c-0.6-0.3-0.9-0.9-1-1.5c0-0.6,0.5-0.8,1-0.5
	C95.9,329.5,96.3,330.1,96.3,330.7z"/>
<path class="st20" d="M99.7,332.4c0,0.6-0.5,0.8-1,0.5c-0.6-0.3-0.9-0.9-1-1.5c0-0.6,0.5-0.8,1-0.5
	C99.2,331.2,99.6,331.8,99.7,332.4z"/>
<path class="st20" d="M103,334.1c0,0.6-0.5,0.8-1,0.5c-0.6-0.3-0.9-0.9-1-1.5c0-0.6,0.5-0.8,1-0.5
	C102.6,332.9,102.9,333.4,103,334.1z"/>
<path class="st20" d="M106.3,335.8c0,0.6-0.5,0.8-1,0.5c-0.6-0.3-0.9-0.9-1-1.5c0-0.6,0.5-0.8,1-0.5
	C105.9,334.5,106.3,335.1,106.3,335.8z"/>
<path class="st20" d="M109.7,337.4c0,0.6-0.5,0.8-1,0.5c-0.6-0.3-0.9-0.9-1-1.5c0-0.6,0.5-0.8,1-0.5
	C109.2,336.2,109.6,336.8,109.7,337.4z"/>
<path class="st20" d="M96.3,333.8c0,0.6-0.5,0.8-1,0.5c-0.6-0.3-0.9-0.9-1-1.5c0-0.6,0.5-0.8,1-0.5
	C95.9,332.6,96.3,333.2,96.3,333.8z"/>
<path class="st20" d="M99.7,335.5c0,0.6-0.5,0.8-1,0.5c-0.6-0.3-0.9-0.9-1-1.5c0-0.6,0.5-0.8,1-0.5
	C99.2,334.3,99.6,334.8,99.7,335.5z"/>
<path class="st20" d="M103,337.1c0,0.6-0.5,0.8-1,0.5c-0.6-0.3-0.9-0.9-1-1.5c0-0.6,0.5-0.8,1-0.5
	C102.6,335.9,102.9,336.5,103,337.1z"/>
<path class="st20" d="M106.3,338.8c0,0.6-0.5,0.8-1,0.5c-0.6-0.3-0.9-0.9-1-1.5c0-0.6,0.5-0.8,1-0.5
	C105.9,337.6,106.3,338.2,106.3,338.8z"/>
<path class="st20" d="M109.7,340.5c0,0.6-0.5,0.8-1,0.5c-0.6-0.3-0.9-0.9-1-1.5c0-0.6,0.5-0.8,1-0.5
	C109.2,339.3,109.6,339.8,109.7,340.5z"/>
<path class="st20" d="M142.4,357.2l-10.5-5.3c-1.2-0.7-2.1-1.9-2.2-3.3l0,0c0-1.2,1-1.7,2.2-1.1l10.5,5.3c1.2,0.7,2.1,1.9,2.2,3.3
	l0,0C144.6,357.3,143.6,357.8,142.4,357.2z"/>
<path class="st20" d="M177.6,372.1c0,1.7-1.4,2.4-3.1,1.5c-1.7-0.9-2.9-2.6-3.1-4.6c0-1.7,1.4-2.4,3.1-1.5
	C176.3,368.4,177.4,370.1,177.6,372.1z"/>
<path d="M353.4,286.2l-7.1,3.6l-3.5-1.7l-7.3,3.6l7,3.5L339,297l-3.5-1.8l-3.7,1.9h0.1l-3.7-1.8l3.5-1.8l-3.5-1.8l-3.5,1.8l-7.3-3.6
	l-3.5,1.8l-7.2-3.6v0l3.5-1.8l-3.6-1.8l-3.5,1.8h0.1l-7.3-3.6l3.5-1.7l-3.4-1.7l-7.2,3.6l3.5,1.7l-3.6,1.8h0.1l-10.9-5.4l3.7-1.8
	l3.5,1.8l7.1-3.6l-3.5-1.8l3.7-1.8h-0.1l3.6,1.8l18-9h-0.1l7.1,3.5l-3.5,1.8l-3.3-1.6l-3.5,1.8l7,3.5l3.4-1.7l10.8,5.4l3.7-1.8
	l3.6,1.8l3.5-1.8l-3.4-1.7l3.6-1.8l7,3.5l3.5-1.8l3.6,1.8l-3.4,1.7l7.2,3.6l-3.7,1.9h0.1l-3.5-1.8l-3.6,1.8L353.4,286.2L353.4,286.2
	z M331.6,282.7l-10.6-5.3l-10.5,5.3l10.6,5.3L331.6,282.7z M331.7,289.8l17.8-8.9l-3.4-1.7l-17.8,8.9L331.7,289.8z M306.6,277.2
	l3.4-1.7l-3.4-1.7l-7,3.5l6.9,3.5l3.5-1.8L306.6,277.2z"/>
<path d="M245.4,257.5l10.8,5.4l7.2-3.6l3.6,1.8l3.5-1.8l-3.4-1.7l18-9l3.6,1.6l7-3.5l3.7,1.8l-10.7,5.3l-3.5-1.8l-3.5,1.7l3.5,1.7
	l3.5-1.8l7.2,3.6v0l-7.2,3.6h0.1l-7.1-3.5l-3.7,1.8l3.3,1.7l-7.3,3.6l-3.4-1.7l-7.1,3.6l7.1,3.6l-3.6,1.8l-10.8-5.4l-7.2,3.6h0.1
	l-10.9-5.4l3.6-1.8l7.1,3.5l3.4-1.7l-7.1-3.5l-3.5,1.8l-3.6-1.9v0L245.4,257.5L245.4,257.5z"/>
<path d="M216.7,286.3l14.4-7.2l-7.3-3.6v0l3.7-1.9l-7.1-3.6l3.4-1.7l10.7,5.4l-3.4,1.7l3.6,1.8l14.3-7.1H249l3.7,1.9l3.5-1.8
	l3.5,1.8l-3.4,1.7l7.1,3.6l3.5-1.8l3.6,1.8l-7.3,3.6l-3.7-1.8l-3.6,1.8l-3.6-1.8l3.5-1.8l-3.4-1.7l-3.5,1.7l3.5,1.8l-7.2,3.6
	l-3.6-1.8l-3.6,1.8l-3.5-1.8l-3.4,1.7l3.4,1.7l3.5-1.8l3.7,1.8l-10.9,5.4l-3.6-1.8l3.5-1.8l-3.4-1.7l-3.5,1.7l3.5,1.8l-10.7,5.4
	l-3.7-1.9l7.1-3.5L216.7,286.3L216.7,286.3z"/>
<path d="M238.5,243.1l25-12.5l25,12.5l-25,12.5L238.5,243.1z M281.2,243.1l-17.8-8.9l-17.8,8.9l17.8,8.9L281.2,243.1z"/>
<path d="M263.4,334.8l-25-12.5l25-12.5l25,12.5L263.4,334.8z M281.2,322.3l-17.8-8.9l-17.8,8.9l17.8,8.9L281.2,322.3z"/>
<path d="M184.3,295.2l-25-12.5l25-12.5l25,12.5L184.3,295.2z M166.5,282.6l17.8,8.9l17.8-8.9l-17.8-8.9L166.5,282.6z"/>
<path d="M281.5,293.5l-3.6,1.8l-3.5-1.8l-3.6,1.8l3.4,1.7l-3.6,1.8l-7.1-3.5v0l7.3-3.6l-3.5-1.8l10.8-5.4l7.1,3.6l3.6-1.8h-0.1
	l3.7,1.8l3.7-1.9l3.6,1.8l3.5-1.8H303l3.6,1.8V288l-10.8,5.4h0.1l-3.6-1.8l-7.3,3.6L281.5,293.5l3.5-1.8l-3.5-1.7l-3.4,1.7
	L281.5,293.5z"/>
<path d="M306.6,302.4l-3.6,1.8l7.2,3.6v0l-3.6,1.8l-3.5-1.8l-3.5,1.8l-3.7-1.8l-3.7,1.9h0.1l-7.1-3.5l-7.1,3.6l3.5,1.8l3.5-1.7
	l3.6,1.8v0l-3.7,1.8l3.6,1.8V315l-3.5,1.8l-14.3-7.1l7-3.5l-3.5-1.8l3.6-1.8l3.4,1.7l7.1-3.6l3.6,1.8l-3.3,1.7l3.7,1.8l10.7-5.3H303
	L306.6,302.4L306.6,302.4z"/>
<path d="M295.8,257.5l3.6-1.8h-0.1l3.5,1.8l3.6-1.8l-3.5-1.8v0.1l3.5-1.8l7.1,3.6l-7.1,3.6l3.7,1.8v0l-3.6,1.9l-3.5-1.8l-7.3,3.6
	l7,3.5l-10.7,5.4h0.1l-3.7-1.9l3.5-1.7l-3.5-1.8l-3.3,1.7l-3.6-1.8l7.1-3.5l-3.5-1.8l3.6-1.8h-0.1l3.5,1.8l7.2-3.6L295.8,257.5
	L295.8,257.5z"/>
<path d="M220.2,277.3l3.5,1.8l-7.1,3.5l-21.4-10.7l10.6-5.3l3.5,1.8l7.3-3.6h-0.1l3.7,1.9l-7.2,3.6l3.5,1.8l-7,3.5l7.2,3.6l3.5-1.8
	H220.2z"/>
<path d="M216.7,264.7l-10.7-5.4l10.7-5.4l3.4,1.7l3.6-1.8l3.6,1.8l-3.3,1.7l7.3,3.6l3.5-1.7h-0.1l3.6,1.8v0l-7.2,3.6l-3.6-1.8
	l-3.6,1.8l-3.6-1.8l3.5-1.8l-3.4-1.7l-3.5,1.7l3.5,1.8l-3.7,1.8L216.7,264.7z"/>
<path d="M241.9,313.2l-3.6,1.8l3.5,1.8l-3.6,1.8l-10.6-5.3l7.1-3.5l-3.6-1.8l7.2-3.6l3.5,1.7l7.2-3.6h-0.1l3.6,1.8l-14.3,7.2
	L241.9,313.2L241.9,313.2z"/>
<path d="M245.5,257.5l-10.8-5.4l3.5-1.7l-3.6-1.8l-3.4,1.7l-3.6-1.8l6.9-3.5l10.6,5.3l-3.3,1.7l3.6,1.8l3.4-1.7l10.8,5.4l-3.4,1.7
	l-7.1-3.6l-3.7,1.9L245.5,257.5z"/>
<path d="M321,302.4l-3.5,1.8l-3.5-1.8l-3.6,1.8l-3.7-1.8v0l3.5-1.8l-3.6-1.8l-3.5,1.8h0.1l-3.6-1.8v0l10.8-5.4l3.6,1.8l-3.5,1.8
	l3.5,1.8l3.5-1.8l3.6,1.9v0l-3.6,1.8L321,302.4L321,302.4z"/>
<path d="M202.3,297.1l-7.1-3.5l17.9-9l3.5,1.8v0l-10.9,5.4l3.6,1.8l-7.2,3.6L202.3,297.1z"/>
<path d="M310.2,261.1l7.1-3.5l10.6,5.3l-7,3.5l-3.5-1.8v0l3.5-1.8l-3.6-1.8l-3.5,1.8h0.1L310.2,261.1L310.2,261.1z"/>
<path d="M256.3,298.8l-7.4,3.6h0.1l-3.5-1.8v0l3.6-1.8l-3.6-1.9v0l3.7-1.8l-3.6-1.8l3.6-1.8l7.2,3.6v0l-3.6,1.8L256.3,298.8
	L256.3,298.8z"/>
<path d="M292.2,309.6l10.7,5.4l-3.5,1.8l-3.5-1.8l-3.7,1.8h0.1l-3.6-1.8v0l3.6-1.8l-3.6-1.8v0L292.2,309.6L292.2,309.6z"/>
<path d="M227.4,298.9l7.1,3.5l-3.5,1.8l-3.4-1.7l-3.6,1.8l-3.7-1.9v0l7.2-3.6H227.4z"/>
<path d="M263.4,306l-7.2,3.6l-3.4-1.7l7.1-3.6L263.4,306L263.4,306z"/>
<path d="M335.4,270.1l-7.1-3.5l3.5-1.7l7,3.5l-3.5,1.8L335.4,270.1z"/>
<path d="M198.7,298.8l-3.5,1.8l-7-3.5l3.4-1.7L198.7,298.8L198.7,298.8z"/>
<path d="M241.9,313.3l7.1-3.5l3.5,1.7l-7,3.5L241.9,313.3L241.9,313.3z"/>
<path d="M220.3,302.4l-7.2,3.6l-3.6-1.8v0l7.2-3.6L220.3,302.4L220.3,302.4z"/>
<path d="M209.5,304.2L206,306l-7.1-3.6l3.5-1.8h-0.1L209.5,304.2L209.5,304.2z"/>
<path d="M216.8,307.8l3.4-1.7l7,3.5l-3.4,1.7L216.8,307.8z"/>
<path d="M198.7,298.9l3.7-1.8h-0.1l3.7,1.8l-3.7,1.8h0.1L198.7,298.9L198.7,298.9z"/>
<path d="M299.5,255.7l-3.5-1.8l3.5-1.8l3.5,1.8v-0.1l-3.6,1.8H299.5z"/>
<path d="M245.5,300.6l-3.5,1.8l-3.6-1.8l3.5-1.8h-0.1L245.5,300.6L245.5,300.6z"/>
<path d="M317.4,264.7l-3.6,1.8h0.1l-3.7-1.8l3.7-1.8h-0.1L317.4,264.7L317.4,264.7z"/>
<path d="M263.5,295.2l-3.6,1.8h0.1l-3.6-1.8v0l3.6-1.9L263.5,295.2L263.5,295.2z"/>
<path d="M259.8,297.1l3.5,1.8l-3.5,1.8l-3.5-1.8v0l3.6-1.8L259.8,297.1z"/>
<path d="M267.1,304.3l-3.5-1.8l3.5-1.7l3.4,1.7L267.1,304.3L267.1,304.3z"/>
<path d="M331.8,271.8l-3.6,1.8l-3.4-1.7l3.5-1.8L331.8,271.8L331.8,271.8z"/>
<path d="M267,304.3l3.5,1.8l-3.5,1.8l-3.6-1.8l0,0L267,304.3L267,304.3z"/>
<path d="M281.5,297.2l3.3,1.7l-3.4,1.7l-3.3-1.7L281.5,297.2z"/>
<path d="M241.9,298.9l-3.6-1.9v0l3.6-1.8l3.6,1.8v0L241.9,298.9L241.9,298.9z"/>
<path d="M335.3,270.1l3.5,1.8l-3.5,1.8l-3.6-1.8v0L335.3,270.1L335.3,270.1z"/>
<path d="M202.3,264.6l-3.4-1.7l3.4-1.7l3.4,1.7L202.3,264.6z"/>
<path d="M238.3,297l-3.6,1.8l-3.6-1.8v0l3.6-1.8L238.3,297L238.3,297z"/>
<path d="M295.9,297.1l-3.6-1.8l3.6-1.8h-0.1l3.6,1.8l-3.6,1.8H295.9z"/>
<path d="M299.4,298.8l-3.5,1.8l-3.5-1.8l3.5-1.8h-0.1L299.4,298.8L299.4,298.8z"/>
<path d="M231.1,297l-3.6,1.8h0.1l-3.7-1.8l3.6-1.8L231.1,297L231.1,297z"/>
<path d="M234.7,259.3l-3.5-1.8l3.5-1.7l3.4,1.7L234.7,259.3L234.7,259.3z"/>
<path d="M223.9,275.5l-3.6,1.8h0.1l-3.5-1.8l3.6-1.8L223.9,275.5L223.9,275.5z"/>
<path d="M328.2,298.8l-3.6,1.8h0.1l-3.6-1.8v0l3.6-1.9L328.2,298.8L328.2,298.8z"/>
<path d="M292.2,316.8l3.5,1.8l-3.5,1.7l-3.5-1.7l3.5-1.8L292.2,316.8z"/>
<path d="M310.2,307.9l3.5-1.8l3.5,1.7l-3.5,1.7L310.2,307.9L310.2,307.9z"/>
<path d="M324.5,300.7l3.5,1.8l-3.5,1.8l-3.5-1.8v0l3.6-1.8L324.5,300.7z"/>
<path d="M331.7,297.1l3.5,1.8l-3.5,1.8l-3.5-1.8v0l3.6-1.8L331.7,297.1z"/>
<path d="M356.9,284.5l3.5,1.8l-3.6,1.8l-3.5-1.8v0L356.9,284.5L356.9,284.5z"/>
<path d="M259.9,293.5l-7.2-3.6l-3.6,1.8l-3.6-1.8l-3.5,1.7l-3.7-1.8l7.1-3.5l3.6,1.7l3.5-1.8l3.6,1.8l3.5-1.8l3.6,1.8l-3.4,1.7
	l3.7,1.8L259.9,293.5z"/>
<path d="M270.6,277.3l3.6-1.8l-3.6-1.8l7.1-3.5l3.6,1.8l-3.4,1.7l3.7,1.8l-7.2,3.6L270.6,277.3z"/>
<path d="M274.2,279l3.6,1.8l-3.5,1.8l-3.6-1.8L274.2,279z"/>
<path d="M267.1,282.8l3.3,1.7l-3.5,1.7l-3.3-1.7L267.1,282.8z"/>
<path d="M241.8,284.5l3.6-1.8l3.6,1.8l-3.6,1.8L241.8,284.5z"/>
<path d="M270.7,273.7l-3.7,1.8l-3.6-1.8l3.6-1.8L270.7,273.7z"/>
<path d="M288.7,275.5l-3.7,1.8l-3.6-1.8l3.6-1.8L288.7,275.5z"/>
<path d="M321,295.3l-3.6,1.8l-3.6-1.8l3.6-1.8L321,295.3z"/>
<path d="M324.6,297.1l-3.6-1.8l3.6-1.8l3.6,1.8L324.6,297.1z"/>
<path d="M306.6,262.9l3.6,1.8l-3.5,1.8l-3.6-1.8L306.6,262.9z"/>
<path d="M317.6,282.6l3.4-1.6l3.4,1.7l-3.4,1.6L317.6,282.6z"/>
<path d="M238.2,271.8l-7-3.5l3.4-1.7l7,3.5L238.2,271.8z"/>
<path d="M216.7,297.1l-7.2,3.6l-3.6-1.8l7.2-3.6L216.7,297.1z"/>
<path d="M231.1,289.8l3.6,1.8l-7.2,3.6l-3.6-1.8L231.1,289.8z"/>
<path d="M223.9,297.1l-3.6,1.8l-3.6-1.8l3.6-1.8L223.9,297.1z"/>
<path d="M252.9,243.1l10.6-5.3l10.6,5.3l-10.6,5.3L252.9,243.1z"/>
<path d="M252.9,322.2l10.6-5.3l10.6,5.3l-10.6,5.3L252.9,322.2z"/>
<path d="M184.3,277.4l10.6,5.3l-10.6,5.3l-10.6-5.3L184.3,277.4z"/>
<g class="st21">
	<polygon class="st22" points="549.3,188.8 560,194.1 560,255.6 549.3,250.3 	"/>
	<polygon class="st22" points="534.4,171.4 545,176.8 545,248.1 534.4,242.8 	"/>
	<polygon class="st22" points="519.4,186.3 530.1,191.6 530.1,240.7 519.4,235.4 	"/>
	<polygon class="st22" points="504.5,152.9 515.1,158.3 515.1,233.2 504.5,227.9 	"/>
	<polygon class="st22" points="489.5,158.9 500.2,164.2 500.2,225.7 489.5,220.4 	"/>
	<polygon class="st22" points="474.6,120.5 485.2,125.8 485.2,218.3 474.6,212.9 	"/>
	<path class="st22" d="M464.6,213.1l100.9,50.4v-89c0-0.4,0.3-0.6,0.8-0.4c0.4,0.2,0.7,0.7,0.8,1.1v89l5,2.5
		c0.4,0.2,0.7,0.7,0.8,1.1c0,0.4-0.3,0.6-0.8,0.4l-5-2.5v5.3c0,0.4-0.3,0.6-0.8,0.4c-0.4-0.2-0.7-0.7-0.8-1.1V265l-100.9-50.4
		c-0.4-0.2-0.7-0.7-0.8-1.1C463.8,213,464.1,212.8,464.6,213.1z"/>
</g>
<g class="st21">
	<path class="st23" d="M95.9,253.4c0.4,1.1,1,2.1,1.7,3l-3.3,4.9l6.7,3.3l3.4-5.1c1.3,0,2.5-0.1,3.7-0.4v4.8l9.4-4.7v-4.8
		c1.3-1,2.6-2.2,3.7-3.4l3.4,1.7l6.7-10l-3.2-1.6c0.7-1.5,1.3-3.1,1.7-4.7l4.5-2.3v-9.4l-4.3,2.1c-0.3-1.2-0.9-2.3-1.6-3.4l3-4.4
		l-6.7-3.3l-2.8,4.3c-1.4-0.1-2.9,0-4.3,0.3v-4l-9.4,4.7v4c-1.5,1.2-3,2.5-4.3,4l-2.8-1.4l-6.7,10l3,1.5c-0.7,1.6-1.2,3.3-1.6,5
		l-4.3,2.2v9.4L95.9,253.4z M112.8,249.2c-5.2,2.6-9.4,0.5-9.4-4.7s4.2-11.5,9.4-14.1s9.4-0.5,9.4,4.7S118,246.6,112.8,249.2
		L112.8,249.2z"/>
	<path class="st23" d="M69,284.2c0.3,0.8,0.7,1.5,1.2,2.1l-2.3,3.5l4.8,2.4l2.4-3.6c0.9,0,1.8,0,2.7-0.3v3.5l6.7-3.4V285
		c0.9-0.7,1.8-1.5,2.6-2.4l2.4,1.2l4.8-7.1l-2.3-1.2c0.5-1.1,0.9-2.2,1.2-3.4l3.2-1.6v-6.7l-3.1,1.5c-0.2-0.9-0.6-1.7-1.2-2.4
		l2.1-3.2l-4.8-2.4l-2,3c-1-0.1-2.1,0-3.1,0.2v-2.8l-6.7,3.4v2.8c-1.1,0.9-2.1,1.8-3.1,2.8l-2-1l-4.8,7.1l2.2,1.1
		c-0.5,1.1-0.9,2.3-1.2,3.5l-3.1,1.5v6.7L69,284.2z M81.1,281.2c-3.7,1.9-6.7,0.4-6.7-3.4s3-8.2,6.7-10.1s6.7-0.4,6.7,3.4
		S84.7,279.4,81.1,281.2L81.1,281.2z"/>
	<path class="st23" d="M70.7,252.9c0.1,0.7,0.3,1.3,0.7,1.9l-2,2.6l3.2,2.5l2.1-2.7c0.6,0.1,1.3,0.2,1.9,0.1l-0.3,2.8l5.2-2l0.3-2.8
		c0.8-0.5,1.5-1.1,2.2-1.7l1.6,1.3l4.1-5.3l-1.6-1.2c0.5-0.8,0.9-1.7,1.2-2.6l2.5-0.9l0.6-5.5l-2.4,0.9c-0.1-0.7-0.3-1.4-0.6-2.1
		l1.8-2.4l-3.2-2.5l-1.8,2.3c-0.7-0.2-1.5-0.2-2.2-0.2l0.3-2.3l-5.2,2l-0.3,2.3c-0.9,0.6-1.7,1.2-2.5,1.9l-1.4-1.1l-4.1,5.3l1.4,1.1
		c-0.5,0.9-0.9,1.8-1.2,2.8l-2.4,0.9l-0.6,5.5L70.7,252.9z M79.7,251.9c-2.9,1.1-4.9-0.5-4.5-3.5c0.6-3.3,2.8-6.1,5.8-7.5
		c2.9-1.1,4.9,0.5,4.5,3.5C85,247.8,82.8,250.6,79.7,251.9L79.7,251.9z"/>
</g>
<g class="st24">
	<path class="st22" d="M267.5,91.4c2.4-3.1,5.3-5.7,8.6-7.7l0.3-0.2c2.7-1.2,5.7-1.4,8.6-0.8c3.8,1,8.2,4.7,8.6,16.5
		c-0.1,0.9-0.6,1.8-1.5,2.2l0,0c-0.8,0.4-1.4,0.1-1.5-0.7c-0.4-13.9-6.8-15.5-11-15c-2.6,0.4-4.9,1.6-6.8,3.4
		c-4.2,3.7-10.6,11.7-11,26.1c-0.1,0.9-0.6,1.7-1.4,2.1l0,0c-0.8,0.4-1.5,0.1-1.5-0.8C259.3,104.3,263.8,96.1,267.5,91.4z"/>
	<path class="st22" d="M256.9,117.3v34.3c0,1.1,0.9,1.5,2,1l34.3-17.1c1.1-0.6,1.9-1.7,2-3V98.1c0-1.1-0.9-1.5-2-1l-34.3,17.1
		C257.8,114.9,257,116,256.9,117.3z M274.2,127.7c-1.8,0.2-3-1-3-3c0-2.7,2.2-5.9,4.8-7.3s4.8-0.3,4.8,2.4c-0.2,2.3-1.2,4.5-3,6
		l2.4,5.9c0.1,1-0.4,1.9-1.2,2.3l-3,1.5l-3,1.5c-0.9,0.4-1.5-0.1-1.2-1.1L274.2,127.7z"/>
</g>
<path class="st20" d="M370.6,307.7l-20.4,10.2c-1.3,0.6-2.3,0.1-2.3-1.1l0,0c0.1-1.4,1-2.7,2.3-3.4l20.4-10.2
	c1.3-0.6,2.3-0.1,2.3,1.1l0,0C372.7,305.8,371.9,307.1,370.6,307.7z"/>
<path class="st17" d="M371.1,308.2l-20.4,10.2c-1.3,0.6-2.3,0.1-2.3-1.1l0,0c0.1-1.4,1-2.7,2.3-3.4l20.4-10.2
	c1.3-0.6,2.3-0.1,2.3,1.1l0,0C373.3,306.2,372.4,307.5,371.1,308.2z"/>
<path class="st20" d="M399.2,293.2l-20.3,10.2c-1.3,0.6-2.3,0.1-2.3-1.1l0,0c0.1-1.4,1-2.7,2.3-3.4l20.4-10.2
	c1.3-0.6,2.3-0.1,2.3,1.1l0,0C401.4,291.3,400.5,292.6,399.2,293.2z"/>
<path class="st17" d="M399.8,293.7l-20.4,10.2c-1.3,0.6-2.3,0.1-2.3-1.1l0,0c0.1-1.4,1-2.7,2.3-3.4l20.4-10.2
	c1.3-0.6,2.3-0.1,2.3,1.1l0,0C401.9,291.7,401.1,293,399.8,293.7z"/>
<path class="st25" d="M124.3,374.9c12.4,6.7,13,16.5,1.2,21.9s-31.4,4.3-43.8-2.4s-13-16.5-1.2-21.9S111.9,368.2,124.3,374.9z"/>
<path class="st26" d="M125.8,375.5c-1.7-2-3.8-3.6-6.2-4.6c-10.9-5.5-28.7-5.5-39.6,0c-2.4,1.1-4.5,2.7-6.2,4.6h-2v5.3l0,0
	c0,3.6,2.7,7.2,8.2,9.9c10.9,5.5,28.7,5.5,39.6,0c5.5-2.7,8.2-6.3,8.2-9.9v-5.3H125.8z"/>
<g>
	<defs>
		<path id="SVGID_5_" d="M125.8,375.5c-1.7-2-3.8-3.6-6.2-4.6c-10.9-5.5-28.7-5.5-39.6,0c-2.4,1.1-4.5,2.7-6.2,4.6h-2v5.3l0,0
			c0,3.6,2.7,7.2,8.2,9.9c10.9,5.5,28.7,5.5,39.6,0c5.5-2.7,8.2-6.3,8.2-9.9v-5.3H125.8z"/>
	</defs>
	<clipPath id="SVGID_6_">
		<use xlink:href="#SVGID_5_"  style="overflow:visible;"/>
	</clipPath>
	<g class="st27">
		<rect x="74.3" y="350.8" class="st28" width="1" height="45.8"/>
		<rect x="77.8" y="353.5" class="st28" width="1" height="45.8"/>
		<rect x="81.3" y="356.3" class="st28" width="1" height="45.8"/>
		<rect x="84.8" y="359" class="st28" width="1" height="45.8"/>
		<rect x="88.8" y="357.5" class="st28" width="1" height="45.8"/>
		<rect x="92.8" y="355.9" class="st28" width="1" height="45.8"/>
		<rect x="96.8" y="354.4" class="st28" width="1" height="45.8"/>
		<rect x="100.8" y="352.9" class="st28" width="1" height="45.8"/>
		<rect x="104.5" y="354.4" class="st28" width="1" height="45.8"/>
		<rect x="108.3" y="355.9" class="st28" width="1" height="45.8"/>
		<rect x="112" y="357.5" class="st28" width="1" height="45.8"/>
		<rect x="115.7" y="359" class="st28" width="1" height="45.8"/>
		<rect x="119.4" y="360.6" class="st28" width="1" height="45.8"/>
		<rect x="123.2" y="362.1" class="st28" width="1" height="45.8"/>
	</g>
</g>
<path class="st29" d="M119.7,365.6c10.9,5.5,10.9,14.3,0,19.8s-28.7,5.5-39.6,0s-10.9-14.3,0-19.8S108.8,360.1,119.7,365.6z"/>
<path class="st28" d="M82.2,368.5c9.8-4.9,25.6-4.9,35.4,0c4.4,2.2,6.8,5,7.2,7.9c0.5-3.5-1.9-7.1-7.2-9.8c-9.8-4.9-25.6-4.9-35.4,0
	c-5.4,2.7-7.8,6.3-7.2,9.8C75.4,373.5,77.8,370.7,82.2,368.5z"/>
<path class="st26" d="M82.2,384.3c9.8,4.9,25.6,4.9,35.4,0c4.4-2.2,6.8-5,7.2-7.9c-0.4-2.9-2.8-5.7-7.2-7.9
	c-9.8-4.9-25.6-4.9-35.4,0c-4.4,2.2-6.8,5-7.2,7.9C75.4,379.3,77.8,382.1,82.2,384.3z"/>
<path class="st26" d="M125.8,368.7c-1.7-2-3.8-3.6-6.2-4.6c-10.9-5.5-28.7-5.5-39.6,0c-2.4,1.1-4.5,2.7-6.2,4.6h-2v5.3l0,0
	c0,3.6,2.7,7.2,8.2,9.9c10.9,5.5,28.7,5.5,39.6,0c5.5-2.7,8.2-6.3,8.2-9.9v-5.3L125.8,368.7z"/>
<g>
	<defs>
		<path id="SVGID_7_" d="M125.8,368.7c-1.7-2-3.8-3.6-6.2-4.6c-10.9-5.5-28.7-5.5-39.6,0c-2.4,1.1-4.5,2.7-6.2,4.6h-2v5.3l0,0
			c0,3.6,2.7,7.2,8.2,9.9c10.9,5.5,28.7,5.5,39.6,0c5.5-2.7,8.2-6.3,8.2-9.9v-5.3L125.8,368.7z"/>
	</defs>
	<clipPath id="SVGID_8_">
		<use xlink:href="#SVGID_7_"  style="overflow:visible;"/>
	</clipPath>
	<g class="st30">
		<rect x="74.3" y="344" class="st28" width="1" height="45.8"/>
		<rect x="77.8" y="346.8" class="st28" width="1" height="45.8"/>
		<rect x="81.3" y="349.5" class="st28" width="1" height="45.8"/>
		<rect x="84.8" y="352.3" class="st28" width="1" height="45.8"/>
		<rect x="88.8" y="350.7" class="st28" width="1" height="45.8"/>
		<rect x="92.8" y="349.2" class="st28" width="1" height="45.8"/>
		<rect x="96.8" y="347.6" class="st28" width="1" height="45.8"/>
		<rect x="100.8" y="346.1" class="st28" width="1" height="45.8"/>
		<rect x="104.5" y="347.6" class="st28" width="1" height="45.8"/>
		<rect x="108.3" y="349.2" class="st28" width="1" height="45.8"/>
		<rect x="112" y="350.7" class="st28" width="1" height="45.8"/>
		<rect x="115.7" y="352.3" class="st28" width="1" height="45.8"/>
		<rect x="119.4" y="353.8" class="st28" width="1" height="45.8"/>
		<rect x="123.2" y="355.4" class="st28" width="1" height="45.8"/>
	</g>
</g>
<path class="st29" d="M119.7,358.8c10.9,5.5,10.9,14.3,0,19.8s-28.7,5.5-39.6,0s-10.9-14.3,0-19.8S108.8,353.4,119.7,358.8z"/>
<path class="st28" d="M82.2,361.8c9.8-4.9,25.6-4.9,35.4,0c4.4,2.2,6.8,5,7.2,7.9c0.5-3.5-1.9-7.1-7.2-9.8c-9.8-4.9-25.6-4.9-35.4,0
	c-5.4,2.7-7.8,6.3-7.2,9.8C75.4,366.8,77.8,364,82.2,361.8z"/>
<path class="st26" d="M82.2,377.6c9.8,4.9,25.6,4.9,35.4,0c4.4-2.2,6.8-5,7.2-7.9c-0.4-2.9-2.8-5.7-7.2-7.9
	c-9.8-4.9-25.6-4.9-35.4,0c-4.4,2.2-6.8,5-7.2,7.9C75.4,372.6,77.8,375.4,82.2,377.6z"/>
<path class="st26" d="M125.8,362c-1.7-2-3.8-3.6-6.2-4.6c-10.9-5.5-28.7-5.5-39.6,0c-2.4,1.1-4.5,2.7-6.2,4.6h-2v5.3l0,0
	c0,3.6,2.7,7.2,8.2,9.9c10.9,5.5,28.7,5.5,39.6,0c5.5-2.7,8.2-6.3,8.2-9.9V362H125.8z"/>
<g>
	<defs>
		<path id="SVGID_9_" d="M125.8,362c-1.7-2-3.8-3.6-6.2-4.6c-10.9-5.5-28.7-5.5-39.6,0c-2.4,1.1-4.5,2.7-6.2,4.6h-2v5.3l0,0
			c0,3.6,2.7,7.2,8.2,9.9c10.9,5.5,28.7,5.5,39.6,0c5.5-2.7,8.2-6.3,8.2-9.9V362H125.8z"/>
	</defs>
	<clipPath id="SVGID_10_">
		<use xlink:href="#SVGID_9_"  style="overflow:visible;"/>
	</clipPath>
	<g class="st31">
		<rect x="74.3" y="337.3" class="st28" width="1" height="45.8"/>
		<rect x="77.8" y="340" class="st28" width="1" height="45.8"/>
		<rect x="81.3" y="342.8" class="st28" width="1" height="45.8"/>
		<rect x="84.8" y="345.5" class="st28" width="1" height="45.8"/>
		<rect x="88.8" y="344" class="st28" width="1" height="45.8"/>
		<rect x="92.8" y="342.4" class="st28" width="1" height="45.8"/>
		<rect x="96.8" y="340.9" class="st28" width="1" height="45.8"/>
		<rect x="100.8" y="339.4" class="st28" width="1" height="45.8"/>
		<rect x="104.5" y="340.9" class="st28" width="1" height="45.8"/>
		<rect x="108.3" y="342.4" class="st28" width="1" height="45.8"/>
		<rect x="112" y="344" class="st28" width="1" height="45.8"/>
		<rect x="115.7" y="345.5" class="st28" width="1" height="45.8"/>
		<rect x="119.4" y="347.1" class="st28" width="1" height="45.8"/>
		<rect x="123.2" y="348.6" class="st28" width="1" height="45.8"/>
	</g>
</g>
<path class="st29" d="M119.7,352.1c10.9,5.5,10.9,14.3,0,19.8s-28.7,5.5-39.6,0s-10.9-14.3,0-19.8S108.8,346.6,119.7,352.1z"/>
<path class="st28" d="M82.2,355c9.8-4.9,25.6-4.9,35.4,0c4.4,2.2,6.8,5,7.2,7.9c0.5-3.5-1.9-7.1-7.2-9.8c-9.8-4.9-25.6-4.9-35.4,0
	c-5.4,2.7-7.8,6.3-7.2,9.8C75.4,360,77.8,357.2,82.2,355z"/>
<path class="st32" d="M82.2,370.8c9.8,4.9,25.6,4.9,35.4,0c4.4-2.2,6.8-5,7.2-7.9c-0.4-2.9-2.8-5.7-7.2-7.9
	c-9.8-4.9-25.6-4.9-35.4,0c-4.4,2.2-6.8,5-7.2,7.9C75.4,365.8,77.8,368.6,82.2,370.8z"/>
<path class="st33" d="M87.9,362.4c1.1,1.5,2.5,2.7,4.2,3.5c2.3,1.2,4.5,1.3,5.9,0.6s1.1-1.6-0.6-3.4c-2.4-2.5-2.8-4.7,0.5-6.3
	c3.8-1.9,9.9-1.8,15.1,0.9c1.8,0.8,3.3,1.9,4.6,3.4l-5.2,1.5c-0.9-1.2-2.2-2.2-3.6-2.9c-2.2-1.1-4.2-1.1-5.4-0.5
	c-1.4,0.7-0.8,1.6,1,3.6c2.5,2.7,2.3,4.6-0.9,6.2c-3.7,1.9-9.8,2-15.9-1c-2-0.8-3.7-2.2-5-3.8L87.9,362.4z"/>
<polygon class="st33" points="88.6,370.6 85.2,368.9 113.1,354.9 116.5,356.6 "/>
<polygon class="st34" points="116.5,355.6 116.5,356.6 114.8,357.5 113.6,357 "/>
<polygon class="st33" points="82.8,363.9 82.8,363 84.9,363.4 83.8,364.5 "/>
<polygon class="st35" points="85.2,368.9 85.2,367.9 88.6,369.6 88.6,370.6 "/>
<polygon class="st35" points="117.6,360.9 117.6,359.9 112.4,361.4 112.4,362.4 "/>
<path class="st29" d="M87.9,361.4c1.1,1.5,2.5,2.7,4.2,3.5c2.3,1.2,4.5,1.3,5.9,0.6s1.1-1.6-0.6-3.4c-2.4-2.5-2.8-4.7,0.5-6.3
	c3.8-1.9,9.9-1.8,15.1,0.9c1.8,0.8,3.3,1.9,4.6,3.4l-5.2,1.5c-0.9-1.2-2.2-2.2-3.6-2.9c-2.2-1.1-4.2-1.1-5.4-0.5
	c-1.4,0.7-0.8,1.6,1,3.6c2.5,2.7,2.3,4.6-0.9,6.2c-3.7,1.9-9.8,2-15.9-1c-2-0.8-3.7-2.2-5-3.8L87.9,361.4z"/>
<polygon class="st29" points="88.6,369.6 85.2,367.9 113.1,353.9 116.5,355.6 "/>
<path class="st25" d="M408.4,193.9c12.4,6.7,13,16.5,1.2,21.9s-31.4,4.3-43.8-2.4s-13-16.5-1.2-21.9S396,187.2,408.4,193.9z"/>
<path class="st26" d="M409.9,194.4c-1.7-2-3.8-3.6-6.2-4.6c-10.9-5.5-28.7-5.5-39.6,0c-2.4,1.1-4.5,2.7-6.2,4.6h-2v5.3l0,0
	c0,3.6,2.7,7.2,8.2,9.9c10.9,5.5,28.7,5.5,39.6,0c5.5-2.7,8.2-6.3,8.2-9.9v-5.3H409.9z"/>
<g>
	<defs>
		<path id="SVGID_11_" d="M409.9,194.4c-1.7-2-3.8-3.6-6.2-4.6c-10.9-5.5-28.7-5.5-39.6,0c-2.4,1.1-4.5,2.7-6.2,4.6h-2v5.3l0,0
			c0,3.6,2.7,7.2,8.2,9.9c10.9,5.5,28.7,5.5,39.6,0c5.5-2.7,8.2-6.3,8.2-9.9v-5.3H409.9z"/>
	</defs>
	<clipPath id="SVGID_12_">
		<use xlink:href="#SVGID_11_"  style="overflow:visible;"/>
	</clipPath>
	<g class="st36">
		<rect x="358.4" y="169.7" class="st28" width="1" height="45.8"/>
		<rect x="361.9" y="172.5" class="st28" width="1" height="45.8"/>
		<rect x="365.3" y="175.2" class="st28" width="1" height="45.8"/>
		<rect x="368.8" y="178" class="st28" width="1" height="45.8"/>
		<rect x="372.8" y="176.4" class="st28" width="1" height="45.8"/>
		<rect x="376.8" y="174.9" class="st28" width="1" height="45.8"/>
		<rect x="380.8" y="173.4" class="st28" width="1" height="45.8"/>
		<rect x="384.9" y="171.8" class="st28" width="1" height="45.8"/>
		<rect x="388.6" y="173.4" class="st28" width="1" height="45.8"/>
		<rect x="392.3" y="174.9" class="st28" width="1" height="45.8"/>
		<rect x="396" y="176.4" class="st28" width="1" height="45.8"/>
		<rect x="399.7" y="178" class="st28" width="1" height="45.8"/>
		<rect x="403.5" y="179.5" class="st28" width="1" height="45.8"/>
		<rect x="407.2" y="181.1" class="st28" width="1" height="45.8"/>
	</g>
</g>
<path class="st29" d="M403.7,184.6c10.9,5.5,10.9,14.3,0,19.8s-28.7,5.5-39.6,0s-10.9-14.3,0-19.8S392.8,179.1,403.7,184.6z"/>
<path class="st28" d="M366.2,187.5c9.8-4.9,25.6-4.9,35.4,0c4.4,2.2,6.8,5,7.2,7.9c0.5-3.5-1.9-7.1-7.2-9.8
	c-9.8-4.9-25.6-4.9-35.4,0c-5.4,2.7-7.8,6.3-7.2,9.8C359.4,192.5,361.8,189.7,366.2,187.5z"/>
<path class="st26" d="M366.2,203.3c9.8,4.9,25.6,4.9,35.4,0c4.4-2.2,6.8-5,7.2-7.9c-0.4-2.9-2.8-5.7-7.2-7.9
	c-9.8-4.9-25.6-4.9-35.4,0c-4.4,2.2-6.8,5-7.2,7.9C359.4,198.3,361.8,201.1,366.2,203.3z"/>
<path class="st26" d="M409.9,187.7c-1.7-2-3.8-3.6-6.2-4.6c-10.9-5.5-28.7-5.5-39.6,0c-2.4,1.1-4.5,2.7-6.2,4.6h-2v5.3l0,0
	c0,3.6,2.7,7.2,8.2,9.9c10.9,5.5,28.7,5.5,39.6,0c5.5-2.7,8.2-6.3,8.2-9.9v-5.3H409.9z"/>
<g>
	<defs>
		<path id="SVGID_13_" d="M409.9,187.7c-1.7-2-3.8-3.6-6.2-4.6c-10.9-5.5-28.7-5.5-39.6,0c-2.4,1.1-4.5,2.7-6.2,4.6h-2v5.3l0,0
			c0,3.6,2.7,7.2,8.2,9.9c10.9,5.5,28.7,5.5,39.6,0c5.5-2.7,8.2-6.3,8.2-9.9v-5.3H409.9z"/>
	</defs>
	<clipPath id="SVGID_14_">
		<use xlink:href="#SVGID_13_"  style="overflow:visible;"/>
	</clipPath>
	<g class="st37">
		<rect x="358.4" y="163" class="st28" width="1" height="45.8"/>
		<rect x="361.9" y="165.7" class="st28" width="1" height="45.8"/>
		<rect x="365.3" y="168.5" class="st28" width="1" height="45.8"/>
		<rect x="368.8" y="171.2" class="st28" width="1" height="45.8"/>
		<rect x="372.8" y="169.7" class="st28" width="1" height="45.8"/>
		<rect x="376.8" y="168.2" class="st28" width="1" height="45.8"/>
		<rect x="380.8" y="166.6" class="st28" width="1" height="45.8"/>
		<rect x="384.9" y="165.1" class="st28" width="1" height="45.8"/>
		<rect x="388.6" y="166.6" class="st28" width="1" height="45.8"/>
		<rect x="392.3" y="168.2" class="st28" width="1" height="45.8"/>
		<rect x="396" y="169.7" class="st28" width="1" height="45.8"/>
		<rect x="399.7" y="171.2" class="st28" width="1" height="45.8"/>
		<rect x="403.5" y="172.8" class="st28" width="1" height="45.8"/>
		<rect x="407.2" y="174.3" class="st28" width="1" height="45.8"/>
	</g>
</g>
<path class="st29" d="M403.7,177.8c10.9,5.5,10.9,14.3,0,19.8s-28.7,5.5-39.6,0s-10.9-14.3,0-19.8S392.8,172.3,403.7,177.8z"/>
<path class="st28" d="M366.2,180.7c9.8-4.9,25.6-4.9,35.4,0c4.4,2.2,6.8,5,7.2,7.9c0.5-3.5-1.9-7.1-7.2-9.8
	c-9.8-4.9-25.6-4.9-35.4,0c-5.4,2.7-7.8,6.3-7.2,9.8C359.4,185.8,361.8,182.9,366.2,180.7z"/>
<path class="st26" d="M366.2,196.6c9.8,4.9,25.6,4.9,35.4,0c4.4-2.2,6.8-5,7.2-7.9c-0.4-2.9-2.8-5.7-7.2-7.9
	c-9.8-4.9-25.6-4.9-35.4,0c-4.4,2.2-6.8,5-7.2,7.9C359.4,191.5,361.8,194.4,366.2,196.6z"/>
<path class="st26" d="M409.9,180.9c-1.7-2-3.8-3.6-6.2-4.6c-10.9-5.5-28.7-5.5-39.6,0c-2.4,1.1-4.5,2.7-6.2,4.6h-2v5.3l0,0
	c0,3.6,2.7,7.2,8.2,9.9c10.9,5.5,28.7,5.5,39.6,0c5.5-2.7,8.2-6.3,8.2-9.9v-5.3H409.9z"/>
<g>
	<defs>
		<path id="SVGID_15_" d="M409.9,180.9c-1.7-2-3.8-3.6-6.2-4.6c-10.9-5.5-28.7-5.5-39.6,0c-2.4,1.1-4.5,2.7-6.2,4.6h-2v5.3l0,0
			c0,3.6,2.7,7.2,8.2,9.9c10.9,5.5,28.7,5.5,39.6,0c5.5-2.7,8.2-6.3,8.2-9.9v-5.3H409.9z"/>
	</defs>
	<clipPath id="SVGID_16_">
		<use xlink:href="#SVGID_15_"  style="overflow:visible;"/>
	</clipPath>
	<g class="st38">
		<rect x="358.4" y="156.2" class="st28" width="1" height="45.8"/>
		<rect x="361.9" y="159" class="st28" width="1" height="45.8"/>
		<rect x="365.3" y="161.7" class="st28" width="1" height="45.8"/>
		<rect x="368.8" y="164.5" class="st28" width="1" height="45.8"/>
		<rect x="372.8" y="162.9" class="st28" width="1" height="45.8"/>
		<rect x="376.8" y="161.4" class="st28" width="1" height="45.8"/>
		<rect x="380.8" y="159.9" class="st28" width="1" height="45.8"/>
		<rect x="384.9" y="158.3" class="st28" width="1" height="45.8"/>
		<rect x="388.6" y="159.9" class="st28" width="1" height="45.8"/>
		<rect x="392.3" y="161.4" class="st28" width="1" height="45.8"/>
		<rect x="396" y="162.9" class="st28" width="1" height="45.8"/>
		<rect x="399.7" y="164.5" class="st28" width="1" height="45.8"/>
		<rect x="403.5" y="166" class="st28" width="1" height="45.8"/>
		<rect x="407.2" y="167.6" class="st28" width="1" height="45.8"/>
	</g>
</g>
<path class="st29" d="M403.7,171c10.9,5.5,10.9,14.3,0,19.8s-28.7,5.5-39.6,0s-10.9-14.3,0-19.8S392.8,165.6,403.7,171z"/>
<path class="st28" d="M366.2,174c9.8-4.9,25.6-4.9,35.4,0c4.4,2.2,6.8,5,7.2,7.9c0.5-3.5-1.9-7.1-7.2-9.8c-9.8-4.9-25.6-4.9-35.4,0
	c-5.4,2.7-7.8,6.3-7.2,9.8C359.4,179,361.8,176.2,366.2,174z"/>
<path class="st32" d="M366.2,189.8c9.8,4.9,25.6,4.9,35.4,0c4.4-2.2,6.8-5,7.2-7.9c-0.4-2.9-2.8-5.7-7.2-7.9
	c-9.8-4.9-25.6-4.9-35.4,0c-4.4,2.2-6.8,5-7.2,7.9C359.4,184.8,361.8,187.6,366.2,189.8z"/>
<path class="st26" d="M409.9,174.4c-1.7-2-3.8-3.6-6.2-4.6c-10.9-5.5-28.7-5.5-39.6,0c-2.4,1.1-4.5,2.7-6.2,4.6h-2v5.3l0,0
	c0,3.6,2.7,7.2,8.2,9.9c10.9,5.5,28.7,5.5,39.6,0c5.5-2.7,8.2-6.3,8.2-9.9v-5.3H409.9z"/>
<g>
	<defs>
		<path id="SVGID_17_" d="M409.9,174.4c-1.7-2-3.8-3.6-6.2-4.6c-10.9-5.5-28.7-5.5-39.6,0c-2.4,1.1-4.5,2.7-6.2,4.6h-2v5.3l0,0
			c0,3.6,2.7,7.2,8.2,9.9c10.9,5.5,28.7,5.5,39.6,0c5.5-2.7,8.2-6.3,8.2-9.9v-5.3H409.9z"/>
	</defs>
	<clipPath id="SVGID_18_">
		<use xlink:href="#SVGID_17_"  style="overflow:visible;"/>
	</clipPath>
	<g class="st39">
		<rect x="358.4" y="149.7" class="st28" width="1" height="45.8"/>
		<rect x="361.9" y="152.5" class="st28" width="1" height="45.8"/>
		<rect x="365.3" y="155.2" class="st28" width="1" height="45.8"/>
		<rect x="368.8" y="158" class="st28" width="1" height="45.8"/>
		<rect x="372.8" y="156.4" class="st28" width="1" height="45.8"/>
		<rect x="376.8" y="154.9" class="st28" width="1" height="45.8"/>
		<rect x="380.8" y="153.4" class="st28" width="1" height="45.8"/>
		<rect x="384.9" y="151.8" class="st28" width="1" height="45.8"/>
		<rect x="388.6" y="153.4" class="st28" width="1" height="45.8"/>
		<rect x="392.3" y="154.9" class="st28" width="1" height="45.8"/>
		<rect x="396" y="156.4" class="st28" width="1" height="45.8"/>
		<rect x="399.7" y="158" class="st28" width="1" height="45.8"/>
		<rect x="403.5" y="159.5" class="st28" width="1" height="45.8"/>
		<rect x="407.2" y="161.1" class="st28" width="1" height="45.8"/>
	</g>
</g>
<path class="st29" d="M403.7,164.5c10.9,5.5,10.9,14.3,0,19.8s-28.7,5.5-39.6,0s-10.9-14.3,0-19.8S392.8,159.1,403.7,164.5z"/>
<path class="st28" d="M366.2,167.5c9.8-4.9,25.6-4.9,35.4,0c4.4,2.2,6.8,5,7.2,7.9c0.5-3.5-1.9-7.1-7.2-9.8
	c-9.8-4.9-25.6-4.9-35.4,0c-5.4,2.7-7.8,6.3-7.2,9.8C359.4,172.5,361.8,169.7,366.2,167.5z"/>
<path class="st26" d="M366.2,183.3c9.8,4.9,25.6,4.9,35.4,0c4.4-2.2,6.8-5,7.2-7.9c-0.4-2.9-2.8-5.7-7.2-7.9
	c-9.8-4.9-25.6-4.9-35.4,0c-4.4,2.2-6.8,5-7.2,7.9C359.4,178.3,361.8,181.1,366.2,183.3z"/>
<path class="st26" d="M409.9,167.7c-1.7-2-3.8-3.6-6.2-4.6c-10.9-5.5-28.7-5.5-39.6,0c-2.4,1.1-4.5,2.7-6.2,4.6h-2v5.3l0,0
	c0,3.6,2.7,7.2,8.2,9.9c10.9,5.5,28.7,5.5,39.6,0c5.5-2.7,8.2-6.3,8.2-9.9v-5.3H409.9z"/>
<g>
	<defs>
		<path id="SVGID_19_" d="M409.9,167.7c-1.7-2-3.8-3.6-6.2-4.6c-10.9-5.5-28.7-5.5-39.6,0c-2.4,1.1-4.5,2.7-6.2,4.6h-2v5.3l0,0
			c0,3.6,2.7,7.2,8.2,9.9c10.9,5.5,28.7,5.5,39.6,0c5.5-2.7,8.2-6.3,8.2-9.9v-5.3H409.9z"/>
	</defs>
	<clipPath id="SVGID_20_">
		<use xlink:href="#SVGID_19_"  style="overflow:visible;"/>
	</clipPath>
	<g class="st40">
		<rect x="358.4" y="143" class="st28" width="1" height="45.8"/>
		<rect x="361.9" y="145.7" class="st28" width="1" height="45.8"/>
		<rect x="365.3" y="148.5" class="st28" width="1" height="45.8"/>
		<rect x="368.8" y="151.2" class="st28" width="1" height="45.8"/>
		<rect x="372.8" y="149.7" class="st28" width="1" height="45.8"/>
		<rect x="376.8" y="148.1" class="st28" width="1" height="45.8"/>
		<rect x="380.8" y="146.6" class="st28" width="1" height="45.8"/>
		<rect x="384.9" y="145.1" class="st28" width="1" height="45.8"/>
		<rect x="388.6" y="146.6" class="st28" width="1" height="45.8"/>
		<rect x="392.3" y="148.1" class="st28" width="1" height="45.8"/>
		<rect x="396" y="149.7" class="st28" width="1" height="45.8"/>
		<rect x="399.7" y="151.2" class="st28" width="1" height="45.8"/>
		<rect x="403.5" y="152.8" class="st28" width="1" height="45.8"/>
		<rect x="407.2" y="154.3" class="st28" width="1" height="45.8"/>
	</g>
</g>
<path class="st29" d="M403.7,157.8c10.9,5.5,10.9,14.3,0,19.8s-28.7,5.5-39.6,0s-10.9-14.3,0-19.8S392.8,152.3,403.7,157.8z"/>
<path class="st28" d="M366.2,160.7c9.8-4.9,25.6-4.9,35.4,0c4.4,2.2,6.8,5,7.2,7.9c0.5-3.5-1.9-7.1-7.2-9.8
	c-9.8-4.9-25.6-4.9-35.4,0c-5.4,2.7-7.8,6.3-7.2,9.8C359.4,165.7,361.8,162.9,366.2,160.7z"/>
<path class="st26" d="M366.2,176.5c9.8,4.9,25.6,4.9,35.4,0c4.4-2.2,6.8-5,7.2-7.9c-0.4-2.9-2.8-5.7-7.2-7.9
	c-9.8-4.9-25.6-4.9-35.4,0c-4.4,2.2-6.8,5-7.2,7.9C359.4,171.5,361.8,174.3,366.2,176.5z"/>
<path class="st26" d="M409.9,160.9c-1.7-2-3.8-3.6-6.2-4.6c-10.9-5.5-28.7-5.5-39.6,0c-2.4,1.1-4.5,2.7-6.2,4.6h-2v5.3l0,0
	c0,3.6,2.7,7.2,8.2,9.9c10.9,5.5,28.7,5.5,39.6,0c5.5-2.7,8.2-6.3,8.2-9.9v-5.3H409.9z"/>
<g>
	<defs>
		<path id="SVGID_21_" d="M409.9,160.9c-1.7-2-3.8-3.6-6.2-4.6c-10.9-5.5-28.7-5.5-39.6,0c-2.4,1.1-4.5,2.7-6.2,4.6h-2v5.3l0,0
			c0,3.6,2.7,7.2,8.2,9.9c10.9,5.5,28.7,5.5,39.6,0c5.5-2.7,8.2-6.3,8.2-9.9v-5.3H409.9z"/>
	</defs>
	<clipPath id="SVGID_22_">
		<use xlink:href="#SVGID_21_"  style="overflow:visible;"/>
	</clipPath>
	<g class="st41">
		<rect x="358.4" y="136.2" class="st28" width="1" height="45.8"/>
		<rect x="361.9" y="138.9" class="st28" width="1" height="45.8"/>
		<rect x="365.3" y="141.7" class="st28" width="1" height="45.8"/>
		<rect x="368.8" y="144.5" class="st28" width="1" height="45.8"/>
		<rect x="372.8" y="142.9" class="st28" width="1" height="45.8"/>
		<rect x="376.8" y="141.4" class="st28" width="1" height="45.8"/>
		<rect x="380.8" y="139.8" class="st28" width="1" height="45.8"/>
		<rect x="384.9" y="138.3" class="st28" width="1" height="45.8"/>
		<rect x="388.6" y="139.8" class="st28" width="1" height="45.8"/>
		<rect x="392.3" y="141.4" class="st28" width="1" height="45.8"/>
		<rect x="396" y="142.9" class="st28" width="1" height="45.8"/>
		<rect x="399.7" y="144.5" class="st28" width="1" height="45.8"/>
		<rect x="403.5" y="146" class="st28" width="1" height="45.8"/>
		<rect x="407.2" y="147.5" class="st28" width="1" height="45.8"/>
	</g>
</g>
<path class="st29" d="M403.7,151c10.9,5.5,10.9,14.3,0,19.8s-28.7,5.5-39.6,0s-10.9-14.3,0-19.8S392.8,145.5,403.7,151z"/>
<path class="st28" d="M366.2,154c9.8-4.9,25.6-4.9,35.4,0c4.4,2.2,6.8,5,7.2,7.9c0.5-3.5-1.9-7.1-7.2-9.8c-9.8-4.9-25.6-4.9-35.4,0
	c-5.4,2.7-7.8,6.3-7.2,9.8C359.4,159,361.8,156.2,366.2,154z"/>
<path class="st32" d="M366.2,169.8c9.8,4.9,25.6,4.9,35.4,0c4.4-2.2,6.8-5,7.2-7.9c-0.4-2.9-2.8-5.7-7.2-7.9
	c-9.8-4.9-25.6-4.9-35.4,0c-4.4,2.2-6.8,5-7.2,7.9C359.4,164.8,361.8,167.6,366.2,169.8z"/>
<path class="st33" d="M372,161.1c1.1,1.5,2.5,2.7,4.2,3.5c2.3,1.2,4.5,1.3,5.9,0.6s1.1-1.6-0.6-3.4c-2.4-2.5-2.8-4.7,0.5-6.3
	c3.8-1.9,9.9-1.8,15.1,0.9c1.8,0.8,3.3,1.9,4.6,3.4l-5.2,1.5c-0.9-1.2-2.2-2.2-3.6-2.9c-2.2-1.1-4.2-1.1-5.4-0.5
	c-1.4,0.7-0.8,1.6,1,3.6c2.5,2.7,2.3,4.6-0.9,6.2c-3.7,1.9-9.8,2-15.9-1c-2-0.8-3.7-2.2-5-3.8L372,161.1z"/>
<polygon class="st33" points="372.6,169.2 369.2,167.6 397.2,153.6 400.5,155.3 "/>
<polygon class="st34" points="400.5,154.3 400.5,155.3 398.8,156.1 397.6,155.7 "/>
<polygon class="st33" points="366.8,162.6 366.8,161.6 368.9,162.1 367.9,163.2 "/>
<polygon class="st35" points="369.2,167.6 369.2,166.6 372.6,168.3 372.6,169.2 "/>
<polygon class="st35" points="401.7,159.6 401.7,158.6 396.5,160.1 396.5,161.1 "/>
<path class="st29" d="M372,160.1c1.1,1.5,2.5,2.7,4.2,3.5c2.3,1.2,4.5,1.3,5.9,0.6s1.1-1.6-0.6-3.4c-2.4-2.5-2.8-4.7,0.5-6.3
	c3.8-1.9,9.9-1.8,15.1,0.9c1.8,0.8,3.3,1.9,4.6,3.4l-5.2,1.5c-0.9-1.2-2.2-2.2-3.6-2.9c-2.2-1.1-4.2-1.1-5.4-0.5
	c-1.4,0.7-0.8,1.6,1,3.6c2.5,2.7,2.3,4.6-0.9,6.2c-3.7,1.9-9.8,2-15.9-1c-2-0.8-3.7-2.2-5-3.8L372,160.1z"/>
<polygon class="st29" points="372.6,168.3 369.2,166.6 397.2,152.6 400.5,154.3 "/>
</svg>
