<svg id="Layer_1" data-name="Layer 1" xmlns="http://www.w3.org/2000/svg" xmlns:xlink="http://www.w3.org/1999/xlink" viewBox="0 0 630.73 450"><defs><style>.cls-1{fill:#fcaa37;}.cls-2{fill:#f2a233;}.cls-3{fill:url(#linear-gradient);}.cls-4{opacity:0.2;}.cls-5{fill:url(#linear-gradient-2);}.cls-6{fill:url(#linear-gradient-3);}.cls-7{clip-path:url(#clip-path);}.cls-8{fill:#8c5e1f;}.cls-9{fill:#fff;}.cls-10{fill:#333;}.cls-11{fill:#fafafa;}.cls-12{fill:#496aec;}.cls-13,.cls-16{fill:#415fd4;}.cls-14{fill:#a4b0de;}.cls-15{fill:#fcfcfc;}.cls-16{opacity:0.3;}.cls-17{fill:#81abde;}.cls-18{fill:#1c4569;}.cls-19{fill:#3073aa;}.cls-20{fill:#1d4261;}.cls-21{fill:#78bcff;}.cls-22{fill:url(#linear-gradient-4);}.cls-23{fill:#10273b;}.cls-24{opacity:0.5;}.cls-25{fill:#336eff;}.cls-26{opacity:0.56;}.cls-27{fill:#215380;}.cls-28{opacity:0.13;}.cls-29{clip-path:url(#clip-path-2);}.cls-30{fill:#e68f17;}.cls-31{fill:#fcc881;}.cls-32{clip-path:url(#clip-path-3);}.cls-33{clip-path:url(#clip-path-4);}.cls-34{fill:#f2ac4b;}.cls-35{fill:#db8816;}.cls-36{fill:#f09518;}.cls-37{fill:#eb9217;}.cls-38{clip-path:url(#clip-path-5);}.cls-39{clip-path:url(#clip-path-6);}.cls-40{clip-path:url(#clip-path-7);}.cls-41{clip-path:url(#clip-path-8);}.cls-42{clip-path:url(#clip-path-9);}.cls-43{clip-path:url(#clip-path-10);}</style><linearGradient id="linear-gradient" x1="172.86" y1="-80.61" x2="457.87" y2="530.61" gradientUnits="userSpaceOnUse"><stop offset="0" stop-color="#a1e1ff"/><stop offset="0.49" stop-color="#77a6ff"/><stop offset="1" stop-color="#4f6cff"/></linearGradient><linearGradient id="linear-gradient-2" x1="632.13" y1="340.54" x2="641.45" y2="234.05" gradientTransform="matrix(1.06, -0.35, 0.71, 0.71, -435.74, 308.76)" gradientUnits="userSpaceOnUse"><stop offset="0" stop-color="#371985"/><stop offset="0.32" stop-color="#343291"/><stop offset="0.99" stop-color="#2b71b0"/><stop offset="1" stop-color="#2b72b1"/></linearGradient><linearGradient id="linear-gradient-3" x1="633.53" y1="336.19" x2="642.84" y2="229.7" gradientTransform="matrix(1.06, -0.35, 0.71, 0.71, -435.74, 308.76)" gradientUnits="userSpaceOnUse"><stop offset="0" stop-color="#5727d1"/><stop offset="0.24" stop-color="#5140d8"/><stop offset="0.76" stop-color="#427fec"/><stop offset="1" stop-color="#3b9ef5"/></linearGradient><clipPath id="clip-path" transform="translate(0)"><path class="cls-1" d="M410.7,304.61,394,312.95a9.35,9.35,0,0,1-7.43,0l-10.81-5.4c-2.05-1-2.05-2.69,0-3.71l16.68-8.34a9.35,9.35,0,0,1,7.43,0l10.81,5.4C412.75,301.92,412.75,303.58,410.7,304.61Z"/></clipPath><linearGradient id="linear-gradient-4" x1="0.74" y1="325.35" x2="6.1" y2="314.84" gradientTransform="matrix(-1, 0, 0, 1, 321.64, 0)" gradientUnits="userSpaceOnUse"><stop offset="0" stop-color="#4da2ff"/><stop offset="0.3" stop-color="#55a7ff"/><stop offset="0.76" stop-color="#6ab4ff"/><stop offset="1" stop-color="#78bcff"/></linearGradient><clipPath id="clip-path-2" transform="translate(0)"><path class="cls-2" d="M125.85,375.49a18.42,18.42,0,0,0-6.16-4.65c-10.94-5.47-28.69-5.47-39.63,0a18.42,18.42,0,0,0-6.16,4.65h-2v5.26h0c0,3.59,2.74,7.17,8.21,9.91,10.94,5.47,28.69,5.47,39.63,0,5.47-2.74,8.21-6.32,8.21-9.91v-5.26Z"/></clipPath><clipPath id="clip-path-3" transform="translate(0)"><path class="cls-2" d="M125.85,368.73a18.42,18.42,0,0,0-6.16-4.65c-10.94-5.47-28.69-5.47-39.63,0a18.42,18.42,0,0,0-6.16,4.65h-2V374h0c0,3.59,2.74,7.17,8.21,9.91,10.94,5.47,28.69,5.47,39.63,0,5.47-2.74,8.21-6.32,8.21-9.91v-5.26Z"/></clipPath><clipPath id="clip-path-4" transform="translate(0)"><path class="cls-2" d="M125.85,362a18.42,18.42,0,0,0-6.16-4.65c-10.94-5.47-28.69-5.47-39.63,0A18.42,18.42,0,0,0,73.89,362h-2v5.26h0c0,3.59,2.74,7.17,8.21,9.91,10.94,5.47,28.69,5.47,39.63,0,5.47-2.74,8.21-6.32,8.21-9.91V362Z"/></clipPath><clipPath id="clip-path-5" transform="translate(0)"><path class="cls-2" d="M409.89,194.45a18.42,18.42,0,0,0-6.16-4.65c-10.94-5.47-28.69-5.47-39.63,0a18.42,18.42,0,0,0-6.16,4.65h-2v5.26h0c0,3.59,2.74,7.17,8.21,9.91,10.94,5.47,28.69,5.47,39.63,0,5.47-2.74,8.21-6.32,8.21-9.91v-5.26Z"/></clipPath><clipPath id="clip-path-6" transform="translate(0)"><path class="cls-2" d="M409.89,187.7a18.42,18.42,0,0,0-6.16-4.65c-10.94-5.47-28.69-5.47-39.63,0a18.42,18.42,0,0,0-6.16,4.65h-2V193h0c0,3.59,2.74,7.17,8.21,9.91,10.94,5.47,28.69,5.47,39.63,0,5.47-2.74,8.21-6.32,8.21-9.91V187.7Z"/></clipPath><clipPath id="clip-path-7" transform="translate(0)"><path class="cls-2" d="M409.89,180.94a18.42,18.42,0,0,0-6.16-4.65c-10.94-5.47-28.69-5.47-39.63,0a18.42,18.42,0,0,0-6.16,4.65h-2v5.26h0c0,3.59,2.74,7.17,8.21,9.91,10.94,5.47,28.69,5.47,39.63,0,5.47-2.74,8.21-6.32,8.21-9.91v-5.26Z"/></clipPath><clipPath id="clip-path-8" transform="translate(0)"><path class="cls-2" d="M409.89,174.43a18.42,18.42,0,0,0-6.16-4.65c-10.94-5.47-28.69-5.47-39.63,0a18.42,18.42,0,0,0-6.16,4.65h-2v5.26h0c0,3.59,2.74,7.17,8.21,9.91,10.94,5.47,28.69,5.47,39.63,0,5.47-2.74,8.21-6.32,8.21-9.91v-5.26Z"/></clipPath><clipPath id="clip-path-9" transform="translate(0)"><path class="cls-2" d="M409.89,167.68a18.42,18.42,0,0,0-6.16-4.65c-10.94-5.47-28.69-5.47-39.63,0a18.42,18.42,0,0,0-6.16,4.65h-2v5.26h0c0,3.59,2.74,7.17,8.21,9.91,10.94,5.47,28.69,5.47,39.63,0,5.47-2.74,8.21-6.32,8.21-9.91v-5.26Z"/></clipPath><clipPath id="clip-path-10" transform="translate(0)"><path class="cls-2" d="M409.89,160.92a18.42,18.42,0,0,0-6.16-4.65c-10.94-5.47-28.69-5.47-39.63,0a18.42,18.42,0,0,0-6.16,4.65h-2v5.26h0c0,3.59,2.74,7.17,8.21,9.91,10.94,5.47,28.69,5.47,39.63,0,5.47-2.74,8.21-6.32,8.21-9.91v-5.26Z"/></clipPath></defs><title>bg</title><rect class="cls-3" width="630.73" height="450"/><path class="cls-4" d="M431.37,343l120.75-60.37c4.69-2.34,4.69-6.14,0-8.49L482.3,239.27c-4.69-2.34-12.29-2.34-17,0L344.57,299.65c-4.69,2.34-4.69,6.14,0,8.49L414.4,343C419.09,345.39,426.69,345.39,431.37,343Z" transform="translate(0)"/><path class="cls-5" d="M424.28,339.11,545,278.74c4.69-2.34,6-9.34,1.33-11.68L475.2,235.34c-4.69-2.34-12.29-2.34-17,0L336.95,292c-4.69,2.34-4.16,9.84.53,12.19l69.83,34.91C412,341.45,419.59,341.45,424.28,339.11Z" transform="translate(0)"/><path class="cls-6" d="M424.28,335.12,545,274.75c4.69-2.34,4.69-6.14,0-8.49L475.2,231.35c-4.69-2.34-12.29-2.34-17,0L337.48,291.72c-4.69,2.34-4.69,6.14,0,8.49l69.83,34.91C412,337.46,419.59,337.46,424.28,335.12Z" transform="translate(0)"/><path class="cls-1" d="M410.7,304.61,394,312.95a9.35,9.35,0,0,1-7.43,0l-10.81-5.4c-2.05-1-2.05-2.69,0-3.71l16.68-8.34a9.35,9.35,0,0,1,7.43,0l10.81,5.4C412.75,301.92,412.75,303.58,410.7,304.61Z" transform="translate(0)"/><g class="cls-7"><polygon class="cls-8" points="400.29 314.25 399.94 314.42 374.55 301.73 374.9 301.55 400.29 314.25"/><polygon class="cls-8" points="381.99 305.27 356.6 317.97 356.25 317.79 381.64 305.1 381.99 305.27"/><polygon class="cls-8" points="390.3 309.43 364.92 322.13 364.57 321.95 389.96 309.26 390.3 309.43"/><polygon class="cls-8" points="421.33 285.6 395.95 298.29 395.6 298.12 420.99 285.42 421.33 285.6"/><polygon class="cls-8" points="392.44 299.76 384.92 303.52 384.57 303.34 392.09 299.58 392.44 299.76"/><polygon class="cls-8" points="401.48 304.28 393.96 308.04 393.61 307.86 401.13 304.1 401.48 304.28"/><polygon class="cls-8" points="429.65 289.76 404.26 302.45 403.92 302.28 429.31 289.58 429.65 289.76"/><polygon class="cls-8" points="414.25 307.27 413.9 307.44 388.51 294.75 388.86 294.57 414.25 307.27"/></g><path class="cls-9" d="M415.46,270.06a5.7,5.7,0,0,1-2,1.46,10.76,10.76,0,0,1-9.36-.05c-2.93-1.46-2.93-3.45,0-4.9a9.59,9.59,0,0,1,2.64-.9l.69.64a8.5,8.5,0,0,0-2.28.75c-2.19,1.1-2.25,2.53.21,3.76a8.33,8.33,0,0,0,7.36.08,4.51,4.51,0,0,0,1.58-1.18Z" transform="translate(0)"/><path class="cls-9" d="M412.57,267.18c-.79-.4-1.49-.73-2.15-1l1.07-.53,1.36.64.06,0c-.6-.6-.43-1.26.39-1.67a2.26,2.26,0,0,1,.39-.15l1.15.58a3,3,0,0,0-.46.19c-.86.43-.82,1.06-.07,1.6a3.9,3.9,0,0,0,.51.31l3.58,1.79-1.21.6Z" transform="translate(0)"/><path class="cls-9" d="M419.14,265.38a5.28,5.28,0,0,0,4.64,0,4.17,4.17,0,0,0,1.51-1.1l1.08.33a5.12,5.12,0,0,1-1.82,1.33,7.68,7.68,0,0,1-6.69,0c-2-1-2.43-2.41-.47-3.39a7,7,0,0,1,5.94.19,5.64,5.64,0,0,1,.53.3Zm2.71-2.23a4.25,4.25,0,0,0-3.68-.15c-1.24.62-.64,1.46.11,1.93Z" transform="translate(0)"/><path class="cls-9" d="M424.5,256l8.12,4.06c.6.3,1.29.63,1.79.84l-1.1.55-1.22-.56h0c.38.56.12,1.26-1,1.8a7.6,7.6,0,0,1-6.29-.27c-2.25-1.11-2.23-2.49-.6-3.31a5.46,5.46,0,0,1,3.05-.5h0l-4-2Zm4.65,3.55a3.64,3.64,0,0,0-.57-.23,4.61,4.61,0,0,0-3.18.17c-1.26.63-.9,1.56.58,2.3a5.25,5.25,0,0,0,4.47.25c.82-.41,1-1.06.33-1.62a2.42,2.42,0,0,0-.47-.29Z" transform="translate(0)"/><path class="cls-9" d="M429.14,254.91c.43.2.46.52,0,.76a1.82,1.82,0,0,1-1.49,0c-.43-.21-.44-.54,0-.76A1.8,1.8,0,0,1,429.14,254.91Zm7.25,5-6.72-3.36,1.22-.61,6.72,3.36Z" transform="translate(0)"/><path class="cls-9" d="M432.46,253.21l1.93,1,1.75-.87.93.47-1.75.87,3.62,1.81a2.36,2.36,0,0,0,2.22.19,3,3,0,0,0,.62-.4l1,.43a3,3,0,0,1-.92.62,3.84,3.84,0,0,1-1.83.4,5.12,5.12,0,0,1-2.22-.64l-3.66-1.83-1,.52-.93-.47,1-.52-1.61-.81Z" transform="translate(0)"/><path class="cls-9" d="M453.45,251.06a5.68,5.68,0,0,1-2,1.46,10.76,10.76,0,0,1-9.36-.05c-2.93-1.46-2.93-3.45,0-4.9a9.57,9.57,0,0,1,2.64-.9l.69.64a8.49,8.49,0,0,0-2.28.75c-2.19,1.1-2.25,2.53.21,3.76a8.33,8.33,0,0,0,7.36.08,4.49,4.49,0,0,0,1.58-1.18Z" transform="translate(0)"/><path class="cls-9" d="M458.86,248.66l-.94-.38,0,0c.15.45-.1,1-1.06,1.53a4.76,4.76,0,0,1-4,.06c-1.62-.81-1.07-2,1.54-3.27l-.14-.07a3.34,3.34,0,0,0-3.08,0,2.62,2.62,0,0,0-1.25,1.13l-1.08-.26a3.35,3.35,0,0,1,1.61-1.4,5.75,5.75,0,0,1,5.3.1l2.51,1.26a14.82,14.82,0,0,0,1.72.75ZM455.25,247c-1.36.65-2.64,1.53-1.33,2.18a2.66,2.66,0,0,0,2.32,0c.87-.44.88-1,.5-1.37a1.24,1.24,0,0,0-.32-.23Z" transform="translate(0)"/><path class="cls-9" d="M457.2,244.87c-.79-.4-1.49-.73-2.15-1l1.07-.53,1.36.64.06,0c-.6-.6-.43-1.26.39-1.67a2.21,2.21,0,0,1,.39-.15l1.15.58a3.09,3.09,0,0,0-.46.19c-.86.43-.82,1.06-.07,1.6a4,4,0,0,0,.51.31l3.58,1.79-1.21.6Z" transform="translate(0)"/><path class="cls-9" d="M462.18,237.15l8.12,4.06c.6.3,1.29.63,1.79.84l-1.1.55-1.22-.56h0c.38.56.12,1.26-1,1.8a7.6,7.6,0,0,1-6.29-.27c-2.25-1.11-2.24-2.49-.6-3.31a5.46,5.46,0,0,1,3.05-.5h0l-4-2Zm4.65,3.55a3.64,3.64,0,0,0-.57-.23,4.61,4.61,0,0,0-3.18.17c-1.26.63-.9,1.56.58,2.3a5.26,5.26,0,0,0,4.47.25c.82-.41,1-1.06.33-1.62a2.43,2.43,0,0,0-.47-.29Z" transform="translate(0)"/><path class="cls-9" d="M424.24,328.63a4.88,4.88,0,0,1-1.74,1.25,9.22,9.22,0,0,1-8,0c-2.51-1.25-2.51-3,0-4.2a8.22,8.22,0,0,1,2.26-.77l.59.55a7.23,7.23,0,0,0-1.95.64c-1.88.94-1.93,2.16.18,3.22a7.14,7.14,0,0,0,6.3.07,3.86,3.86,0,0,0,1.36-1Z" transform="translate(0)"/><path class="cls-9" d="M428.87,326.58l-.81-.32,0,0c.13.39-.08.9-.9,1.31a4.07,4.07,0,0,1-3.41.05c-1.39-.7-.92-1.69,1.32-2.8l-.12-.06a2.86,2.86,0,0,0-2.64,0,2.24,2.24,0,0,0-1.07,1l-.93-.23a2.85,2.85,0,0,1,1.38-1.2,4.93,4.93,0,0,1,4.54.08l2.15,1.08a12.86,12.86,0,0,0,1.48.64Zm-3.09-1.39c-1.17.56-2.26,1.31-1.14,1.87a2.28,2.28,0,0,0,2,0c.75-.37.75-.85.43-1.18a1.08,1.08,0,0,0-.27-.2Z" transform="translate(0)"/><path class="cls-9" d="M427.45,323.33c-.68-.34-1.27-.62-1.84-.87l.92-.46,1.17.55,0,0c-.51-.52-.37-1.08.33-1.43a1.9,1.9,0,0,1,.33-.13l1,.49a2.76,2.76,0,0,0-.39.16c-.74.37-.7.91-.06,1.37a3.34,3.34,0,0,0,.44.27l3.07,1.53-1,.52Z" transform="translate(0)"/><path class="cls-9" d="M431.71,316.72l7,3.48c.51.26,1.11.54,1.53.72l-.94.47-1-.48h0c.32.48.11,1.08-.83,1.55a6.52,6.52,0,0,1-5.39-.23c-1.93-1-1.91-2.14-.51-2.84a4.68,4.68,0,0,1,2.62-.43h0l-3.44-1.72Zm4,3a3.09,3.09,0,0,0-.49-.2,3.94,3.94,0,0,0-2.72.15c-1.08.54-.77,1.34.5,2a4.5,4.5,0,0,0,3.83.21c.7-.35.88-.9.28-1.39a2.06,2.06,0,0,0-.4-.25Z" transform="translate(0)"/><path class="cls-9" d="M437.46,314.27l3.35,1.68,3.88-1.94-3.35-1.68,1-.52,8,4-1,.52-3.76-1.88-3.88,1.94,3.76,1.88-1,.52-8-4Z" transform="translate(0)"/><path class="cls-9" d="M454.45,310.86c2.13,1.06,1.58,2.27.19,3a6.79,6.79,0,0,1-5.72-.1c-1.93-1-1.8-2.16-.2-3A6.74,6.74,0,0,1,454.45,310.86Zm-4.51,2.31a4.86,4.86,0,0,0,4,.23c1-.5.81-1.34-.49-2a4.83,4.83,0,0,0-3.94-.24C448.24,311.79,448.85,312.63,449.94,313.18Z" transform="translate(0)"/><path class="cls-9" d="M450.25,307.45l1-.52,8.45,4.22-1,.52Z" transform="translate(0)"/><path class="cls-9" d="M458,303.56l7,3.48c.51.26,1.11.54,1.53.72l-.94.47-1-.48h0c.32.48.11,1.08-.83,1.55a6.52,6.52,0,0,1-5.39-.23c-1.93-1-1.92-2.14-.51-2.84a4.68,4.68,0,0,1,2.62-.43h0L457,304.08Zm4,3a3.11,3.11,0,0,0-.49-.2,3.94,3.94,0,0,0-2.72.15c-1.08.54-.77,1.34.5,2a4.5,4.5,0,0,0,3.83.21c.7-.35.88-.9.29-1.39a2.11,2.11,0,0,0-.41-.25Z" transform="translate(0)"/><path class="cls-9" d="M466.1,305.28a4.53,4.53,0,0,0,4,0,3.55,3.55,0,0,0,1.3-.95l.93.29a4.37,4.37,0,0,1-1.56,1.14,6.57,6.57,0,0,1-5.73,0c-1.74-.87-2.08-2.06-.41-2.9a6,6,0,0,1,5.09.17,4.72,4.72,0,0,1,.45.26Zm2.32-1.91a3.63,3.63,0,0,0-3.15-.12c-1.06.53-.55,1.25.1,1.65Z" transform="translate(0)"/><path class="cls-9" d="M470.21,302c-.68-.34-1.27-.62-1.84-.87l.91-.46,1.17.55,0,0c-.51-.52-.37-1.08.33-1.43a1.86,1.86,0,0,1,.33-.13l1,.49a2.66,2.66,0,0,0-.39.16c-.74.37-.7.91-.06,1.37a3.35,3.35,0,0,0,.44.27l3.07,1.53-1,.52Z" transform="translate(0)"/><path class="cls-10" d="M400.59,315.83h0l-.6,1-.92-.27.77-1.21.84-.42,7.11,3.55-1,.48Z" transform="translate(0)"/><path class="cls-10" d="M410.42,317.12l-.59-.3,0-.75c.14-1.8.07-2.68-1-3.22a3.12,3.12,0,0,0-2.84,0,1.61,1.61,0,0,0-1,1.08l-1-.18a2.24,2.24,0,0,1,1.35-1.39,5,5,0,0,1,4.31-.09c1.31.66,1.39,1.68,1.3,3.17L411,316h0l3.28-1.64.8.4Z" transform="translate(0)"/><path class="cls-10" d="M415.32,313.57a7.07,7.07,0,0,0,2.07-.59c1.27-.64.88-1.23.28-1.52a4,4,0,0,0-3.31.23l-.55.27-.72-.36.55-.27c.72-.36,1.27-1,.43-1.42a2.66,2.66,0,0,0-2.35.11,2,2,0,0,0-1,1l-1-.22a2.72,2.72,0,0,1,1.37-1.23,4.43,4.43,0,0,1,3.79-.2c.73.37.91.9.32,1.51h0a4.79,4.79,0,0,1,3.46.1c1.14.57,1.22,1.52-.53,2.4a7.76,7.76,0,0,1-2.38.71Z" transform="translate(0)"/><path class="cls-10" d="M425,309.82l-1.94-1-3.4,1.7-.63-.32-1.28-3.9,1.07-.53,4.42,2.21,1-.51.75.38-1,.51,1.94,1Zm-2.69-1.35L420,307.29q-.56-.28-1.08-.57l0,0c.19.32.32.56.44.83l.63,2.1h0Z" transform="translate(0)"/><path class="cls-10" d="M432.94,299.56,430.16,301,431.7,302a5.15,5.15,0,0,1,.55-.32,6.28,6.28,0,0,1,2-.6,5,5,0,0,1,2.87.39c1.39.69,1.29,1.78-.29,2.57a7.35,7.35,0,0,1-2.26.69l-.49-.49a6.83,6.83,0,0,0,2-.59c.93-.47,1.14-1.16.19-1.64a4.12,4.12,0,0,0-3.68.26,9.37,9.37,0,0,0-.93.54l-2.94-1.94,3.5-1.75Z" transform="translate(0)"/><path class="cls-10" d="M438.39,296.71a4.74,4.74,0,0,0-.7.39c-1.3.9-1,1.86,0,2.53l0,0c-.1-.4.13-.89.94-1.29a5.29,5.29,0,0,1,4.5,0c1.3.65,1.59,1.71.07,2.47a6.52,6.52,0,0,1-5.61-.22c-1.4-.7-2-1.51-2-2.22a2.33,2.33,0,0,1,1.29-1.69,5.82,5.82,0,0,1,.66-.39Zm3.82,2.19a3.59,3.59,0,0,0-3.14-.06c-.6.3-.79.75-.54,1.15a.65.65,0,0,0,.31.27,4.3,4.3,0,0,0,3.64.21C443.34,300,443.23,299.41,442.21,298.9Z" transform="translate(0)"/><path class="cls-10" d="M444.05,293.2l.63.32,3.29,4.83-1,.51-3.11-4.73h0l-3.58,1.79-.8-.4Z" transform="translate(0)"/><path class="cls-10" d="M450.29,295.38c-.9-.45-1-1-.45-1.68h0a4.49,4.49,0,0,1-2.76-.22c-1.13-.56-.91-1.43.37-2.08a4.62,4.62,0,0,1,3.87-.19c.6.3.94.77.46,1.43l0,0a5.1,5.1,0,0,1,3.31.18c1.24.62,1,1.58-.42,2.28A5.31,5.31,0,0,1,450.29,295.38Zm3.89-2a4.35,4.35,0,0,0-3.16,0c-.61.55-.53,1.05.15,1.39a3.3,3.3,0,0,0,2.82-.05C454.88,294.31,454.91,293.76,454.18,293.39Zm-6.27-.42a3.77,3.77,0,0,0,2.71,0c.42-.42.47-.88-.18-1.2a2.76,2.76,0,0,0-2.4,0C447.22,292.18,447.29,292.67,447.91,293Z" transform="translate(0)"/><path class="cls-10" d="M465,289.16a5.8,5.8,0,0,0,.77-.42,1.61,1.61,0,0,0,.84-1.11c.06-.45-.22-.94-.92-1.43l0,0c.08.44-.22.88-1,1.24a5.19,5.19,0,0,1-4.34,0c-1.34-.67-1.52-1.76,0-2.51a6.28,6.28,0,0,1,5.41.29c1.56.78,2.12,1.6,2.08,2.3a2.16,2.16,0,0,1-1.17,1.54,6.06,6.06,0,0,1-.86.48Zm-3.73-2.22a3.42,3.42,0,0,0,2.91.05c.66-.33.86-.75.7-1.09a.51.51,0,0,0-.26-.22,4.23,4.23,0,0,0-3.64-.32C460.14,285.77,460.26,286.43,461.27,286.93Z" transform="translate(0)"/><path class="cls-10" d="M472.1,282.65c2.42,1.21,2.83,2.34,1.21,3.15-1.43.71-3.7.55-6.07-.62s-2.64-2.38-1.15-3.12S469.83,281.52,472.1,282.65Zm-3.86,2c1.85.92,3.48,1.16,4.38.71s.35-1.32-1.47-2.23-3.36-1.22-4.38-.71C465.9,282.9,466.3,283.73,468.24,284.69Z" transform="translate(0)"/><path class="cls-10" d="M477.86,279.77c2.42,1.21,2.83,2.34,1.21,3.15-1.43.71-3.7.55-6.07-.62s-2.64-2.38-1.15-3.12S475.6,278.64,477.86,279.77Zm-3.86,2c1.85.92,3.48,1.16,4.38.71s.35-1.32-1.47-2.23-3.36-1.22-4.38-.71C471.67,280,472.07,280.84,474,281.81Z" transform="translate(0)"/><path class="cls-10" d="M483.63,276.89c2.42,1.21,2.83,2.34,1.21,3.15-1.43.71-3.7.55-6.07-.62s-2.64-2.38-1.15-3.12S481.37,275.75,483.63,276.89Zm-3.86,2c1.85.92,3.48,1.16,4.38.71s.35-1.32-1.47-2.23-3.36-1.22-4.38-.71C477.44,277.13,477.84,278,479.77,278.92Z" transform="translate(0)"/><path class="cls-10" d="M496.55,270.43c2.42,1.21,2.83,2.34,1.21,3.15-1.43.71-3.7.55-6.07-.62s-2.64-2.38-1.15-3.12S494.29,269.3,496.55,270.43Zm-3.86,2c1.85.92,3.48,1.16,4.38.71s.35-1.32-1.47-2.23-3.36-1.22-4.38-.71C490.36,270.67,490.76,271.5,492.69,272.47Z" transform="translate(0)"/><path class="cls-10" d="M502.32,267.54c2.42,1.21,2.83,2.34,1.21,3.15-1.43.71-3.7.55-6.07-.62s-2.64-2.38-1.15-3.12S500.06,266.41,502.32,267.54Zm-3.86,2c1.85.92,3.48,1.16,4.38.71s.35-1.32-1.47-2.23-3.36-1.22-4.38-.71C496.13,267.79,496.52,268.61,498.46,269.58Z" transform="translate(0)"/><path class="cls-10" d="M508.09,264.66c2.42,1.21,2.83,2.34,1.21,3.15-1.43.71-3.7.55-6.07-.62s-2.64-2.38-1.15-3.12S505.82,263.53,508.09,264.66Zm-3.86,2c1.85.92,3.48,1.16,4.38.71s.35-1.32-1.47-2.23-3.36-1.22-4.38-.71C501.89,264.9,502.29,265.73,504.23,266.7Z" transform="translate(0)"/><path class="cls-10" d="M513.86,261.77c2.42,1.21,2.83,2.34,1.21,3.15-1.43.71-3.7.55-6.07-.62s-2.64-2.38-1.15-3.12S511.59,260.64,513.86,261.77Zm-3.86,2c1.85.92,3.48,1.16,4.38.71s.35-1.32-1.47-2.23-3.36-1.22-4.38-.71C507.66,262,508.06,262.85,510,263.81Z" transform="translate(0)"/><path class="cls-9" d="M401,315.76h0l-.6,1-.92-.27.77-1.21.84-.42,7.11,3.55-1,.48Z" transform="translate(0)"/><path class="cls-9" d="M410.79,317.06l-.59-.3,0-.75c.14-1.8.07-2.68-1-3.22a3.12,3.12,0,0,0-2.84,0,1.61,1.61,0,0,0-1,1.08l-1-.18a2.24,2.24,0,0,1,1.35-1.4,5,5,0,0,1,4.31-.09c1.31.66,1.39,1.68,1.3,3.17l-.06.55h0l3.28-1.64.8.4Z" transform="translate(0)"/><path class="cls-9" d="M415.69,313.5a7.07,7.07,0,0,0,2.07-.59c1.27-.64.88-1.23.28-1.52a4,4,0,0,0-3.31.23l-.55.28-.72-.36.55-.27c.72-.36,1.27-1,.43-1.42a2.66,2.66,0,0,0-2.35.11,2,2,0,0,0-1,1l-1-.22a2.72,2.72,0,0,1,1.37-1.23,4.43,4.43,0,0,1,3.79-.2c.73.37.91.9.32,1.51h0a4.79,4.79,0,0,1,3.46.1c1.14.57,1.22,1.52-.53,2.4a7.76,7.76,0,0,1-2.38.71Z" transform="translate(0)"/><path class="cls-9" d="M425.39,309.76l-1.94-1-3.4,1.7-.63-.32-1.28-3.9,1.07-.53,4.42,2.21,1-.51.75.38-1,.51,1.94,1Zm-2.69-1.35-2.37-1.19q-.56-.28-1.08-.57l0,0c.19.32.32.56.44.83l.63,2.1h0Z" transform="translate(0)"/><path class="cls-9" d="M433.31,299.5l-2.79,1.39,1.54,1.05a5.15,5.15,0,0,1,.55-.32,6.28,6.28,0,0,1,2-.6,5,5,0,0,1,2.87.39c1.39.69,1.29,1.78-.29,2.57a7.35,7.35,0,0,1-2.26.69l-.49-.49a6.83,6.83,0,0,0,2-.59c.93-.47,1.14-1.16.19-1.64a4.12,4.12,0,0,0-3.68.26,9.34,9.34,0,0,0-.94.54L429,300.85l3.5-1.75Z" transform="translate(0)"/><path class="cls-9" d="M438.76,296.65a4.73,4.73,0,0,0-.7.39c-1.3.9-1,1.86,0,2.53l0,0c-.1-.4.13-.89.94-1.29a5.29,5.29,0,0,1,4.5,0c1.3.65,1.59,1.71.07,2.47a6.52,6.52,0,0,1-5.61-.22c-1.4-.7-2-1.51-2-2.22a2.33,2.33,0,0,1,1.29-1.69,5.8,5.8,0,0,1,.66-.39Zm3.82,2.19a3.59,3.59,0,0,0-3.14-.06c-.6.3-.79.75-.54,1.15a.65.65,0,0,0,.31.27,4.3,4.3,0,0,0,3.64.21C443.71,300,443.6,299.35,442.58,298.84Z" transform="translate(0)"/><path class="cls-9" d="M444.42,293.14l.63.32,3.29,4.83-1,.51-3.11-4.73h0l-3.58,1.79-.8-.4Z" transform="translate(0)"/><path class="cls-9" d="M450.66,295.32c-.9-.45-1-1-.45-1.68h0a4.49,4.49,0,0,1-2.76-.22c-1.13-.56-.91-1.43.37-2.08a4.62,4.62,0,0,1,3.87-.19c.6.3.94.77.46,1.43l0,0a5.1,5.1,0,0,1,3.31.18c1.24.62,1,1.58-.42,2.28A5.31,5.31,0,0,1,450.66,295.32Zm3.89-2a4.35,4.35,0,0,0-3.16,0c-.61.55-.53,1.05.15,1.39a3.3,3.3,0,0,0,2.82-.05C455.25,294.25,455.28,293.7,454.55,293.33Zm-6.27-.42a3.77,3.77,0,0,0,2.71,0c.42-.42.47-.88-.18-1.2a2.76,2.76,0,0,0-2.4,0C447.59,292.12,447.66,292.61,448.28,292.92Z" transform="translate(0)"/><path class="cls-9" d="M465.37,289.09a5.81,5.81,0,0,0,.77-.42,1.61,1.61,0,0,0,.84-1.11c.06-.45-.22-.94-.92-1.43l0,0c.08.44-.22.88-1,1.24a5.19,5.19,0,0,1-4.34,0c-1.34-.67-1.52-1.76,0-2.51a6.28,6.28,0,0,1,5.41.29c1.56.78,2.12,1.6,2.08,2.3A2.16,2.16,0,0,1,467,289a6.06,6.06,0,0,1-.86.48Zm-3.73-2.22a3.42,3.42,0,0,0,2.91.05c.66-.33.86-.75.7-1.09a.51.51,0,0,0-.26-.22,4.23,4.23,0,0,0-3.64-.32C460.51,285.71,460.63,286.37,461.64,286.87Z" transform="translate(0)"/><path class="cls-9" d="M472.47,282.59c2.42,1.21,2.83,2.34,1.21,3.15-1.43.71-3.7.55-6.07-.62s-2.64-2.38-1.15-3.12S470.2,281.46,472.47,282.59Zm-3.86,2c1.85.92,3.48,1.16,4.38.71s.35-1.32-1.47-2.23-3.36-1.22-4.38-.71C466.27,282.84,466.67,283.66,468.61,284.63Z" transform="translate(0)"/><path class="cls-9" d="M478.23,279.71c2.42,1.21,2.83,2.34,1.21,3.15-1.43.71-3.7.55-6.07-.62s-2.64-2.38-1.15-3.12S476,278.58,478.23,279.71Zm-3.86,2c1.85.92,3.48,1.16,4.38.71s.35-1.32-1.47-2.23-3.36-1.22-4.38-.71C472,280,472.44,280.78,474.37,281.75Z" transform="translate(0)"/><path class="cls-9" d="M484,276.82c2.42,1.21,2.83,2.34,1.21,3.15-1.43.71-3.7.55-6.07-.62S476.5,277,478,276.23,481.74,275.69,484,276.82Zm-3.86,2c1.85.92,3.48,1.16,4.38.71s.35-1.32-1.47-2.23-3.36-1.22-4.38-.71C477.81,277.07,478.21,277.9,480.14,278.86Z" transform="translate(0)"/><path class="cls-9" d="M496.92,270.37c2.42,1.21,2.83,2.34,1.21,3.15-1.43.71-3.7.55-6.07-.62s-2.64-2.38-1.15-3.12S494.66,269.23,496.92,270.37Zm-3.86,2c1.85.92,3.48,1.16,4.38.71s.35-1.32-1.47-2.23-3.36-1.22-4.38-.71C490.73,270.61,491.13,271.44,493.06,272.4Z" transform="translate(0)"/><path class="cls-9" d="M502.69,267.48c2.42,1.21,2.83,2.34,1.21,3.15-1.43.71-3.7.55-6.07-.62s-2.64-2.38-1.15-3.12S500.43,266.35,502.69,267.48Zm-3.86,2c1.85.92,3.48,1.16,4.38.71s.35-1.32-1.47-2.23-3.36-1.22-4.38-.71C496.5,267.72,496.89,268.55,498.83,269.52Z" transform="translate(0)"/><path class="cls-9" d="M508.46,264.6c2.42,1.21,2.83,2.34,1.21,3.15-1.43.71-3.7.55-6.07-.62s-2.64-2.38-1.15-3.12S506.19,263.47,508.46,264.6Zm-3.86,2c1.85.92,3.48,1.16,4.38.71s.35-1.32-1.47-2.23-3.36-1.22-4.38-.71C502.26,264.84,502.66,265.67,504.6,266.64Z" transform="translate(0)"/><path class="cls-9" d="M514.23,261.71c2.42,1.21,2.83,2.34,1.21,3.15-1.43.71-3.7.55-6.07-.62s-2.64-2.38-1.15-3.12S512,260.58,514.23,261.71Zm-3.86,2c1.85.92,3.48,1.16,4.38.71s.35-1.32-1.47-2.23-3.36-1.22-4.38-.71C508,262,508.43,262.78,510.37,263.75Z" transform="translate(0)"/><path class="cls-9" d="M346.89,295.41a13.8,13.8,0,0,1,2-1.2,7.94,7.94,0,0,1,3.25-.94,4.67,4.67,0,0,1,2.43.44c.9.45,1.1,1.15.47,1.82h0a6.21,6.21,0,0,1,4.28.21c.81.4,1.1.87,1.08,1.33-.06.63-.83,1.29-2.36,2.05-.83.42-1.53.71-2,.88Zm5,1.31,1.1-.55c1.28-.64,1.36-1.35.46-1.8a4,4,0,0,0-3.58.26,6.09,6.09,0,0,0-1,.58Zm4.48,2.24a9.88,9.88,0,0,0,1.07-.48c1.25-.63,1.94-1.43.58-2.11a4.86,4.86,0,0,0-4.22.31l-1,.5Z" transform="translate(0)"/><path class="cls-9" d="M367.33,294.42l-.94-.38,0,0c.15.45-.1,1-1.05,1.53a4.76,4.76,0,0,1-4,.06c-1.62-.81-1.07-2,1.54-3.27l-.14-.07a3.34,3.34,0,0,0-3.08,0,2.62,2.62,0,0,0-1.25,1.13l-1.08-.26a3.34,3.34,0,0,1,1.61-1.4,5.75,5.75,0,0,1,5.3.1l2.51,1.26a14.82,14.82,0,0,0,1.72.75Zm-3.61-1.62c-1.36.65-2.64,1.53-1.33,2.18a2.66,2.66,0,0,0,2.32,0c.87-.44.88-1,.5-1.37a1.23,1.23,0,0,0-.32-.23Z" transform="translate(0)"/><path class="cls-9" d="M365.41,290.49c-.69-.35-1.28-.62-1.88-.88l1.08-.54,1.18.52h0c-.31-.49-.15-1.19,1-1.74a6,6,0,0,1,5.23.24l4,2-1.22.61-3.87-1.94a4,4,0,0,0-3.54-.22c-.8.4-.86,1-.39,1.44a1.85,1.85,0,0,0,.49.33l4,2-1.22.61Z" transform="translate(0)"/><path class="cls-9" d="M375.59,286.66h0a5.29,5.29,0,0,1-.17-.68l-.35-2.15,1.47-.74.17,2.68,6.91.5-1.49.74-5.54-.45.07.66,2.53,1.26-1.21.6-9.86-4.93,1.21-.6Z" transform="translate(0)"/><path class="cls-11" d="M417.33,296.43a1.81,1.81,0,0,1-.79.16c-.62,0-1.12-.25-1.12-.56a2.34,2.34,0,0,0-1.54-2.16,11.21,11.21,0,0,0-4.21-.74c-.61,0-1.14-.22-1.17-.53s.44-.57,1.05-.59a15,15,0,0,1,5.85,1,3.3,3.3,0,0,1,2.25,3C417.66,296.19,417.53,296.33,417.33,296.43Z" transform="translate(0)"/><path class="cls-11" d="M422,296.12a1.81,1.81,0,0,1-.79.16c-.62,0-1.12-.25-1.12-.56a4,4,0,0,0-2.65-3.67,18.92,18.92,0,0,0-7.14-1.26c-.61,0-1.14-.22-1.17-.53s.44-.57,1.05-.59c.21,0,5.22-.12,8.78,1.56,2.23,1.06,3.37,2.57,3.37,4.48C422.31,295.88,422.19,296,422,296.12Z" transform="translate(0)"/><path class="cls-11" d="M426.65,295.52a1.81,1.81,0,0,1-.79.16c-.62,0-1.12-.25-1.12-.56,0-2.15-1.21-3.82-3.61-5-3.86-1.83-9.59-1.7-9.65-1.7-.62,0-1.14-.22-1.17-.53s.44-.57,1.05-.59c.27,0,6.72-.16,11.29,2,2.87,1.36,4.32,3.3,4.32,5.77C427,295.28,426.85,295.42,426.65,295.52Z" transform="translate(0)"/><polygon class="cls-12" points="91.09 134.21 185.65 86.92 185.65 54.81 91.09 102.1 91.09 134.21"/><polygon class="cls-13" points="177.99 82.18 177.99 67.21 95.37 108.55 95.37 123.52 177.99 82.18"/><path class="cls-14" d="M175.28,75.79s61.19,14.9,60.22,131.91L159,248.64,157.16,247c-1.49-115.55-60.21-132.33-60.21-132.33l-.06-2.14Z" transform="translate(0)"/><path class="cls-15" d="M174.89,73s62.37,18.07,62.37,135.09L159,248.64c0-117-62.11-136.12-62.11-136.12Z" transform="translate(0)"/><polygon class="cls-16" points="177.99 74.19 99.85 113.71 99.85 115.77 95.37 117.45 95.37 108.55 177.99 67.21 177.99 74.19"/><path class="cls-17" d="M132.17,128.33l60-30q1.69,1.6,3.42,3.5l-60,30Q133.86,129.93,132.17,128.33Z" transform="translate(0)"/><path class="cls-17" d="M201.56,109.32l-60,30q-1.41-2-2.84-3.79l60-30C199.67,106.73,200.62,108,201.56,109.32Z" transform="translate(0)"/><path class="cls-17" d="M206.54,117.32l-60,30q-1.17-2.1-2.36-4l60-30Q205.38,115.22,206.54,117.32Z" transform="translate(0)"/><path class="cls-17" d="M210.67,125.75l-59.94,30q-1-2.19-2-4.22l60-30Q209.72,123.55,210.67,125.75Z" transform="translate(0)"/><path class="cls-17" d="M214,134.55l-59.9,30c-.52-1.51-1.06-3-1.61-4.4l59.92-30Q213.28,132.28,214,134.55Z" transform="translate(0)"/><polygon class="cls-17" points="170.15 235.16 228.89 205.78 228.89 199.9 170.15 229.28 170.15 235.16"/><path class="cls-4" d="M449.57,284.34l-219,108a24.88,24.88,0,0,1-22.26,0L93.79,335.8c-4.87-2.44,29.13,11.19,34,8.75l230-115a6.61,6.61,0,0,1,5.91,0l85.9,43A6.61,6.61,0,0,1,449.57,284.34Z" transform="translate(0)"/><path class="cls-18" d="M87.35,332.53c-2.83-1.73-10.44-7.69-4.49-19.1l5.27,4a14.35,14.35,0,0,1,2.3-1.44l209-102.46c7.65-3.83,20.06-3.83,27.72,0l103.7,50.77.36.19,5.82-4.41c5.26,10.09,0,15.9-3.22,18.29a12.09,12.09,0,0,1-1.14.78l0,0-.27.16c-.4.23-.64.34-.64.34L220.46,385.28c-7.65,3.83-20.06,3.83-27.72,0L88.33,333.07s-.27-.12-.7-.38Z" transform="translate(0)"/><path class="cls-19" d="M88.18,322.36l104.56,52.28c7.65,3.83,20.06,3.83,27.72,0L431.74,269c7.65-3.83,7.65-10,0-13.86L327.18,202.86c-7.65-3.83-20.06-3.83-27.72,0L88.18,308.5C80.53,312.33,80.53,318.53,88.18,322.36Z" transform="translate(0)"/><path class="cls-20" d="M404.93,251.9c-1.51.75-1.51,2,0,2.73a6.88,6.88,0,0,0,5.46,0c1.51-.75,1.51-2,0-2.73A6.88,6.88,0,0,0,404.93,251.9Z" transform="translate(0)"/><path class="cls-20" d="M412.66,255.76c-1.51.75-1.51,2,0,2.73a6.88,6.88,0,0,0,5.46,0c1.51-.75,1.51-2,0-2.73A6.88,6.88,0,0,0,412.66,255.76Z" transform="translate(0)"/><path class="cls-20" d="M397.2,248c-1.51.75-1.51,2,0,2.73a6.88,6.88,0,0,0,5.46,0c1.51-.75,1.51-2,0-2.73A6.88,6.88,0,0,0,397.2,248Z" transform="translate(0)"/><path class="cls-20" d="M344.38,224.46l32.46,16.23a4.11,4.11,0,0,0,3.67,0l2.65-1.33a1.37,1.37,0,0,0,0-2.45L350.3,220.48a3.2,3.2,0,0,0-2.86,0L344.38,222A1.37,1.37,0,0,0,344.38,224.46Z" transform="translate(0)"/><path class="cls-21" d="M293.27,206,413,265.68c.86.43,1.74.84,2.64,1.19L215.21,366c-3.14-2.29-7.25-3.78-10.45-5.37L186,351.24,162.47,339.5l-24.64-12.29-22-11L100,308.37l-5.77-2.88Z" transform="translate(0)"/><path class="cls-22" d="M420.14,274.78l-199.88,100c.42-.21-.93-3.82-1.06-4.11a11.5,11.5,0,0,0-4-4.67l200.38-99.1C417,267.42,420.14,269.27,420.14,274.78Z" transform="translate(0)"/><path class="cls-23" d="M96.31,330.74c0,.56-.46.79-1,.51a1.92,1.92,0,0,1-1-1.53c0-.56.46-.79,1-.51A1.92,1.92,0,0,1,96.31,330.74Z" transform="translate(0)"/><path class="cls-23" d="M99.65,332.41c0,.56-.46.79-1,.51a1.92,1.92,0,0,1-1-1.53c0-.56.46-.79,1-.51A1.92,1.92,0,0,1,99.65,332.41Z" transform="translate(0)"/><path class="cls-23" d="M103,334.08c0,.56-.46.79-1,.51a1.92,1.92,0,0,1-1-1.53c0-.56.46-.79,1-.51A1.92,1.92,0,0,1,103,334.08Z" transform="translate(0)"/><path class="cls-23" d="M106.33,335.75c0,.56-.46.79-1,.51a1.92,1.92,0,0,1-1-1.53c0-.56.46-.79,1-.51A1.92,1.92,0,0,1,106.33,335.75Z" transform="translate(0)"/><path class="cls-23" d="M109.67,337.42c0,.56-.46.79-1,.51a1.92,1.92,0,0,1-1-1.53c0-.56.46-.79,1-.51A1.92,1.92,0,0,1,109.67,337.42Z" transform="translate(0)"/><path class="cls-23" d="M96.31,333.8c0,.56-.46.79-1,.51a1.92,1.92,0,0,1-1-1.53c0-.56.46-.79,1-.51A1.92,1.92,0,0,1,96.31,333.8Z" transform="translate(0)"/><path class="cls-23" d="M99.65,335.48c0,.56-.46.79-1,.51a1.92,1.92,0,0,1-1-1.53c0-.56.46-.79,1-.51A1.92,1.92,0,0,1,99.65,335.48Z" transform="translate(0)"/><path class="cls-23" d="M103,337.15c0,.56-.46.79-1,.51a1.92,1.92,0,0,1-1-1.53c0-.56.46-.79,1-.51A1.92,1.92,0,0,1,103,337.15Z" transform="translate(0)"/><path class="cls-23" d="M106.33,338.82c0,.56-.46.79-1,.51a1.92,1.92,0,0,1-1-1.53c0-.56.46-.79,1-.51A1.92,1.92,0,0,1,106.33,338.82Z" transform="translate(0)"/><path class="cls-23" d="M109.67,340.49c0,.56-.46.79-1,.51a1.92,1.92,0,0,1-1-1.53c0-.56.46-.79,1-.51A1.92,1.92,0,0,1,109.67,340.49Z" transform="translate(0)"/><path class="cls-23" d="M142.41,357.2l-10.53-5.27a4.11,4.11,0,0,1-2.18-3.28h0c0-1.21,1-1.69,2.18-1.09l10.53,5.27a4.11,4.11,0,0,1,2.18,3.28h0C144.59,357.31,143.61,357.8,142.41,357.2Z" transform="translate(0)"/><path class="cls-23" d="M177.58,372.09c0,1.69-1.37,2.37-3.06,1.53a5.75,5.75,0,0,1-3.06-4.59c0-1.69,1.37-2.37,3.06-1.53A5.75,5.75,0,0,1,177.58,372.09Z" transform="translate(0)"/><path class="cls-9" d="M353.37,286.24l-7.15,3.58-3.46-1.73-7.25,3.63,7,3.5L339,297l-3.54-1.77-3.69,1.85h.1l-3.7-1.8,3.5-1.75-3.55-1.77-3.5,1.75-7.28-3.64-3.54,1.77L306.61,288v.05l3.5-1.75-3.65-1.82-3.5,1.75h.1l-7.29-3.65,3.49-1.74-3.42-1.71-7.16,3.58,3.47,1.74-3.57,1.79h.1l-10.89-5.39,3.69-1.84,3.5,1.75,7.11-3.56-3.5-1.75,3.7-1.8h-.1l3.65,1.82,18-9h-.1l7.1,3.55-3.5,1.75L314,270.12l-3.54,1.77,7,3.49,3.38-1.69,10.8,5.4,3.67-1.84,3.57,1.79,3.55-1.78-3.4-1.7,3.62-1.81,7,3.5,3.53-1.77,3.61,1.81-3.4,1.7,7.23,3.61-3.7,1.85h.1l-3.5-1.75-3.65,1.82,3.5,1.75Zm-21.73-3.53L321,277.4l-10.53,5.26L321.11,288Zm.11,7.05,17.83-8.91-3.38-1.69-17.83,8.91Zm-25.18-12.53L310,275.5l-3.39-1.69-7,3.49,6.93,3.47,3.52-1.76Z" transform="translate(0)"/><path class="cls-9" d="M245.41,257.5l10.76,5.38,7.2-3.6,3.57,1.78,3.55-1.77-3.4-1.7,18-9,3.59,1.65,7-3.49,3.67,1.84-10.68,5.34-3.51-1.75-3.45,1.72,3.46,1.73,3.5-1.75,7.18,3.65v-.05l-7.24,3.62h.1l-7.08-3.54-3.69,1.84,3.34,1.67L274,264.67,270.65,263l-7.15,3.57,7.12,3.56L267,271.9l-10.84-5.42-7.2,3.6h.1l-10.85-5.42,3.59-1.8,7.1,3.55,3.45-1.73-7.05-3.53-3.5,1.75-3.59-1.85v.05l7.24-3.62Z" transform="translate(0)"/><path class="cls-9" d="M216.68,286.29l14.44-7.22-7.25-3.62v.05l3.69-1.85-7.13-3.57,3.43-1.72,10.74,5.37-3.37,1.68,3.59,1.79,14.28-7.14H249l3.7,1.85,3.54-1.77,3.54,1.77-3.39,1.7,7.15,3.57,3.5-1.75,3.65,1.83-7.26,3.63-3.69-1.84-3.59,1.79-3.55-1.78,3.51-1.75-3.45-1.72-3.46,1.73,3.5,1.75-7.24,3.62-3.6-1.8-3.6,1.8-3.5-1.75-3.44,1.72,3.45,1.73,3.49-1.75,3.66,1.83-10.85,5.42-3.64-1.82,3.51-1.75-3.45-1.72L224,286.32l3.5,1.75-10.7,5.35-3.69-1.85,7.1-3.55-3.56-1.78Z" transform="translate(0)"/><path class="cls-9" d="M238.47,243.08l25-12.48,25,12.48-25,12.48Zm42.75,0-17.76-8.88-17.78,8.89L263.45,252Z" transform="translate(0)"/><path class="cls-9" d="M263.43,334.75l-25-12.49,25-12.5,25,12.49Zm17.79-12.5-17.76-8.88-17.78,8.89,17.76,8.88Z" transform="translate(0)"/><path class="cls-9" d="M184.26,295.16l-25-12.48,25-12.48,25,12.48Zm-17.73-12.51,17.76,8.88,17.76-8.88-17.76-8.88Z" transform="translate(0)"/><path class="cls-9" d="M281.48,293.47l-3.57,1.79-3.53-1.76-3.6,1.8,3.37,1.68-3.61,1.81-7.09-3.54v.05l7.31-3.65-3.52-1.76L278,284.5l7.12,3.56,3.58-1.79h-.1l3.68,1.84,3.69-1.85,3.57,1.78,3.55-1.77H303l3.65,1.82V288l-10.84,5.42h.1l-3.56-1.78-7.25,3.63-3.68-1.84,3.51-1.75L281.44,290,278,291.72Z" transform="translate(0)"/><path class="cls-9" d="M306.61,302.43,303,304.26l7.24,3.62v-.05l-3.58,1.79-3.51-1.75-3.55,1.78-3.69-1.84-3.71,1.85h.1l-7.08-3.54-7.12,3.56,3.5,1.75,3.48-1.74,3.58,1.79v-.05L285,313.25l3.65,1.82V315l-3.51,1.75-14.3-7.15,7-3.5-3.54-1.77,3.62-1.81,3.4,1.7,7.14-3.57,3.61,1.81-3.34,1.67,3.69,1.84,10.68-5.34H303l3.65,1.82Z" transform="translate(0)"/><path class="cls-9" d="M295.82,257.52l3.65-1.82h-.1l3.5,1.75,3.65-1.82-3.5-1.75v.05l3.5-1.75,7.11,3.56-7.1,3.55,3.68,1.84v-.05l-3.6,1.85-3.5-1.75-7.25,3.63,7,3.52-10.73,5.37h.1l-3.71-1.85,3.48-1.74-3.55-1.78L285.13,270l-3.62-1.81,7.09-3.55-3.51-1.76,3.58-1.79h-.1l3.5,1.75,7.24-3.62-3.5-1.75Z" transform="translate(0)"/><path class="cls-9" d="M220.23,277.28l3.5,1.75-7.07,3.53-21.38-10.69,10.61-5.3,3.53,1.77,7.3-3.65h-.1l3.7,1.85-7.22,3.61,3.54,1.77-7,3.51,7.2,3.6,3.5-1.75Z" transform="translate(0)"/><path class="cls-9" d="M216.73,264.69,206,259.34l10.7-5.35,3.39,1.69,3.55-1.77,3.62,1.81-3.34,1.67,7.29,3.65,3.48-1.74h-.1l3.65,1.82v-.05L231,264.69l-3.64-1.82-3.59,1.79-3.55-1.78,3.51-1.75-3.45-1.72-3.46,1.73,3.5,1.75-3.7,1.79Z" transform="translate(0)"/><path class="cls-9" d="M241.85,313.22,238.28,315l3.53,1.76-3.56,1.78-10.6-5.3,7.05-3.53-3.58-1.79,7.2-3.6,3.46,1.73,7.21-3.6h-.11l3.6,1.8-14.32,7.16,3.7,1.85Z" transform="translate(0)"/><path class="cls-9" d="M245.51,257.5l-10.78-5.39,3.48-1.74-3.56-1.78-3.38,1.69-3.59-1.79,6.93-3.47,10.65,5.32L241.91,252l3.56,1.78,3.38-1.69,10.78,5.39-3.4,1.7-7.12-3.56-3.71,1.85Z" transform="translate(0)"/><path class="cls-9" d="M321,302.43l-3.55,1.77-3.52-1.76-3.64,1.82-3.68-1.84v.05l3.5-1.75-3.65-1.82-3.5,1.75h.1l-3.65-1.83v.05l10.84-5.42,3.6,1.8-3.5,1.75,3.55,1.77,3.5-1.75,3.6,1.85v-.05l-3.65,1.82,3.65,1.82Z" transform="translate(0)"/><path class="cls-9" d="M202.34,297.06l-7.1-3.55,17.93-9,3.5,1.75v-.05l-10.88,5.44,3.6,1.8-7.16,3.58Z" transform="translate(0)"/><path class="cls-9" d="M310.21,261.11l7.09-3.55,10.64,5.32-7,3.52-3.5-1.75v.05l3.5-1.75-3.65-1.82-3.5,1.75h.1l-3.65-1.82Z" transform="translate(0)"/><path class="cls-9" d="M256.25,298.83l-7.37,3.63h.1l-3.52-1.83v.05l3.65-1.82L245.46,297v.05l3.68-1.84-3.65-1.83,3.56-1.78,7.2,3.65v-.05l-3.65,1.82,3.65,1.82Z" transform="translate(0)"/><path class="cls-9" d="M292.17,309.65,302.85,315l-3.51,1.75L295.86,315l-3.69,1.84h.1L288.62,315v.05l3.65-1.82-3.65-1.82v.05l3.65-1.82Z" transform="translate(0)"/><path class="cls-9" d="M227.42,298.86l7.1,3.55L231,304.16l-3.39-1.7L224,304.28l-3.71-1.85v.05l7.24-3.62Z" transform="translate(0)"/><path class="cls-9" d="M263.43,306l-7.19,3.59-3.36-1.68,7.14-3.57,3.41,1.71Z" transform="translate(0)"/><path class="cls-9" d="M335.44,270.08l-7.08-3.54,3.45-1.73,7,3.52-3.5,1.75Z" transform="translate(0)"/><path class="cls-9" d="M198.68,298.83l-3.5,1.75-7-3.52,3.44-1.72,7.1,3.55Z" transform="translate(0)"/><path class="cls-9" d="M241.85,313.27l7.09-3.55,3.46,1.73-7,3.52-3.51-1.75Z" transform="translate(0)"/><path class="cls-9" d="M220.28,302.43l-7.19,3.6-3.6-1.8v.05l7.19-3.6,3.6,1.8Z" transform="translate(0)"/><path class="cls-9" d="M209.49,304.23,206,306l-7.14-3.57,3.5-1.75h-.1l7.24,3.62Z" transform="translate(0)"/><path class="cls-9" d="M216.82,307.81l3.35-1.68,7,3.52-3.35,1.68Z" transform="translate(0)"/><path class="cls-9" d="M198.68,298.88l3.66-1.83h-.1l3.7,1.8-3.7,1.8h.1l-3.66-1.83Z" transform="translate(0)"/><path class="cls-9" d="M299.47,255.69l-3.5-1.75,3.55-1.77,3.5,1.75v-.05l-3.65,1.82Z" transform="translate(0)"/><path class="cls-9" d="M245.46,300.63l-3.5,1.75-3.55-1.77,3.5-1.75h-.1l3.65,1.82Z" transform="translate(0)"/><path class="cls-9" d="M317.41,264.66l-3.65,1.83h.1l-3.7-1.8,3.7-1.8h-.1l3.65,1.82Z" transform="translate(0)"/><path class="cls-9" d="M263.45,295.24l-3.65,1.82h.1l-3.65-1.82v.05l3.6-1.85,3.59,1.85Z" transform="translate(0)"/><path class="cls-9" d="M259.8,297.06l3.5,1.75-3.55,1.77-3.5-1.75v.05l3.65-1.82Z" transform="translate(0)"/><path class="cls-9" d="M267.09,304.25l-3.49-1.75,3.45-1.73,3.44,1.72-3.5,1.75Z" transform="translate(0)"/><path class="cls-9" d="M331.78,271.79l-3.59,1.8-3.36-1.68,3.54-1.77,3.41,1.71Z" transform="translate(0)"/><path class="cls-9" d="M267,304.25l3.49,1.75-3.5,1.75L263.43,306V306l3.66-1.76Z" transform="translate(0)"/><path class="cls-9" d="M281.51,297.17l3.34,1.67-3.43,1.72-3.34-1.67Z" transform="translate(0)"/><path class="cls-9" d="M241.91,298.86,238.27,297v.05l3.6-1.8,3.6,1.8V297l-3.65,1.82Z" transform="translate(0)"/><path class="cls-9" d="M335.34,270.08l3.49,1.75-3.5,1.75-3.56-1.78v.05l3.66-1.77Z" transform="translate(0)"/><path class="cls-9" d="M202.28,264.59l-3.37-1.68,3.4-1.7,3.37,1.68Z" transform="translate(0)"/><path class="cls-9" d="M238.27,297l-3.6,1.8-3.6-1.8v.05l3.6-1.8,3.6,1.8Z" transform="translate(0)"/><path class="cls-9" d="M295.87,297.06l-3.6-1.8,3.6-1.8h-.1l3.6,1.8-3.6,1.8Z" transform="translate(0)"/><path class="cls-9" d="M299.42,298.83l-3.5,1.75-3.55-1.77,3.5-1.75h-.1l3.65,1.82Z" transform="translate(0)"/><path class="cls-9" d="M231.07,297l-3.65,1.83h.1l-3.7-1.8,3.65-1.82,3.6,1.85Z" transform="translate(0)"/><path class="cls-9" d="M234.72,259.29l-3.5-1.75,3.46-1.73,3.45,1.72-3.51,1.75Z" transform="translate(0)"/><path class="cls-9" d="M223.88,275.45l-3.65,1.83h.1l-3.5-1.75,3.55-1.77,3.5,1.75Z" transform="translate(0)"/><path class="cls-9" d="M328.19,298.83l-3.65,1.82h.1L321,298.83v.05l3.6-1.85,3.59,1.85Z" transform="translate(0)"/><path class="cls-9" d="M292.17,316.84l3.5,1.75-3.46,1.73-3.45-1.72,3.51-1.75Z" transform="translate(0)"/><path class="cls-9" d="M310.2,307.88l3.5-1.75,3.46,1.73-3.45,1.72-3.51-1.75Z" transform="translate(0)"/><path class="cls-9" d="M324.55,300.66l3.5,1.75-3.55,1.77-3.5-1.75v.05l3.65-1.82Z" transform="translate(0)"/><path class="cls-9" d="M331.74,297.06l3.5,1.75-3.55,1.77-3.5-1.75v.05l3.65-1.82Z" transform="translate(0)"/><path class="cls-9" d="M356.92,284.47l3.5,1.75L356.87,288l-3.5-1.75v.05l3.65-1.82Z" transform="translate(0)"/><path class="cls-9" d="M259.85,293.49l-7.19-3.6-3.6,1.8-3.56-1.78L242,291.64l-3.69-1.84,7.11-3.55L249,288l3.51-1.75,3.55,1.78,3.54-1.77,3.62,1.81-3.39,1.7,3.69,1.84Z" transform="translate(0)"/><path class="cls-9" d="M270.59,277.27l3.6-1.8-3.6-1.8,7.08-3.54,3.56,1.78-3.44,1.72,3.68,1.84-7.24,3.62Z" transform="translate(0)"/><path class="cls-9" d="M274.24,279l3.65,1.82-3.5,1.75-3.65-1.82Z" transform="translate(0)"/><path class="cls-9" d="M267.15,282.76l3.31,1.66L267,286.14l-3.31-1.66Z" transform="translate(0)"/><path class="cls-9" d="M241.81,284.47l3.65-1.82,3.65,1.82-3.65,1.82Z" transform="translate(0)"/><path class="cls-9" d="M270.69,273.68,267,275.5l-3.65-1.82,3.65-1.82Z" transform="translate(0)"/><path class="cls-9" d="M288.68,275.48,285,277.3l-3.65-1.82,3.65-1.82Z" transform="translate(0)"/><path class="cls-9" d="M321.05,295.26l-3.65,1.82-3.65-1.82,3.65-1.82Z" transform="translate(0)"/><path class="cls-9" d="M324.6,297.08,321,295.26l3.65-1.82,3.65,1.82Z" transform="translate(0)"/><path class="cls-9" d="M306.61,262.86l3.65,1.82-3.5,1.75-3.65-1.82Z" transform="translate(0)"/><path class="cls-9" d="M317.61,282.65,321,281l3.38,1.69L321,284.34Z" transform="translate(0)"/><path class="cls-9" d="M238.22,271.78l-7-3.49,3.38-1.69,7,3.49Z" transform="translate(0)"/><path class="cls-9" d="M216.73,297.06l-7.24,3.62-3.65-1.82,7.24-3.62Z" transform="translate(0)"/><path class="cls-9" d="M231.07,289.84l3.65,1.82-7.24,3.62-3.65-1.82Z" transform="translate(0)"/><path class="cls-9" d="M223.92,297.06l-3.65,1.82-3.65-1.82,3.65-1.82Z" transform="translate(0)"/><path class="cls-9" d="M252.86,243.08l10.57-5.28L274,243.08l-10.57,5.28Z" transform="translate(0)"/><path class="cls-9" d="M252.86,322.22l10.57-5.28L274,322.22l-10.57,5.28Z" transform="translate(0)"/><path class="cls-9" d="M184.32,277.37l10.56,5.28-10.59,5.3-10.56-5.28Z" transform="translate(0)"/><g class="cls-24"><polygon class="cls-25" points="549.34 188.78 559.99 194.1 559.99 255.63 549.34 250.31 549.34 188.78"/><polygon class="cls-25" points="534.39 171.44 545.04 176.77 545.04 248.15 534.39 242.83 534.39 171.44"/><polygon class="cls-25" points="519.44 186.27 530.09 191.59 530.09 240.68 519.44 235.35 519.44 186.27"/><polygon class="cls-25" points="504.49 152.94 515.13 158.26 515.13 233.2 504.49 227.88 504.49 152.94"/><polygon class="cls-25" points="489.54 158.87 500.18 164.2 500.18 225.72 489.54 220.4 489.54 158.87"/><polygon class="cls-25" points="474.59 120.5 485.23 125.83 485.23 218.25 474.59 212.92 474.59 120.5"/><path class="cls-25" d="M464.57,213.05,565.43,263.5v-89c0-.42.34-.59.76-.38a1.43,1.43,0,0,1,.76,1.14v89L572,266.8a1.43,1.43,0,0,1,.76,1.14c0,.42-.34.59-.76.38L567,265.78v5.32c0,.42-.34.59-.76.38a1.43,1.43,0,0,1-.76-1.14V265L464.57,214.57a1.43,1.43,0,0,1-.76-1.14C463.81,213,464.15,212.84,464.57,213.05Z" transform="translate(0)"/></g><g class="cls-24"><path class="cls-25" d="M95.88,253.4a9.71,9.71,0,0,0,1.69,3l-3.28,4.93,6.65,3.32,3.39-5.09a14.14,14.14,0,0,0,3.73-.35V264l9.4-4.7v-4.83a34.16,34.16,0,0,0,3.73-3.37l3.39,1.69,6.65-10L128,241.23a29.34,29.34,0,0,0,1.7-4.7l4.52-2.26v-9.4L129.91,227a10.19,10.19,0,0,0-1.62-3.36l3-4.44-6.65-3.32-2.84,4.26a13.79,13.79,0,0,0-4.28.32v-4l-9.4,4.7v4a34.49,34.49,0,0,0-4.27,4l-2.85-1.43-6.65,10,3,1.48a28.1,28.1,0,0,0-1.62,5l-4.31,2.16v9.4Zm16.9-4.17c-5.19,2.59-9.39.49-9.39-4.7s4.21-11.5,9.39-14.09,9.39-.49,9.39,4.7S118,246.64,112.77,249.23Z" transform="translate(0)"/><path class="cls-25" d="M69,284.24a6.94,6.94,0,0,0,1.2,2.14l-2.34,3.52,4.75,2.37L75,288.64a10.11,10.11,0,0,0,2.66-.25v3.46l6.72-3.36V285A24.4,24.4,0,0,0,87,282.63l2.42,1.21,4.75-7.12-2.33-1.17a21,21,0,0,0,1.21-3.36l3.23-1.62v-6.72l-3.06,1.53a7.28,7.28,0,0,0-1.16-2.4l2.11-3.17-4.75-2.37-2,3a9.86,9.86,0,0,0-3.06.23v-2.84l-6.72,3.36v2.84a24.63,24.63,0,0,0-3.05,2.82l-2-1L67.84,273,70,274.06a20.07,20.07,0,0,0-1.16,3.54l-3.08,1.54v6.72Zm12.07-3c-3.71,1.85-6.71.35-6.71-3.35s3-8.21,6.71-10.07,6.71-.35,6.71,3.35S84.74,279.41,81,281.26Z" transform="translate(0)"/><path class="cls-25" d="M70.7,252.93a6.27,6.27,0,0,0,.67,1.89l-2,2.6,3.21,2.5,2.1-2.69a6.54,6.54,0,0,0,1.95.11l-.33,2.83,5.18-2,.33-2.82a17.52,17.52,0,0,0,2.16-1.66L85.58,255l4.11-5.27-1.58-1.23a17.94,17.94,0,0,0,1.2-2.61L91.8,245l.63-5.49-2.36.89a6.66,6.66,0,0,0-.61-2.1l1.83-2.35-3.21-2.5-1.76,2.25a6.39,6.39,0,0,0-2.23-.17l.27-2.33-5.18,2-.27,2.33a17.78,17.78,0,0,0-2.47,1.95l-1.38-1.07-4.11,5.27,1.44,1.12a17.36,17.36,0,0,0-1.17,2.76l-2.37.9-.63,5.49Zm9-1c-2.86,1.08-4.89-.5-4.54-3.53A9.94,9.94,0,0,1,81,240.93c2.86-1.08,4.89.5,4.54,3.53A9.94,9.94,0,0,1,79.72,251.91Z" transform="translate(0)"/></g><g class="cls-26"><path class="cls-25" d="M267.51,91.36a32,32,0,0,1,8.56-7.73l.32-.16a14.15,14.15,0,0,1,8.56-.83c3.76,1,8.22,4.7,8.57,16.45a2.72,2.72,0,0,1-1.46,2.22h0c-.79.4-1.43.08-1.46-.7-.4-13.9-6.78-15.51-11-15a12.92,12.92,0,0,0-6.79,3.4c-4.2,3.73-10.58,11.72-11,26.06a2.68,2.68,0,0,1-1.41,2.09l0,0c-.83.41-1.49.07-1.47-.76C259.29,104.28,263.75,96.13,267.51,91.36Z" transform="translate(0)"/><path class="cls-25" d="M256.92,117.25v34.26c0,1.1.89,1.54,2,1l34.26-17.14a3.74,3.74,0,0,0,2-3V98.12c0-1.1-.89-1.54-2-1L258.9,114.27A3.74,3.74,0,0,0,256.92,117.25Zm17.26,10.41c-1.75.15-3-1-3-3,0-2.67,2.16-5.92,4.83-7.25s4.83-.25,4.83,2.42a8.77,8.77,0,0,1-3,6l2.39,5.85A2.22,2.22,0,0,1,279,134l-3,1.5-3,1.5c-.9.45-1.53-.12-1.24-1.11Z" transform="translate(0)"/></g><path class="cls-23" d="M370.6,307.74l-20.35,10.18c-1.25.62-2.27.11-2.27-1.14h0a4.29,4.29,0,0,1,2.27-3.41l20.35-10.18c1.25-.62,2.27-.11,2.27,1.14h0A4.29,4.29,0,0,1,370.6,307.74Z" transform="translate(0)"/><path class="cls-27" d="M371.15,308.21l-20.35,10.18c-1.25.62-2.27.11-2.27-1.14h0a4.29,4.29,0,0,1,2.27-3.41l20.35-10.18c1.25-.62,2.27-.11,2.27,1.14h0A4.29,4.29,0,0,1,371.15,308.21Z" transform="translate(0)"/><path class="cls-23" d="M399.24,293.23,378.9,303.41c-1.25.62-2.27.11-2.27-1.14h0a4.29,4.29,0,0,1,2.27-3.41l20.35-10.18c1.25-.62,2.27-.11,2.27,1.14h0A4.29,4.29,0,0,1,399.24,293.23Z" transform="translate(0)"/><path class="cls-27" d="M399.8,293.7l-20.35,10.18c-1.25.62-2.27.11-2.27-1.14h0a4.29,4.29,0,0,1,2.27-3.41l20.35-10.18c1.25-.62,2.27-.11,2.27,1.14h0A4.29,4.29,0,0,1,399.8,293.7Z" transform="translate(0)"/><path class="cls-28" d="M124.34,374.92c12.42,6.71,13,16.51,1.2,21.89s-31.36,4.31-43.79-2.39-13-16.51-1.2-21.89S111.92,368.21,124.34,374.92Z" transform="translate(0)"/><path class="cls-2" d="M125.85,375.49a18.42,18.42,0,0,0-6.16-4.65c-10.94-5.47-28.69-5.47-39.63,0a18.42,18.42,0,0,0-6.16,4.65h-2v5.26h0c0,3.59,2.74,7.17,8.21,9.91,10.94,5.47,28.69,5.47,39.63,0,5.47-2.74,8.21-6.32,8.21-9.91v-5.26Z" transform="translate(0)"/><g class="cls-29"><rect class="cls-30" x="74.34" y="350.77" width="1.03" height="45.82"/><rect class="cls-30" x="77.82" y="353.52" width="1.03" height="45.82"/><rect class="cls-30" x="81.29" y="356.27" width="1.03" height="45.82"/><rect class="cls-30" x="84.77" y="359.03" width="1.03" height="45.82"/><rect class="cls-30" x="88.78" y="357.49" width="1.03" height="45.82"/><rect class="cls-30" x="92.79" y="355.94" width="1.03" height="45.82"/><rect class="cls-30" x="96.8" y="354.4" width="1.03" height="45.82"/><rect class="cls-30" x="100.81" y="352.86" width="1.03" height="45.82"/><rect class="cls-30" x="104.54" y="354.4" width="1.03" height="45.82"/><rect class="cls-30" x="108.26" y="355.94" width="1.03" height="45.82"/><rect class="cls-30" x="111.98" y="357.49" width="1.03" height="45.82"/><rect class="cls-30" x="115.7" y="359.03" width="1.03" height="45.82"/><rect class="cls-30" x="119.43" y="360.57" width="1.03" height="45.82"/><rect class="cls-30" x="123.15" y="362.11" width="1.03" height="45.82"/></g><path class="cls-31" d="M119.69,365.58c10.94,5.47,10.94,14.34,0,19.82s-28.69,5.47-39.63,0-10.94-14.34,0-19.82S108.75,360.11,119.69,365.58Z" transform="translate(0)"/><path class="cls-30" d="M82.17,368.52c9.78-4.89,25.63-4.89,35.41,0,4.41,2.2,6.81,5,7.24,7.91.53-3.51-1.87-7.11-7.24-9.79-9.78-4.89-25.63-4.89-35.41,0-5.37,2.68-7.77,6.28-7.24,9.79C75.36,373.55,77.76,370.72,82.17,368.52Z" transform="translate(0)"/><path class="cls-2" d="M82.17,384.34c9.78,4.89,25.63,4.89,35.41,0,4.41-2.2,6.81-5,7.24-7.91-.43-2.88-2.83-5.71-7.24-7.91-9.78-4.89-25.63-4.89-35.41,0-4.41,2.2-6.81,5-7.24,7.91C75.36,379.31,77.76,382.13,82.17,384.34Z" transform="translate(0)"/><path class="cls-2" d="M125.85,368.73a18.42,18.42,0,0,0-6.16-4.65c-10.94-5.47-28.69-5.47-39.63,0a18.42,18.42,0,0,0-6.16,4.65h-2V374h0c0,3.59,2.74,7.17,8.21,9.91,10.94,5.47,28.69,5.47,39.63,0,5.47-2.74,8.21-6.32,8.21-9.91v-5.26Z" transform="translate(0)"/><g class="cls-32"><rect class="cls-30" x="74.34" y="344.01" width="1.03" height="45.82"/><rect class="cls-30" x="77.82" y="346.76" width="1.03" height="45.82"/><rect class="cls-30" x="81.29" y="349.52" width="1.03" height="45.82"/><rect class="cls-30" x="84.77" y="352.27" width="1.03" height="45.82"/><rect class="cls-30" x="88.78" y="350.73" width="1.03" height="45.82"/><rect class="cls-30" x="92.79" y="349.19" width="1.03" height="45.82"/><rect class="cls-30" x="96.8" y="347.65" width="1.03" height="45.82"/><rect class="cls-30" x="100.81" y="346.11" width="1.03" height="45.82"/><rect class="cls-30" x="104.54" y="347.65" width="1.03" height="45.82"/><rect class="cls-30" x="108.26" y="349.19" width="1.03" height="45.82"/><rect class="cls-30" x="111.98" y="350.73" width="1.03" height="45.82"/><rect class="cls-30" x="115.7" y="352.27" width="1.03" height="45.82"/><rect class="cls-30" x="119.43" y="353.81" width="1.03" height="45.82"/><rect class="cls-30" x="123.15" y="355.35" width="1.03" height="45.82"/></g><path class="cls-31" d="M119.69,358.82c10.94,5.47,10.94,14.34,0,19.82s-28.69,5.47-39.63,0-10.94-14.34,0-19.82S108.75,353.35,119.69,358.82Z" transform="translate(0)"/><path class="cls-30" d="M82.17,361.76c9.78-4.89,25.63-4.89,35.41,0,4.41,2.2,6.81,5,7.24,7.91.53-3.51-1.87-7.11-7.24-9.79-9.78-4.89-25.63-4.89-35.41,0-5.37,2.68-7.77,6.28-7.24,9.79C75.36,366.79,77.76,364,82.17,361.76Z" transform="translate(0)"/><path class="cls-2" d="M82.17,377.58c9.78,4.89,25.63,4.89,35.41,0,4.41-2.2,6.81-5,7.24-7.91-.43-2.88-2.83-5.71-7.24-7.91-9.78-4.89-25.63-4.89-35.41,0-4.41,2.2-6.81,5-7.24,7.91C75.36,372.56,77.76,375.38,82.17,377.58Z" transform="translate(0)"/><path class="cls-2" d="M125.85,362a18.42,18.42,0,0,0-6.16-4.65c-10.94-5.47-28.69-5.47-39.63,0A18.42,18.42,0,0,0,73.89,362h-2v5.26h0c0,3.59,2.74,7.17,8.21,9.91,10.94,5.47,28.69,5.47,39.63,0,5.47-2.74,8.21-6.32,8.21-9.91V362Z" transform="translate(0)"/><g class="cls-33"><rect class="cls-30" x="74.34" y="337.25" width="1.03" height="45.82"/><rect class="cls-30" x="77.82" y="340.01" width="1.03" height="45.82"/><rect class="cls-30" x="81.29" y="342.76" width="1.03" height="45.82"/><rect class="cls-30" x="84.77" y="345.52" width="1.03" height="45.82"/><rect class="cls-30" x="88.78" y="343.97" width="1.03" height="45.82"/><rect class="cls-30" x="92.79" y="342.43" width="1.03" height="45.82"/><rect class="cls-30" x="96.8" y="340.89" width="1.03" height="45.82"/><rect class="cls-30" x="100.81" y="339.35" width="1.03" height="45.82"/><rect class="cls-30" x="104.54" y="340.89" width="1.03" height="45.82"/><rect class="cls-30" x="108.26" y="342.43" width="1.03" height="45.82"/><rect class="cls-30" x="111.98" y="343.97" width="1.03" height="45.82"/><rect class="cls-30" x="115.7" y="345.52" width="1.03" height="45.82"/><rect class="cls-30" x="119.43" y="347.06" width="1.03" height="45.82"/><rect class="cls-30" x="123.15" y="348.6" width="1.03" height="45.82"/></g><path class="cls-31" d="M119.69,352.07c10.94,5.47,10.94,14.34,0,19.82s-28.69,5.47-39.63,0-10.94-14.34,0-19.82S108.75,346.6,119.69,352.07Z" transform="translate(0)"/><path class="cls-30" d="M82.17,355c9.78-4.89,25.63-4.89,35.41,0,4.41,2.2,6.81,5,7.24,7.91.53-3.51-1.87-7.11-7.24-9.79-9.78-4.89-25.63-4.89-35.41,0-5.37,2.68-7.77,6.28-7.24,9.79C75.36,360,77.76,357.21,82.17,355Z" transform="translate(0)"/><path class="cls-34" d="M82.17,370.83c9.78,4.89,25.63,4.89,35.41,0,4.41-2.2,6.81-5,7.24-7.91-.43-2.88-2.83-5.71-7.24-7.91-9.78-4.89-25.63-4.89-35.41,0-4.41,2.2-6.81,5-7.24,7.91C75.36,365.8,77.76,368.62,82.17,370.83Z" transform="translate(0)"/><path class="cls-35" d="M87.95,362.37a10.78,10.78,0,0,0,4.19,3.48c2.31,1.16,4.49,1.29,5.94.56s1.12-1.62-.59-3.43c-2.41-2.49-2.77-4.72.46-6.34,3.8-1.9,9.87-1.77,15.12.86a12.6,12.6,0,0,1,4.55,3.4l-5.18,1.47a9.11,9.11,0,0,0-3.6-2.86c-2.18-1.09-4.23-1.12-5.38-.54-1.42.71-.79,1.65,1,3.63,2.48,2.69,2.28,4.64-.86,6.21-3.73,1.87-9.77,2-15.88-1a13,13,0,0,1-5-3.83Z" transform="translate(0)"/><polygon class="cls-35" points="88.56 370.56 85.19 368.87 113.13 354.9 116.51 356.59 88.56 370.56"/><polygon class="cls-36" points="116.51 355.6 116.51 356.59 114.77 357.45 113.61 357.05 116.51 355.6"/><polygon class="cls-35" points="82.76 363.93 82.76 362.95 84.88 363.44 83.82 364.5 82.76 363.93"/><polygon class="cls-37" points="85.19 368.87 85.19 367.88 88.56 369.57 88.56 370.56 85.19 368.87"/><polygon class="cls-37" points="117.63 360.9 117.63 359.91 112.44 361.38 112.44 362.37 117.63 360.9"/><path class="cls-31" d="M87.95,361.38a10.78,10.78,0,0,0,4.19,3.48c2.31,1.16,4.49,1.29,5.94.56s1.12-1.62-.59-3.43c-2.41-2.49-2.77-4.72.46-6.34,3.8-1.9,9.87-1.77,15.12.86a12.6,12.6,0,0,1,4.55,3.4l-5.18,1.47a9.11,9.11,0,0,0-3.6-2.86c-2.18-1.09-4.23-1.12-5.38-.54-1.42.71-.79,1.65,1,3.63,2.48,2.69,2.28,4.64-.86,6.21-3.73,1.87-9.77,2-15.88-1a13,13,0,0,1-5-3.83Z" transform="translate(0)"/><polygon class="cls-31" points="88.56 369.57 85.19 367.88 113.13 353.91 116.51 355.6 88.56 369.57"/><path class="cls-28" d="M408.38,193.89c12.42,6.71,13,16.51,1.2,21.89s-31.36,4.31-43.79-2.39-13-16.51-1.2-21.89S396,187.18,408.38,193.89Z" transform="translate(0)"/><path class="cls-2" d="M409.89,194.45a18.42,18.42,0,0,0-6.16-4.65c-10.94-5.47-28.69-5.47-39.63,0a18.42,18.42,0,0,0-6.16,4.65h-2v5.26h0c0,3.59,2.74,7.17,8.21,9.91,10.94,5.47,28.69,5.47,39.63,0,5.47-2.74,8.21-6.32,8.21-9.91v-5.26Z" transform="translate(0)"/><g class="cls-38"><rect class="cls-30" x="358.38" y="169.73" width="1.03" height="45.82"/><rect class="cls-30" x="361.85" y="172.49" width="1.03" height="45.82"/><rect class="cls-30" x="365.33" y="175.24" width="1.03" height="45.82"/><rect class="cls-30" x="368.8" y="177.99" width="1.03" height="45.82"/><rect class="cls-30" x="372.81" y="176.45" width="1.03" height="45.82"/><rect class="cls-30" x="376.83" y="174.91" width="1.03" height="45.82"/><rect class="cls-30" x="380.84" y="173.37" width="1.03" height="45.82"/><rect class="cls-30" x="384.85" y="171.83" width="1.03" height="45.82"/><rect class="cls-30" x="388.57" y="173.37" width="1.03" height="45.82"/><rect class="cls-30" x="392.29" y="174.91" width="1.03" height="45.82"/><rect class="cls-30" x="396.02" y="176.45" width="1.03" height="45.82"/><rect class="cls-30" x="399.74" y="177.99" width="1.03" height="45.82"/><rect class="cls-30" x="403.46" y="179.54" width="1.03" height="45.82"/><rect class="cls-30" x="407.18" y="181.08" width="1.03" height="45.82"/></g><path class="cls-31" d="M403.73,184.55c10.94,5.47,10.94,14.34,0,19.82s-28.69,5.47-39.63,0-10.94-14.34,0-19.82S392.78,179.07,403.73,184.55Z" transform="translate(0)"/><path class="cls-30" d="M366.21,187.49c9.78-4.89,25.63-4.89,35.41,0,4.41,2.2,6.81,5,7.24,7.91.53-3.51-1.87-7.11-7.24-9.79-9.78-4.89-25.63-4.89-35.41,0-5.37,2.68-7.77,6.28-7.24,9.79C359.39,192.51,361.8,189.69,366.21,187.49Z" transform="translate(0)"/><path class="cls-2" d="M366.21,203.31c9.78,4.89,25.63,4.89,35.41,0,4.41-2.2,6.81-5,7.24-7.91-.43-2.88-2.83-5.71-7.24-7.91-9.78-4.89-25.63-4.89-35.41,0-4.41,2.2-6.81,5-7.24,7.91C359.39,198.28,361.8,201.1,366.21,203.31Z" transform="translate(0)"/><path class="cls-2" d="M409.89,187.7a18.42,18.42,0,0,0-6.16-4.65c-10.94-5.47-28.69-5.47-39.63,0a18.42,18.42,0,0,0-6.16,4.65h-2V193h0c0,3.59,2.74,7.17,8.21,9.91,10.94,5.47,28.69,5.47,39.63,0,5.47-2.74,8.21-6.32,8.21-9.91V187.7Z" transform="translate(0)"/><g class="cls-39"><rect class="cls-30" x="358.38" y="162.98" width="1.03" height="45.82"/><rect class="cls-30" x="361.85" y="165.73" width="1.03" height="45.82"/><rect class="cls-30" x="365.33" y="168.48" width="1.03" height="45.82"/><rect class="cls-30" x="368.8" y="171.24" width="1.03" height="45.82"/><rect class="cls-30" x="372.81" y="169.7" width="1.03" height="45.82"/><rect class="cls-30" x="376.83" y="168.16" width="1.03" height="45.82"/><rect class="cls-30" x="380.84" y="166.61" width="1.03" height="45.82"/><rect class="cls-30" x="384.85" y="165.07" width="1.03" height="45.82"/><rect class="cls-30" x="388.57" y="166.61" width="1.03" height="45.82"/><rect class="cls-30" x="392.29" y="168.16" width="1.03" height="45.82"/><rect class="cls-30" x="396.02" y="169.7" width="1.03" height="45.82"/><rect class="cls-30" x="399.74" y="171.24" width="1.03" height="45.82"/><rect class="cls-30" x="403.46" y="172.78" width="1.03" height="45.82"/><rect class="cls-30" x="407.18" y="174.32" width="1.03" height="45.82"/></g><path class="cls-31" d="M403.73,177.79c10.94,5.47,10.94,14.34,0,19.82s-28.69,5.47-39.63,0-10.94-14.34,0-19.82S392.78,172.32,403.73,177.79Z" transform="translate(0)"/><path class="cls-30" d="M366.21,180.73c9.78-4.89,25.63-4.89,35.41,0,4.41,2.2,6.81,5,7.24,7.91.53-3.51-1.87-7.11-7.24-9.79-9.78-4.89-25.63-4.89-35.41,0-5.37,2.68-7.77,6.28-7.24,9.79C359.39,185.76,361.8,182.93,366.21,180.73Z" transform="translate(0)"/><path class="cls-2" d="M366.21,196.55c9.78,4.89,25.63,4.89,35.41,0,4.41-2.2,6.81-5,7.24-7.91-.43-2.88-2.83-5.71-7.24-7.91-9.78-4.89-25.63-4.89-35.41,0-4.41,2.2-6.81,5-7.24,7.91C359.39,191.52,361.8,194.35,366.21,196.55Z" transform="translate(0)"/><path class="cls-2" d="M409.89,180.94a18.42,18.42,0,0,0-6.16-4.65c-10.94-5.47-28.69-5.47-39.63,0a18.42,18.42,0,0,0-6.16,4.65h-2v5.26h0c0,3.59,2.74,7.17,8.21,9.91,10.94,5.47,28.69,5.47,39.63,0,5.47-2.74,8.21-6.32,8.21-9.91v-5.26Z" transform="translate(0)"/><g class="cls-40"><rect class="cls-30" x="358.38" y="156.22" width="1.03" height="45.82"/><rect class="cls-30" x="361.85" y="158.97" width="1.03" height="45.82"/><rect class="cls-30" x="365.33" y="161.73" width="1.03" height="45.82"/><rect class="cls-30" x="368.8" y="164.48" width="1.03" height="45.82"/><rect class="cls-30" x="372.81" y="162.94" width="1.03" height="45.82"/><rect class="cls-30" x="376.83" y="161.4" width="1.03" height="45.82"/><rect class="cls-30" x="380.84" y="159.86" width="1.03" height="45.82"/><rect class="cls-30" x="384.85" y="158.32" width="1.03" height="45.82"/><rect class="cls-30" x="388.57" y="159.86" width="1.03" height="45.82"/><rect class="cls-30" x="392.29" y="161.4" width="1.03" height="45.82"/><rect class="cls-30" x="396.02" y="162.94" width="1.03" height="45.82"/><rect class="cls-30" x="399.74" y="164.48" width="1.03" height="45.82"/><rect class="cls-30" x="403.46" y="166.02" width="1.03" height="45.82"/><rect class="cls-30" x="407.18" y="167.57" width="1.03" height="45.82"/></g><path class="cls-31" d="M403.73,171c10.94,5.47,10.94,14.34,0,19.82s-28.69,5.47-39.63,0-10.94-14.34,0-19.82S392.78,165.56,403.73,171Z" transform="translate(0)"/><path class="cls-30" d="M366.21,174c9.78-4.89,25.63-4.89,35.41,0,4.41,2.2,6.81,5,7.24,7.91.53-3.51-1.87-7.11-7.24-9.79-9.78-4.89-25.63-4.89-35.41,0-5.37,2.68-7.77,6.28-7.24,9.79C359.39,179,361.8,176.18,366.21,174Z" transform="translate(0)"/><path class="cls-34" d="M366.21,189.79c9.78,4.89,25.63,4.89,35.41,0,4.41-2.2,6.81-5,7.24-7.91-.43-2.88-2.83-5.71-7.24-7.91-9.78-4.89-25.63-4.89-35.41,0-4.41,2.2-6.81,5-7.24,7.91C359.39,184.77,361.8,187.59,366.21,189.79Z" transform="translate(0)"/><path class="cls-2" d="M409.89,174.43a18.42,18.42,0,0,0-6.16-4.65c-10.94-5.47-28.69-5.47-39.63,0a18.42,18.42,0,0,0-6.16,4.65h-2v5.26h0c0,3.59,2.74,7.17,8.21,9.91,10.94,5.47,28.69,5.47,39.63,0,5.47-2.74,8.21-6.32,8.21-9.91v-5.26Z" transform="translate(0)"/><g class="cls-41"><rect class="cls-30" x="358.38" y="149.71" width="1.03" height="45.82"/><rect class="cls-30" x="361.85" y="152.46" width="1.03" height="45.82"/><rect class="cls-30" x="365.33" y="155.22" width="1.03" height="45.82"/><rect class="cls-30" x="368.8" y="157.97" width="1.03" height="45.82"/><rect class="cls-30" x="372.81" y="156.43" width="1.03" height="45.82"/><rect class="cls-30" x="376.83" y="154.89" width="1.03" height="45.82"/><rect class="cls-30" x="380.84" y="153.35" width="1.03" height="45.82"/><rect class="cls-30" x="384.85" y="151.81" width="1.03" height="45.82"/><rect class="cls-30" x="388.57" y="153.35" width="1.03" height="45.82"/><rect class="cls-30" x="392.29" y="154.89" width="1.03" height="45.82"/><rect class="cls-30" x="396.02" y="156.43" width="1.03" height="45.82"/><rect class="cls-30" x="399.74" y="157.97" width="1.03" height="45.82"/><rect class="cls-30" x="403.46" y="159.51" width="1.03" height="45.82"/><rect class="cls-30" x="407.18" y="161.06" width="1.03" height="45.82"/></g><path class="cls-31" d="M403.73,164.52c10.94,5.47,10.94,14.34,0,19.82s-28.69,5.47-39.63,0-10.94-14.34,0-19.82S392.78,159.05,403.73,164.52Z" transform="translate(0)"/><path class="cls-30" d="M366.21,167.46c9.78-4.89,25.63-4.89,35.41,0,4.41,2.2,6.81,5,7.24,7.91.53-3.51-1.87-7.11-7.24-9.79-9.78-4.89-25.63-4.89-35.41,0-5.37,2.68-7.77,6.28-7.24,9.79C359.39,172.49,361.8,169.67,366.21,167.46Z" transform="translate(0)"/><path class="cls-2" d="M366.21,183.28c9.78,4.89,25.63,4.89,35.41,0,4.41-2.2,6.81-5,7.24-7.91-.43-2.88-2.83-5.71-7.24-7.91-9.78-4.89-25.63-4.89-35.41,0-4.41,2.2-6.81,5-7.24,7.91C359.39,178.26,361.8,181.08,366.21,183.28Z" transform="translate(0)"/><path class="cls-2" d="M409.89,167.68a18.42,18.42,0,0,0-6.16-4.65c-10.94-5.47-28.69-5.47-39.63,0a18.42,18.42,0,0,0-6.16,4.65h-2v5.26h0c0,3.59,2.74,7.17,8.21,9.91,10.94,5.47,28.69,5.47,39.63,0,5.47-2.74,8.21-6.32,8.21-9.91v-5.26Z" transform="translate(0)"/><g class="cls-42"><rect class="cls-30" x="358.38" y="142.96" width="1.03" height="45.82"/><rect class="cls-30" x="361.85" y="145.71" width="1.03" height="45.82"/><rect class="cls-30" x="365.33" y="148.46" width="1.03" height="45.82"/><rect class="cls-30" x="368.8" y="151.22" width="1.03" height="45.82"/><rect class="cls-30" x="372.81" y="149.67" width="1.03" height="45.82"/><rect class="cls-30" x="376.83" y="148.13" width="1.03" height="45.82"/><rect class="cls-30" x="380.84" y="146.59" width="1.03" height="45.82"/><rect class="cls-30" x="384.85" y="145.05" width="1.03" height="45.82"/><rect class="cls-30" x="388.57" y="146.59" width="1.03" height="45.82"/><rect class="cls-30" x="392.29" y="148.13" width="1.03" height="45.82"/><rect class="cls-30" x="396.02" y="149.67" width="1.03" height="45.82"/><rect class="cls-30" x="399.74" y="151.22" width="1.03" height="45.82"/><rect class="cls-30" x="403.46" y="152.76" width="1.03" height="45.82"/><rect class="cls-30" x="407.18" y="154.3" width="1.03" height="45.82"/></g><path class="cls-31" d="M403.73,157.77c10.94,5.47,10.94,14.34,0,19.82s-28.69,5.47-39.63,0-10.94-14.34,0-19.82S392.78,152.3,403.73,157.77Z" transform="translate(0)"/><path class="cls-30" d="M366.21,160.71c9.78-4.89,25.63-4.89,35.41,0,4.41,2.2,6.81,5,7.24,7.91.53-3.51-1.87-7.11-7.24-9.79-9.78-4.89-25.63-4.89-35.41,0-5.37,2.68-7.77,6.28-7.24,9.79C359.39,165.74,361.8,162.91,366.21,160.71Z" transform="translate(0)"/><path class="cls-2" d="M366.21,176.53c9.78,4.89,25.63,4.89,35.41,0,4.41-2.2,6.81-5,7.24-7.91-.43-2.88-2.83-5.71-7.24-7.91-9.78-4.89-25.63-4.89-35.41,0-4.41,2.2-6.81,5-7.24,7.91C359.39,171.5,361.8,174.32,366.21,176.53Z" transform="translate(0)"/><path class="cls-2" d="M409.89,160.92a18.42,18.42,0,0,0-6.16-4.65c-10.94-5.47-28.69-5.47-39.63,0a18.42,18.42,0,0,0-6.16,4.65h-2v5.26h0c0,3.59,2.74,7.17,8.21,9.91,10.94,5.47,28.69,5.47,39.63,0,5.47-2.74,8.21-6.32,8.21-9.91v-5.26Z" transform="translate(0)"/><g class="cls-43"><rect class="cls-30" x="358.38" y="136.2" width="1.03" height="45.82"/><rect class="cls-30" x="361.85" y="138.95" width="1.03" height="45.82"/><rect class="cls-30" x="365.33" y="141.71" width="1.03" height="45.82"/><rect class="cls-30" x="368.8" y="144.46" width="1.03" height="45.82"/><rect class="cls-30" x="372.81" y="142.92" width="1.03" height="45.82"/><rect class="cls-30" x="376.83" y="141.38" width="1.03" height="45.82"/><rect class="cls-30" x="380.84" y="139.84" width="1.03" height="45.82"/><rect class="cls-30" x="384.85" y="138.29" width="1.03" height="45.82"/><rect class="cls-30" x="388.57" y="139.84" width="1.03" height="45.82"/><rect class="cls-30" x="392.29" y="141.38" width="1.03" height="45.82"/><rect class="cls-30" x="396.02" y="142.92" width="1.03" height="45.82"/><rect class="cls-30" x="399.74" y="144.46" width="1.03" height="45.82"/><rect class="cls-30" x="403.46" y="146" width="1.03" height="45.82"/><rect class="cls-30" x="407.18" y="147.54" width="1.03" height="45.82"/></g><path class="cls-31" d="M403.73,151c10.94,5.47,10.94,14.34,0,19.82s-28.69,5.47-39.63,0-10.94-14.34,0-19.82S392.78,145.54,403.73,151Z" transform="translate(0)"/><path class="cls-30" d="M366.21,154c9.78-4.89,25.63-4.89,35.41,0,4.41,2.2,6.81,5,7.24,7.91.53-3.51-1.87-7.11-7.24-9.79-9.78-4.89-25.63-4.89-35.41,0-5.37,2.68-7.77,6.28-7.24,9.79C359.39,159,361.8,156.16,366.21,154Z" transform="translate(0)"/><path class="cls-34" d="M366.21,169.77c9.78,4.89,25.63,4.89,35.41,0,4.41-2.2,6.81-5,7.24-7.91-.43-2.88-2.83-5.71-7.24-7.91-9.78-4.89-25.63-4.89-35.41,0-4.41,2.2-6.81,5-7.24,7.91C359.39,164.75,361.8,167.57,366.21,169.77Z" transform="translate(0)"/><path class="cls-35" d="M372,161.05a10.77,10.77,0,0,0,4.19,3.48c2.31,1.16,4.49,1.29,5.94.56s1.12-1.62-.59-3.43c-2.41-2.49-2.77-4.72.46-6.34,3.8-1.9,9.87-1.77,15.12.86a12.6,12.6,0,0,1,4.56,3.4l-5.18,1.47a9.11,9.11,0,0,0-3.6-2.86c-2.18-1.09-4.23-1.12-5.38-.54-1.42.71-.79,1.65,1,3.63,2.48,2.69,2.28,4.64-.86,6.21-3.73,1.87-9.77,2-15.88-1a13,13,0,0,1-5-3.83Z" transform="translate(0)"/><polygon class="cls-35" points="372.6 169.24 369.22 167.56 397.17 153.58 400.54 155.27 372.6 169.24"/><polygon class="cls-36" points="400.54 154.28 400.54 155.27 398.81 156.14 397.64 155.73 400.54 154.28"/><polygon class="cls-35" points="366.8 162.62 366.8 161.63 368.92 162.13 367.86 163.19 366.8 162.62"/><polygon class="cls-37" points="369.22 167.56 369.22 166.57 372.6 168.26 372.6 169.24 369.22 167.56"/><polygon class="cls-37" points="401.66 159.58 401.66 158.59 396.48 160.06 396.48 161.05 401.66 159.58"/><path class="cls-31" d="M372,160.06a10.78,10.78,0,0,0,4.19,3.48c2.31,1.16,4.49,1.29,5.94.56s1.12-1.62-.59-3.43c-2.41-2.49-2.77-4.72.46-6.34,3.8-1.9,9.87-1.77,15.12.86a12.6,12.6,0,0,1,4.56,3.4l-5.18,1.47a9.11,9.11,0,0,0-3.6-2.86c-2.18-1.09-4.23-1.12-5.38-.54-1.42.71-.79,1.65,1,3.63,2.48,2.69,2.28,4.64-.86,6.21-3.73,1.87-9.77,2-15.88-1a13,13,0,0,1-5-3.83Z" transform="translate(0)"/><polygon class="cls-31" points="372.6 168.26 369.22 166.57 397.17 152.6 400.54 154.28 372.6 168.26"/></svg>