<svg xmlns="http://www.w3.org/2000/svg" viewBox="0 0 215.33 215.33"><defs><style>.cls-1{isolation:isolate;}.cls-2{fill:#7c0d37;}</style></defs><g id="Layer_2" data-name="Layer 2"><g id="Layer_1-2" data-name="Layer 1"><g id="_copy" data-name=" copy" class="cls-1"><g class="cls-1"><path class="cls-2" d="M215.33,41.43v94.2c0,14.64-22.5,27-53.83,31.67v22.16c0,18.59-36.17,33.65-80.75,33.65S0,208.05,0,189.46V95.26C0,80.62,22.5,68.17,53.83,63.55V41.43C53.83,22.84,90,7.78,134.58,7.78S215.33,22.84,215.33,41.43Zm-74,60.56c0-11.15-27.13-20.19-60.56-20.19s-60.56,9-60.56,20.19,27.12,20.18,60.56,20.18S141.31,113.13,141.31,102Zm0,26.66c-14.81,8.37-36.42,13.71-60.56,13.71S35,137.06,20.19,128.65v18.88c4.2,4.92,25.4,15,60.56,15s56.35-10.1,60.56-15Zm0,42.65c-14.81,7-36.42,11.43-60.56,11.43S35,178.28,20.19,171.3v16.61c4.2,4.92,25.4,15,60.56,15s56.35-10.09,60.56-15ZM195.14,48.15C195.14,37,168,28,134.58,28S74,37,74,48.15c0,5.3,6.31,10.1,16.36,13.71a160.6,160.6,0,0,1,38,6.27c2.06.09,4.08.21,6.18.21C168,68.34,195.14,59.3,195.14,48.15Zm0,26.63c-9.59,5.46-22.29,9.46-36.5,11.69a16.35,16.35,0,0,1,2.86,8.79v11.23c19-3.28,30.66-9.3,33.64-12.79Zm0,42.68c-9,4.25-20.61,7.41-33.64,9.34v20.06c19-3.28,30.66-9.29,33.64-12.78Z" transform="translate(0 -7.78)"/></g></g></g></g></svg>