<svg xmlns="http://www.w3.org/2000/svg" viewBox="0 0 166 143.27"><defs><style>.cls-1{fill:#7c0d37;}</style></defs><g id="Layer_2" data-name="Layer 2"><g id="Layer_1-2" data-name="Layer 1"><g id="noun_credit_rating_2_copy" data-name="noun credit rating 2 copy"><path id="Shape" class="cls-1" d="M47.54,143.27h-.38a2.75,2.75,0,0,1-2.84-2.05l-2.61-15.6a2.16,2.16,0,0,1,1-2.12l23.08-16.7.2-.12a6.64,6.64,0,0,0,3.26-4.42,5.86,5.86,0,0,0-1.44-5,8.43,8.43,0,0,0-5.28-2.69,10.19,10.19,0,0,0-1.24-.08,9.2,9.2,0,0,0-4.8,1.31L26,114.2a3.27,3.27,0,0,1-1.68.44,3.08,3.08,0,0,1-.61-.06,2.86,2.86,0,0,1-1.88-1.16v-.24a2.21,2.21,0,0,1-.24-.68L17.45,86.63,5.82,107.14l4.8,33.43a2.26,2.26,0,0,1-1.15,2.2,3.42,3.42,0,0,1-2.88.28,2.5,2.5,0,0,1-1.73-1.93L0,107a2.05,2.05,0,0,1,.25-1.3l15.93-28L14.6,67.56a7.69,7.69,0,0,1,2-6.3,11,11,0,0,1,7.08-3.47L119,47.65v-.59a26.66,26.66,0,0,0-7.91-18.62,1.41,1.41,0,0,1,.11-2.1l12.16-10.28a2.25,2.25,0,0,1,1.42-.48,2.15,2.15,0,0,1,1.38.54c8.56,8,13.59,18.38,14.21,29.27l4.78-.49a12.09,12.09,0,0,1,7.68,1.75,8.52,8.52,0,0,1,4,5.77l9.09,58.76a7.64,7.64,0,0,1-2.06,6.41A11.07,11.07,0,0,1,156.9,121L48.63,132.44,50,140.56a2.09,2.09,0,0,1-.55,1.78A3,3,0,0,1,47.54,143.27ZM61.3,89.8a16.18,16.18,0,0,1,2.09.13,14.33,14.33,0,0,1,9.06,4.57,10,10,0,0,1,2.45,8.39,11.23,11.23,0,0,1-5.44,7.53L47.6,126.24l.24,1.49,108.31-11.52c2.54-.26,4.38-2.23,4.12-4.43L151.18,53a4.59,4.59,0,0,0-4.73-3.47h-.61l-121.41,13a5,5,0,0,0-3.22,1.57,3.49,3.49,0,0,0-.9,2.87l6.33,41L53.12,92A15.75,15.75,0,0,1,61.3,89.8Zm48.75,9.43h0l-1-6.72,11.52-1.21,1,6.72-11.51,1.21Zm13.66-1.39h0L120,74.12l7.93-.84,3-.32,13.58-1.45,1.05,6.72L132,79.68l2.64,17-11,1.16Zm13-1.38h0l-1-6.73,11.51-1.22,1,6.72-11.51,1.23Zm-27.94-5.72h0L107.69,84l11.51-1.22,1.14,6.75-11.52,1.21ZM135.47,88h0l-1.05-6.73L145.94,80,147,86.73,135.48,88ZM37.71,85.87h-.18a1.67,1.67,0,0,1-1.48-1.59L34.81,71.35A2.32,2.32,0,0,1,35.09,70a1.58,1.58,0,0,1,1-.73L56.4,65.89h.2a1.65,1.65,0,0,1,1.46,1.61l1.26,12.91a2.28,2.28,0,0,1-.3,1.4,1.44,1.44,0,0,1-1,.72L37.71,85.89Zm69.71-3.59h0l-1-6.71,11.42-1.23,1.13,6.74-11.51,1.21ZM92.79,49.09H72.62A1.79,1.79,0,0,1,70.7,47.5c.16-5.59,5.51-10,12-10h1L96.56,23a2.19,2.19,0,0,1,2.52-.44,1.68,1.68,0,0,1,.93.94,1.34,1.34,0,0,1-.13,1.18l-8.5,15.93a9,9,0,0,1,3.33,6.85A1.78,1.78,0,0,1,92.79,49.09ZM45.21,49H27.56a1.77,1.77,0,0,1-1.83-1.58c.05-11.58,5.11-22.73,14.19-31.26a2.1,2.1,0,0,1,1.38-.56,2.25,2.25,0,0,1,1.42.48L54.84,26.4A1.39,1.39,0,0,1,55,28.49a26.59,26.59,0,0,0-7.84,18.57v.38a1.41,1.41,0,0,1-.55,1.13A2.12,2.12,0,0,1,45.21,49ZM59.13,24.34a2,2,0,0,1-1.34-.46L45.57,13.63A1.45,1.45,0,0,1,45,12.45a1.51,1.51,0,0,1,.67-1.13A63.92,63.92,0,0,1,78.86,0H79a2.12,2.12,0,0,1,1.31.43,1.47,1.47,0,0,1,.61,1.16V15.92a1.73,1.73,0,0,1-1.71,1.59A40,40,0,0,0,60.34,24a2.16,2.16,0,0,1-1.2.35Zm47.69-.11h0a2.18,2.18,0,0,1-1.18-.35,39.82,39.82,0,0,0-18.77-6.37,1.71,1.71,0,0,1-1.65-1.59V1.59a1.49,1.49,0,0,1,.6-1.16A2.12,2.12,0,0,1,87.13,0h.13a63.91,63.91,0,0,1,33,11.21,1.39,1.39,0,0,1,.3,2.14l-.18.17L108.19,23.75A2.14,2.14,0,0,1,106.82,24.23Z"/></g></g></g></svg>