<svg xmlns="http://www.w3.org/2000/svg" viewBox="0 0 244.61 244.61"><defs><style>.cls-1{isolation:isolate;}.cls-2{fill:#bb394e;}</style></defs><g id="Layer_2" data-name="Layer 2"><g id="Layer_1-2" data-name="Layer 1"><g id="_" data-name=" " class="cls-1"><g class="cls-1"><path class="cls-2" d="M244.61,135.37A122.31,122.31,0,1,1,122.3,13.07,122.28,122.28,0,0,1,244.61,135.37Zm-50.06,61.06A55,55,0,0,0,146,166.94a11.84,11.84,0,0,0-3.5.54,65.15,65.15,0,0,1-20.18,3.4,65.39,65.39,0,0,1-20.17-3.4,11.84,11.84,0,0,0-3.5-.54,55,55,0,0,0-48.57,29.49,94.41,94.41,0,0,0,144.49,0ZM78.91,103.81a43.4,43.4,0,1,0,43.39-43.4A43.4,43.4,0,0,0,78.91,103.81Z" transform="translate(0 -13.07)"/></g></g></g></g></svg>