<svg xmlns="http://www.w3.org/2000/svg" viewBox="0 0 217.32 197.81"><defs><style>.cls-1{isolation:isolate;}.cls-2{fill:#7c0d37;}.cls-3{fill:#fff;}</style></defs><g id="Layer_2" data-name="Layer 2"><g id="Layer_1-2" data-name="Layer 1"><g id="Group_3_Copy_2" data-name="Group 3 Copy 2"><g id="_" data-name=" " class="cls-1"><g class="cls-1"><path class="cls-2" d="M144,181a18,18,0,0,1-18,18H18A18,18,0,0,1,0,181v-156a18,18,0,0,1,18-18H94.56a18,18,0,0,1,12.72,5.29L138.75,43.7A17.92,17.92,0,0,1,144,56.41ZM126,73H87a9,9,0,0,1-9-9v-39H18V181H126Zm-18,37.51a4.52,4.52,0,0,1-4.5,4.5h-63a4.52,4.52,0,0,1-4.5-4.5V100a4.52,4.52,0,0,1,4.5-4.5h63A4.52,4.52,0,0,1,108,100Zm0,21V142a4.52,4.52,0,0,1-4.5,4.5h-63A4.52,4.52,0,0,1,36,142V131.47a4.52,4.52,0,0,1,4.5-4.5h63A4.52,4.52,0,0,1,108,131.47ZM96,55h28.54L96,26.41Z" transform="translate(0 -6.94)"/></g></g><circle id="Oval" class="cls-2" cx="159.2" cy="139.69" r="58.12"/><g id="_۱۰" data-name=" ۱۰" class="cls-1"><g class="cls-1"><path class="cls-3" d="M161.14,169.37h-9.52V132.72l-11.34,3.51V128.5l19.84-7.09h1Z" transform="translate(0 -6.94)"/><path class="cls-3" d="M208.93,149.56q0,9.93-4.12,15.19T192.75,170q-7.81,0-12-5.15t-4.24-14.8v-8.82q0-10.05,4.16-15.25t12-5.2q7.81,0,12,5.16t4.26,14.79Zm-9.52-9.67c0-4-.55-6.88-1.63-8.68a5.49,5.49,0,0,0-5.08-2.71,5.39,5.39,0,0,0-4.94,2.58c-1.06,1.71-1.64,4.41-1.71,8.08v11.66q0,5.87,1.59,8.7a5.43,5.43,0,0,0,5.11,2.85,5.35,5.35,0,0,0,5-2.74q1.56-2.74,1.62-8.37Z" transform="translate(0 -6.94)"/></g></g></g></g></g></svg>