<svg xmlns="http://www.w3.org/2000/svg" width="30.48" height="24.603" viewBox="0 0 30.48 24.603">
  <g id="team_1_" data-name="team(1)" transform="translate(0 -68.066)">
    <g id="Group_91" data-name="Group 91" transform="translate(23.089 78.601)">
      <g id="Group_90" data-name="Group 90">
        <path id="Path_2037" data-name="Path 2037" d="M396.406,229a9.07,9.07,0,0,0-3.19-.546.465.465,0,1,0,0,.93,8.027,8.027,0,0,1,2.774.448.465.465,0,0,0,.416-.832Z" transform="translate(-392.751 -228.449)" fill="#bb394e"/>
      </g>
    </g>
    <g id="Group_93" data-name="Group 93" transform="translate(0 68.066)">
      <g id="Group_92" data-name="Group 92">
        <path id="Path_2038" data-name="Path 2038" d="M29.118,86.13l-1.844-.579a.2.2,0,0,1-.135-.2v-.677a3.445,3.445,0,0,0,.427-.385,3.8,3.8,0,0,0,1.005-2.613v-.934l.178-.392a3.389,3.389,0,0,0,.3-1.393v-2.53a.47.47,0,0,0-.446-.491H24.3a2.988,2.988,0,0,0-2.833,3.115v.029a2.818,2.818,0,0,0,.249,1.159l.229.5v.8a3.962,3.962,0,0,0,1.432,3.1v.709c0,.109,0,.155-.369.271l-.9.283-2.6-1.041a.52.52,0,0,0-.122-.376l-.832-.961V81.917c.088-.08.175-.161.259-.248a6.045,6.045,0,0,0,1.651-4.189V76.192a6.154,6.154,0,0,0,.477-2.386V68.557a.47.47,0,0,0-.446-.491H13.813a4.5,4.5,0,0,0-4.266,4.69v1.05a6.154,6.154,0,0,0,.477,2.386V77.3a6.261,6.261,0,0,0,1.91,4.578V83.53l-.832.961a.52.52,0,0,0-.122.376l-2.747,1.1a2.276,2.276,0,0,0-.552.318l-.431-.237a3.542,3.542,0,0,0,1.71-1.522.535.535,0,0,0,0-.439,9.525,9.525,0,0,1-.392-3.048c-.01-.347-.02-.675-.039-.967-.152-2.355-1.78-4.131-3.787-4.131S1.108,77.715.956,80.07c-.019.292-.029.62-.039.967a9.526,9.526,0,0,1-.392,3.048.535.535,0,0,0,0,.439,3.541,3.541,0,0,0,1.712,1.521l-1.2.659A2.085,2.085,0,0,0,0,88.551v3.627a.47.47,0,0,0,.446.491.47.47,0,0,0,.446-.491V88.551a1.094,1.094,0,0,1,.545-.969l1.492-.82.519.542a1.757,1.757,0,0,0,2.588,0l.519-.542.486.267A2.778,2.778,0,0,0,6.683,88.4v3.778a.448.448,0,1,0,.893,0V88.4a1.614,1.614,0,0,1,.963-1.512l2.9-1.158,1.206,1.989a.911.911,0,0,0,.678.447.858.858,0,0,0,.092,0,.88.88,0,0,0,.652-.3l.736-.809v5.114a.448.448,0,1,0,.893,0V87.064l.736.809a.88.88,0,0,0,.652.3.853.853,0,0,0,.092,0,.911.911,0,0,0,.678-.447l1.206-1.989,2.9,1.158a1.614,1.614,0,0,1,.963,1.512v3.779a.448.448,0,1,0,.893,0V88.4a2.736,2.736,0,0,0-.66-1.8l.11-.035a2.306,2.306,0,0,0,.415-.165l1.14,1.253v4.521a.448.448,0,1,0,.893,0V87.657l1.132-1.245a1.008,1.008,0,0,0,.19.083l1.844.579a1.079,1.079,0,0,1,.715,1.042v4.061a.448.448,0,1,0,.893,0V88.117A2.057,2.057,0,0,0,29.118,86.13ZM2.864,85.263a3.214,3.214,0,0,1-1.433-1.011,5.864,5.864,0,0,0,.254-1.176,3.614,3.614,0,0,0,1.178,1.6Zm2.558,1.329a.922.922,0,0,1-1.358,0l-.415-.434a1.1,1.1,0,0,0,.109-.479v-.523a3.034,3.034,0,0,0,1.971,0v.523a1.1,1.1,0,0,0,.109.48Zm-.679-2.254A2.55,2.55,0,0,1,2.325,81.68a.47.47,0,0,0-.446-.491.4.4,0,0,0-.073.007l0-.126c.01-.338.02-.656.037-.93a3.828,3.828,0,0,1,.9-2.289,2.6,2.6,0,0,1,3.988,0,3.828,3.828,0,0,1,.9,2.289c.018.273.027.592.037.93l0,.088a4.064,4.064,0,0,0-2.205-1.772,5.133,5.133,0,0,0-1.7-.3.429.429,0,0,0-.309.15l-.806.919a.526.526,0,0,0,.011.694A.419.419,0,0,0,3.3,80.84l.67-.764a3.545,3.545,0,0,1,3.157,2.017A2.5,2.5,0,0,1,4.743,84.338Zm1.878.927v-.586a3.585,3.585,0,0,0,1.179-1.6,5.856,5.856,0,0,0,.254,1.173A3.229,3.229,0,0,1,6.622,85.265Zm4.3-7.964V76.083a.532.532,0,0,0-.044-.213,5.1,5.1,0,0,1-.433-2.063v-1.05a3.557,3.557,0,0,1,3.373-3.708h6.237v4.758a5.1,5.1,0,0,1-.433,2.063.532.532,0,0,0-.044.213v1.4A4.944,4.944,0,0,1,18.2,80.953a4.581,4.581,0,0,1-.343.319l-.008.006a4.027,4.027,0,0,1-2.9.95A4.712,4.712,0,0,1,10.918,77.3Zm2.514,9.878a.027.027,0,0,1-.025.01.028.028,0,0,1-.023-.015L12,84.883l.447-.516,2.107,1.583Zm1.814-1.895-2.418-1.817v-.916a4.693,4.693,0,0,0,2.071.657q.177.013.351.013a4.8,4.8,0,0,0,2.413-.65v.9Zm1.861,1.889a.028.028,0,0,1-.023.015.026.026,0,0,1-.025-.01L15.942,85.95l2.107-1.583.447.516Zm8.153-.414-1.013-1.114a1.476,1.476,0,0,0,.028-.292v-.207a2.877,2.877,0,0,0,.884.172l.1,0a3.041,3.041,0,0,0,.984-.164v.2a1.284,1.284,0,0,0,.032.286Zm1.684-3.172a2.285,2.285,0,0,1-1.758.749,2.655,2.655,0,0,1-2.343-2.789V80.63a.531.531,0,0,0-.047-.22l-.276-.607a1.75,1.75,0,0,1-.154-.719v-.029a2.046,2.046,0,0,1,1.94-2.134h3.85v2.039a2.321,2.321,0,0,1-.2.954l-.225.5a.531.531,0,0,0-.047.22v1.05A2.772,2.772,0,0,1,26.943,83.588Z" transform="translate(0 -68.066)" fill="#bb394e"/>
      </g>
    </g>
    <g id="Group_95" data-name="Group 95" transform="translate(27.562 88.757)">
      <g id="Group_94" data-name="Group 94" transform="translate(0 0)">
        <path id="Path_2039" data-name="Path 2039" d="M465.388,380.814a.465.465,0,0,0-.465.465v2.982a.465.465,0,0,0,.93,0v-2.982A.465.465,0,0,0,465.388,380.814Z" transform="translate(-464.923 -380.814)" fill="#bb394e"/>
      </g>
    </g>
    <g id="Group_97" data-name="Group 97" transform="translate(1.988 89.371)">
      <g id="Group_96" data-name="Group 96" transform="translate(0 0)">
        <path id="Path_2040" data-name="Path 2040" d="M32.542,390.728a.465.465,0,0,0-.465.465v2.368a.465.465,0,0,0,.93,0v-2.368A.465.465,0,0,0,32.542,390.728Z" transform="translate(-32.077 -390.728)" fill="#bb394e"/>
      </g>
    </g>
    <g id="Group_99" data-name="Group 99" transform="translate(11.301 72.557)">
      <g id="Group_98" data-name="Group 98" transform="translate(0 0)">
        <path id="Path_2041" data-name="Path 2041" d="M200.212,137.583c-1.758-1.758-5.437-1.422-6.937-1.2a.954.954,0,0,0-.815.951v1.071a.465.465,0,0,0,.93,0v-1.071a.031.031,0,0,1,.024-.031,14.686,14.686,0,0,1,3.02-.148,4.8,4.8,0,0,1,3.121,1.082.465.465,0,0,0,.657-.657Z" transform="translate(-192.46 -136.203)" fill="#bb394e"/>
      </g>
    </g>
    <g id="Group_101" data-name="Group 101" transform="translate(9.536 89.751)">
      <g id="Group_100" data-name="Group 100">
        <path id="Path_2042" data-name="Path 2042" d="M160.849,396.853a.465.465,0,0,0-.465.465v1.988a.465.465,0,0,0,.93,0v-1.988A.465.465,0,0,0,160.849,396.853Z" transform="translate(-160.384 -396.853)" fill="#bb394e"/>
      </g>
    </g>
    <g id="Group_103" data-name="Group 103" transform="translate(20.026 89.751)">
      <g id="Group_102" data-name="Group 102">
        <path id="Path_2043" data-name="Path 2043" d="M337.271,396.853a.465.465,0,0,0-.465.465v1.988a.465.465,0,1,0,.93,0v-1.988A.465.465,0,0,0,337.271,396.853Z" transform="translate(-336.806 -396.853)" fill="#bb394e"/>
      </g>
    </g>
  </g>
</svg>
