<svg xmlns="http://www.w3.org/2000/svg" viewBox="0 0 259.56 207.96"><defs><style>.cls-1,.cls-2{fill:#7c0d37;stroke:#fff;stroke-miterlimit:10;}.cls-2{stroke-width:0.5px;}</style></defs><g id="Layer_2" data-name="Layer 2"><g id="Layer_1-2" data-name="Layer 1"><g id="Group"><path id="Path" class="cls-1" d="M121.94,126.21a32.44,32.44,0,0,1,8.18-.92,51,51,0,0,1,8.47.92L147.05,68V66.12c-.29-7.92-8-14.16-17.21-14a20.07,20.07,0,0,0-13,4.82,12.51,12.51,0,0,0-4.23,11Z"/><path id="Path-2" class="cls-1" d="M129.78,141c-9.52,0-17.23,6.65-17.28,14.82s7.76,14.77,17.28,14.81S147,164,147.05,155.85s-7.34-14.69-16.73-14.82Z"/><path id="Shape" class="cls-2" d="M213.56,207.7H45.83C21,208,.57,190.91.25,169.59a34.39,34.39,0,0,1,5.5-19L89.46,20.53c12.32-19,40.28-25.88,62.47-15.32a43.42,43.42,0,0,1,17.69,15.06l84,130.08a33.33,33.33,0,0,1-.82,38.45C244.55,200.63,229.62,207.82,213.56,207.7ZM129.54,18c-9-.12-17.28,4.05-21.54,10.82L24.56,159.13a18.21,18.21,0,0,0,.56,20.5c4.36,6.37,12.38,10.24,21,10.12H213.56c8.69.15,16.81-3.71,21.26-10.12a18,18,0,0,0,.27-20.75l-84-130.06C146.76,22.1,138.49,17.94,129.54,18Z"/></g></g></g></svg>